<svg width="2453" height="3557" viewBox="0 0 2453 3557" fill="none" xmlns="http://www.w3.org/2000/svg">
<g clip-path="url(#clip0_5_19362)">
<path fill-rule="evenodd" clip-rule="evenodd" d="M585.148 2130.53C593.348 2107.93 581.374 2085.38 574.732 2063.51C551.136 1987.66 615.675 1796.36 660.813 1793.57C677.32 1750.68 721.377 1732.89 756.051 1708.19C795.4 1683.53 833.676 1655.21 874.598 1633.59C876.874 1613.16 901.542 1608.1 916.627 1622.71C958.059 1596.83 1007.74 1601.64 1052.15 1584.68C1085.9 1529.91 1088.43 1472.31 1097.37 1419.47C1101.26 1396.44 1097.12 1374.21 1112.8 1353.68C1165.45 1279.31 1373.5 1247.07 1450.21 1291.14C1491.5 1265.28 1492.49 1312.11 1499.05 1341.02C1506.34 1355.48 1510.28 1371.85 1509.06 1389.11C1528.61 1430.11 1545.18 1481.39 1586.27 1512.01C1638.39 1550.86 1718.59 1565.63 1769.41 1584.68C1780.81 1573.67 1784.29 1557.74 1784.29 1557.74C1863.06 1574.94 1939.51 1605.16 2005.5 1652.35C2080.47 1674.37 2133.28 1735.6 2171.46 1801.26C2175.67 1808.18 2176.66 1815.24 2175.43 1821.72C2292.84 1994.55 2348.88 2201.45 2356.75 2410.42C2432.26 2455.92 2320.86 2864.69 2294.93 2949.55C2294.91 2949.54 2294.88 2949.53 2294.85 2949.52C2278.03 2979.42 2258.93 3064.77 2216.83 3058.16C2187.95 3090.95 2141.92 3084.51 2102.73 3087.03C2109.11 3111.61 2105.98 3139.75 2098.38 3164.04C2089.39 3192.96 2045.3 3193.94 2039.04 3162.41C1648.76 3238.55 1248.31 3177.8 853.631 3189.23C739.518 3190.04 625.415 3193.59 511.576 3201.75C495.547 3202.9 479.295 3186.45 480.386 3170.43C504.861 2908.95 527.846 2564.99 555.216 2306.08C561.706 2247.03 566.84 2187.34 585.148 2130.53Z" fill="#D08B5B"/>
<path fill-rule="evenodd" clip-rule="evenodd" d="M1783.89 1559.48C1784.03 1558.9 1784.17 1558.33 1784.29 1557.74C1863.06 1574.94 1939.51 1605.16 2005.5 1652.35C2080.47 1674.37 2133.28 1735.6 2171.46 1801.26L2171.97 1802.13C2175.74 1808.77 2176.61 1815.51 2175.43 1821.72C2292.84 1994.55 2348.88 2201.45 2356.75 2410.42C2432.26 2455.92 2320.86 2864.69 2294.93 2949.55L2294.85 2949.52C2290.66 2956.97 2286.33 2967.86 2281.53 2979.92C2267.08 3016.25 2248.44 3063.12 2216.83 3058.16C2193.35 3084.82 2158.54 3085.55 2125.28 3086.24C2117.63 3086.4 2110.06 3086.55 2102.73 3087.03C2109.11 3111.61 2105.98 3155.47 2098.38 3179.77C2089.39 3208.69 842.769 3232.25 511.576 3201.75C495.583 3200.28 479.295 3186.45 480.386 3170.43C490.665 3060.62 500.681 2936.26 510.869 2809.76C524.94 2635.05 539.34 2456.25 555.215 2306.08C555.836 2300.43 556.445 2294.77 557.054 2289.11C562.809 2235.63 568.591 2181.9 585.148 2130.53C591.696 2112.48 585.38 2094.47 579.187 2076.8C577.624 2072.35 576.07 2067.92 574.732 2063.51C551.136 1987.67 611.254 1796.82 654.356 1793.98L660.813 1793.57C673.492 1760.63 702.426 1742.49 730.877 1724.66C738.615 1719.81 746.316 1714.98 753.646 1709.89L756.051 1708.19C769.464 1699.79 782.753 1690.96 796.064 1682.11C821.803 1665 847.626 1647.84 874.598 1633.59C876.874 1613.16 901.542 1608.1 916.627 1622.71C923.219 1618.59 930.019 1615.25 936.973 1612.48L939.728 1650.51C986.762 1826.55 1117.63 1924.49 1332.34 1944.35C1654.39 1974.13 1799.56 1650.03 1799.56 1617.28C1799.56 1602.91 1794.83 1584.78 1785.38 1562.88L1783.89 1559.48ZM1323.03 2329.86L1351.61 2348.41C1351.61 2348.41 1351.61 2406.53 1344.99 2470.66C1338.38 2534.78 1286.71 2606.37 1286.71 2606.37C1286.71 2606.37 1134.46 2564.37 1104.63 2558.7C1082.27 2554.45 1063.39 2525.74 1049.43 2504.51C1044.78 2497.43 1040.67 2491.19 1037.16 2486.96C1028.4 2476.39 1004.1 2471.7 977.111 2466.48C960.927 2463.35 943.773 2460.04 928.418 2455.15C887.454 2442.13 871.436 2388.63 871.436 2388.63C871.436 2388.63 781.9 2369.23 753.058 2362.75C724.216 2356.27 753.058 2329.86 753.058 2329.86L976.604 2322.01C976.604 2322.01 842.769 2293.29 814.102 2289.33C785.435 2285.38 708.429 2261.37 708.429 2242.77C708.429 2224.82 822.093 2224.86 885.235 2224.89C887.526 2224.89 889.751 2224.89 891.901 2224.89C953.311 2224.89 1089.38 2236.47 1089.38 2236.47L1037.16 2211.36C1037.16 2211.36 860.455 2177 836.893 2177C813.331 2177 803.509 2141.59 803.509 2141.59C803.509 2141.59 813.637 2118 830.492 2104.88C847.347 2091.75 979.777 2118 1076.01 2141.59C1172.25 2165.19 1210.09 2205.39 1210.09 2205.39L1323.03 2329.86Z" fill="#FBDD74"/>
<path fill-rule="evenodd" clip-rule="evenodd" d="M975.116 2109.23L860.403 1848.31C860.403 1848.31 843.069 1803.98 813.637 1803.98C784.204 1803.98 517.317 1812.37 517.317 1812.37C517.317 1812.37 462.698 1819.37 480.334 1848.31C497.97 1877.26 760.214 2415.84 760.214 2415.84H871.436V2388.63L747.613 2353.87C747.613 2353.87 725.075 2329.86 760.214 2329.86C795.353 2329.86 999.786 2322.01 999.786 2322.01L804.854 2293.29L708.429 2256.05L722.613 2236.47L804.854 2224.68L1072.68 2236.47L999.786 2211.72L836.893 2177C836.893 2177 804.854 2154.35 804.854 2132.13C804.854 2109.91 890.68 2101.37 890.68 2101.37L975.116 2109.23Z" fill="white"/>
<path fill-rule="evenodd" clip-rule="evenodd" d="M1492.61 1307.28C1491.49 1304.21 1486.93 1304.62 1486.84 1308.06C1485.05 1381.58 1503.27 1471.42 1561.86 1521.08C1591.93 1546.57 1631.69 1558.23 1668.21 1571.64L1672.33 1573.17L1736.84 1597.3C1753.95 1603.7 1772.4 1613.54 1787.52 1604.5C1775.29 1634.95 1765.02 1666.24 1750.13 1695.59C1731.59 1732.13 1709.17 1765.56 1681.74 1795.96C1573.05 1916.4 1401.03 1953.14 1246.67 1917.85C1167.18 1899.68 1089.83 1865.24 1035.6 1802.42C994.385 1754.67 970.706 1690.58 965.126 1627.37C966.757 1627.63 968.466 1627.62 970.223 1627.23C989.754 1622.96 1009.47 1612.44 1026.66 1602.13L1028.31 1601.14C1044.85 1591.14 1062.08 1579.69 1073.95 1564.16C1085.74 1548.73 1098.11 1498.42 1098.11 1498.42C1101.48 1479.52 1104.64 1441.85 1104.09 1422.74C1104.05 1420.93 1096.08 1419.87 1095.23 1421.74C1087.86 1437.97 1085.48 1473.62 1079.8 1490.51L1078.65 1493.88C1072.59 1511.51 1067.38 1532.98 1054.8 1547.24C1031.18 1574.01 995.538 1585.34 963.727 1598.77C961.443 1568.51 913.318 1569.22 913.928 1600.77C913.962 1602.48 914.038 1604.19 914.098 1605.89C910.303 1607.99 906.653 1610.38 903.24 1612.7L899.911 1614.97C887.311 1623.57 874.614 1631.75 861.196 1639.05C835.22 1653.19 807.721 1664.4 781.105 1677.23C754.179 1690.22 728.997 1705.69 705.485 1724.2C694.442 1732.9 683.853 1742.16 673.81 1752L671.085 1754.7C661.525 1764.26 649.086 1774.95 643.639 1787.51C642.439 1790.28 636.425 1796.72 633.161 1796.94C582.593 1800.27 532.132 1804.97 481.881 1812.02C468.871 1813.84 463.728 1820.57 468.537 1831.46C485.063 1868.88 549.758 2018.31 566.962 2058.42C564.952 2087.88 567.667 2122.56 565.855 2152.03C563.206 2195.04 559.738 2238.03 555.581 2280.91C540.704 2434.32 518.153 2586.98 497.775 2739.72C487.576 2816.16 478.277 2892.71 469.098 2969.28C464.463 3007.97 460.53 3046.71 457.502 3085.57C456.241 3101.76 455.097 3117.96 454.089 3134.17L453.219 3148.55C452.016 3166.64 449.261 3183.92 460.412 3199.45C465.468 3206.5 477.014 3210.47 483.661 3202.46C492.018 3192.4 495.123 3184.89 495.922 3171.67C496.533 3161.55 496.679 3151.39 497.138 3141.26C498.13 3119.31 499.377 3097.37 500.839 3075.45C503.754 3031.61 507.082 2987.79 510.936 2944.03C524.448 2790.58 550.126 2638.28 567.213 2485.21C575.825 2408.04 581.943 2330.73 585.181 2253.13C586.802 2214.39 587.389 2175.64 587.008 2136.85C586.865 2122.37 586.181 2107.95 585.192 2093.56C610.789 2151.95 637.699 2209.78 665.834 2266.84L672.502 2280.35C690.332 2316.42 708.64 2352.62 730.068 2386.62L733.751 2392.42C742.433 2406.23 754.292 2428 770.123 2432.36C781.15 2435.4 794.624 2433.26 805.93 2433.04C817.15 2432.83 828.383 2432.78 839.595 2432.32C852.171 2431.82 864.172 2430.16 876.326 2426.87C878.346 2426.32 880.256 2425.73 881.997 2424.97C894.242 2445.09 915.048 2460.42 936.321 2469.35C953.36 2476.5 971.219 2481.4 989.107 2485.94L995.421 2487.53C1014.6 2492.33 1036.54 2494.61 1047.35 2513.21L1049.86 2517.52C1057.9 2531.23 1065.62 2543.28 1078.93 2553.12C1093.25 2563.71 1110.23 2570.37 1127.13 2575.55C1144.44 2580.85 1162.16 2584.92 1179.74 2589.27L1184.53 2590.46C1196.13 2593.38 1207.84 2596.05 1219.37 2599.23C1224.29 2600.58 1229.3 2601.97 1234.13 2603.64C1239.78 2605.59 1243.89 2608.64 1248.35 2611.95C1252.36 2626.01 1269.49 2633.65 1283.58 2632.67C1290.98 2632.15 1297.62 2629.63 1303.65 2625.94C1314.2 2634.95 1325.8 2643.02 1336.55 2651.37C1351.59 2663.05 1366.7 2674.66 1381.89 2686.16C1413.21 2709.87 1444.76 2733.26 1476.65 2756.18C1533.24 2796.88 1591.06 2835.72 1649.87 2873.12C1674.39 2888.71 1699.07 2904.28 1724 2919.47L1721.34 2920.46L1716.06 2922.46C1703.59 2927.14 1689.69 2934.69 1687.27 2949.3C1685.36 2960.89 1691.8 2968.88 1703.2 2970.3C1716.74 2971.98 1727.28 2962.37 1735.71 2953.2C1739.43 2949.15 1743.6 2945.39 1747.16 2941.23C1748.62 2939.53 1749.73 2937.57 1750.72 2935.51C1775.32 2950.07 1800.18 2964.14 1825.44 2977.29L1831.76 2980.56C1894.39 3012.72 1955.34 3047.95 2018.5 3079.19C2034.98 3087.34 2055.07 3096.16 2076.01 3102.18C2070.45 3123.8 2070.54 3147.55 2070.4 3169.49C2070.26 3190.88 2104.12 3190.78 2103.4 3169.49L2103.06 3159.22C2102.44 3141.93 2101.43 3123.98 2097.35 3107.16C2159.04 3117.44 2220.67 3095.11 2232.15 3088.4C2244.81 3081.01 2256.31 3069.17 2265.88 3058.19C2286.35 3034.69 2300.56 3006.53 2313.16 2978.19C2340.17 2917.51 2359.3 2852.64 2373.28 2787.77C2424.85 2548.59 2402.67 2292.59 2318.93 2063.32C2298.01 2006.03 2273.31 1950.01 2245.01 1896.02L2241.49 1889.34C2213.25 1835.95 2181.86 1782.75 2141.98 1737.31C2100.45 1689.99 2049.22 1653.18 1993.43 1624.61C1966.21 1610.67 1938.2 1598.58 1909.57 1587.88C1904.97 1586.15 1900.34 1584.61 1895.7 1583.14C1865.86 1564.04 1829.65 1545.77 1793.43 1546.49C1790.97 1546.53 1788.98 1547.47 1787.49 1548.88C1785.74 1549.19 1784 1549.56 1782.25 1550.07C1778.39 1551.2 1774.31 1555.44 1774.87 1559.81L1775.05 1561.26C1775.16 1561.97 1775.28 1562.65 1775.5 1563.32C1774.21 1563.52 1772.94 1563.83 1771.69 1564.25C1737.04 1554.43 1702.94 1539.4 1669.12 1527.27L1661.42 1524.54C1633.1 1514.57 1604.04 1504.8 1580.8 1485.08C1557.69 1465.46 1540.31 1440.04 1527.74 1412.56C1512.26 1378.71 1505.33 1342.03 1492.61 1307.28ZM798.761 3092.8C791.899 3087.68 783.785 3093.63 781.217 3099.97C772.787 3120.79 776.953 3153.15 788.835 3171.56C801.149 3190.63 830.622 3183.1 831.334 3160C832.078 3135.91 818.131 3107.28 798.761 3092.8ZM727.882 2517.86C727.266 2515.15 723.08 2515.18 722.453 2517.86C716.74 2542.29 716.874 2568.6 715.196 2593.65L715.002 2596.43C712.99 2624.05 711.299 2651.76 710.093 2679.43C707.726 2733.87 704.897 2788.32 701.726 2842.72C700.152 2869.7 698.466 2896.67 696.668 2923.64C691.036 2920.49 685.234 2917.72 679.221 2915.28C670.212 2911.62 661.44 2911.2 651.76 2911.3C639.972 2911.42 631.095 2921.84 632.656 2933.43C634.358 2946.06 645.431 2951.47 656.93 2949.67C669.666 2947.67 682.457 2944.57 695.316 2943.28C693.883 2964.13 692.403 2984.98 690.835 3005.81C688.755 3033.39 686.043 3060.94 684.138 3088.53C683.955 3091.17 683.76 3093.8 683.559 3096.45C675.891 3092.44 667.748 3090.39 658.52 3087.87L656.119 3087.19C642.72 3083.33 628.386 3077.99 615.984 3087.03C607.649 3093.12 605.984 3103.13 612.889 3111.15C623.36 3123.32 638.852 3120.96 653.315 3120.34L661.096 3120.05C668.429 3119.76 675.194 3119.29 681.972 3117.44C680.727 3135.41 680.072 3153.45 682.267 3171.17C683.454 3180.74 696.005 3183.25 699.327 3173.48C708.005 3147.96 709.798 3120.44 712.974 3093.7C715.94 3068.73 717.743 3043.58 719.686 3018.51L720.274 3010.98C724.643 2955.81 728.137 2900.6 730.69 2845.31C733.245 2790.03 734.779 2734.76 735.39 2679.43C735.668 2654.3 735.253 2629.09 734.273 2603.96L733.963 2596.43C732.835 2570.59 733.623 2543.17 727.882 2517.86ZM1874.71 3096.88C1874.38 3093.35 1871.56 3088.96 1867.37 3089.51C1863.51 3090.01 1859.53 3089.77 1855.72 3090.41C1850.68 3091.25 1846.62 3094.24 1841.93 3096.12C1834.32 3099.18 1826.01 3100.76 1818.19 3103.26C1803.53 3107.96 1795.54 3123.46 1801.61 3137.94C1808 3153.16 1824.05 3156.61 1837.91 3150.22C1848.84 3145.19 1856.99 3137.15 1864.34 3127.84L1866.42 3125.18C1869.59 3121.18 1873.18 3116.72 1874.51 3111.87C1875.8 3107.15 1875.16 3101.68 1874.71 3096.88ZM1162.23 3025.33C1143.96 3022.75 1128.36 3029.02 1111.46 3034.93L1110.09 3035.41C1092.89 3041.37 1067.79 3045.5 1058.97 3063.18C1053.65 3073.84 1057.78 3088 1070.3 3091.15C1090.12 3096.14 1107.9 3081.59 1124.29 3071.8L1125.15 3071.29C1140.97 3061.98 1157.3 3054.16 1167.4 3038.11C1170.1 3033.83 1167.76 3026.12 1162.23 3025.33ZM1799.86 1566.68C1807.18 1568.32 1814.5 1569.78 1821.81 1571.18C1849.62 1586.14 1876.61 1601.67 1905.32 1615.01C1935.78 1629.16 1966.13 1643.77 1995.07 1660.89C2053.53 1695.47 2101.72 1740.43 2141.54 1795.54C2210.32 1890.73 2261.49 2000.52 2298.11 2111.91C2307.52 2140.53 2315.94 2169.47 2323.38 2198.65C2310.22 2186.42 2294.62 2178.9 2277.14 2172.46C2269.73 2169.73 2260.51 2174.35 2256.75 2180.79C2255.06 2183.69 2254.11 2186.55 2254.29 2189.94C2254.68 2197.43 2259.53 2205.94 2267.54 2207.42C2286.22 2210.88 2304.38 2217.61 2322.39 2223.53C2325.12 2224.43 2327.47 2224.09 2329.34 2223.03C2347.22 2299.08 2358.41 2376.7 2362.37 2454.78C2365.72 2520.88 2363.65 2587.51 2356.36 2653.52C2350.76 2650.99 2345.28 2648.62 2339.14 2647.18C2331.17 2645.32 2323.33 2643.06 2315.56 2640.5C2293.13 2633.11 2282.9 2670.3 2305.82 2675.96C2314.35 2678.07 2322.94 2679.82 2331.63 2681.1C2339.21 2682.22 2345.91 2681.73 2353.05 2680.56C2347.6 2721.74 2340.14 2762.63 2330.65 2802.93L2328.55 2811.75C2316.22 2863.23 2301.85 2915.19 2281.06 2963.83C2270.86 2987.69 2257.36 3010.36 2240.69 3030.25C2232.5 3040.04 2223.41 3048.42 2213.5 3056.37C2205.25 3062.99 2177.2 3077.34 2143.97 3077.34C2110.75 3077.34 2101.76 3074.18 2085 3068.39C2051.85 3056.93 2020.38 3038.64 1989.29 3022.35L1986.08 3020.67C1972.33 3013.53 1958.64 3006.29 1944.98 2998.97C1946.7 2984.99 1943.68 2973.25 1936.43 2960.34C1928.59 2946.37 1909.15 2953.32 1907.71 2967.61L1907.66 2968.16C1907.44 2971.38 1906.91 2974.66 1906.24 2977.94C1814.92 2927.7 1725.53 2873.95 1637.56 2817.95C1580.9 2781.86 1524.84 2744.71 1469.6 2706.46C1441.99 2687.35 1414.61 2667.88 1387.51 2648.04C1373.31 2637.64 1359.18 2627.17 1345.11 2616.6C1339.25 2612.19 1333.51 2607.57 1327.63 2603.15C1329.06 2601.35 1330.45 2599.56 1331.8 2597.79C1353.73 2568.96 1367.95 2534.6 1375.04 2499.15C1379.32 2477.76 1381.39 2455.56 1382.02 2433.75L1382.29 2424.27C1382.73 2408.29 1382.84 2391.57 1379.91 2376.09C1383.9 2378.29 1387.98 2380.45 1392.04 2382.76C1406.62 2391.05 1421.22 2399.33 1435.83 2407.57C1465.1 2424.05 1494.46 2440.35 1524.19 2455.99C1577.3 2483.93 1630.93 2510.5 1686 2534.32L1712.8 2545.92C1759.31 2566.01 1806.2 2585.74 1854.56 2600.67C1881.84 2609.09 1922.73 2619.51 1950.4 2625.94C1950.4 2625.94 1917.06 2657.49 1941.19 2668.34C1965.32 2679.19 1985.31 2637.56 1986.1 2633.79C1998.85 2636.47 2035.25 2642.94 2035.25 2642.94C2069.83 2649.64 2103.37 2662.92 2134.28 2679.9C2145.03 2685.81 2148.02 2674.34 2136.63 2666.34C2103.34 2642.97 2064.5 2629.74 2024.43 2618.65L2022.46 2618.1C2007.76 2614.06 1993.09 2609.84 1978.44 2605.48C1980.05 2599.63 1980.98 2593.56 1980.8 2586.87C1980.38 2571.96 1979.07 2557 1978.28 2542.1C1976.63 2510.83 1974.52 2479.66 1972.04 2448.44C1971.09 2436.42 1970.03 2424.36 1968.81 2412.32C1976.66 2408.09 1983.43 2402.48 1992.19 2399.72L1993.67 2399.28C2003.03 2396.75 1999.87 2384.63 1991.55 2383.59C1984.02 2382.66 1976.52 2383.09 1969.09 2384.69C1967.94 2384.94 1966.85 2385.22 1965.81 2385.54C1964.45 2374.38 1962.94 2363.25 1961.22 2352.18C1956.67 2322.94 1953.45 2292.13 1943.98 2264.04C1943.28 2261.96 1940.2 2261.21 1939.06 2263.39C1925.29 2289.7 1924.81 2321.98 1923.26 2351.28L1923.06 2354.79C1921.23 2386.75 1921.13 2419.03 1921.72 2451.04C1922.32 2484.03 1923.45 2516.94 1924.92 2549.9C1925.52 2563.17 1925.49 2576.94 1927.74 2589.63C1845.77 2562.87 1765.25 2530.85 1688.07 2492.92C1633.63 2466.17 1579.65 2438.35 1526.3 2409.48C1499.56 2395.02 1472.7 2380.8 1445.99 2366.28C1436.64 2361.19 1427.29 2356.09 1417.94 2350.98L1403.92 2343.3C1390.81 2336.11 1379.86 2328.96 1364.58 2328.46C1360.02 2328.31 1355.94 2330.45 1353.04 2333.69C1344.83 2327.85 1335.34 2324.25 1325.38 2324.34C1310.39 2303.55 1295.17 2282.92 1279.34 2262.75L1267.65 2247.81C1247.42 2222.04 1225.98 2195.88 1200.17 2176.27C1188.66 2167.52 1175.99 2160.95 1162.78 2155.53C1165.89 2154.77 1168.93 2153.23 1171.64 2150.71C1184.26 2138.96 1186 2117.14 1188.56 2100.74C1191.22 2083.74 1190.19 2068.53 1187.57 2051.58C1186.55 2044.99 1175.68 2043.62 1173.03 2049.67C1167.44 2062.43 1161.53 2074.65 1156.44 2087.54L1154.94 2091.44C1149.49 2105.95 1137.86 2121.23 1138.63 2136.98C1138.84 2141.29 1140.28 2145.05 1142.5 2148.08C1131.41 2144.38 1120.16 2141.08 1109.09 2137.65C1074.23 2126.83 1039.24 2116.32 1003.7 2107.93C994.247 2105.69 984.742 2103.62 975.197 2101.72C970.197 2077.88 962.91 2054.48 954.319 2031.51C962.453 2027.32 967.72 2020.31 974.725 2014.07C981.281 2008.22 985.785 2001.11 991.378 1994.4C996.47 1988.3 993.61 1977.27 984.46 1977.62L981.867 1977.73C972.388 1978.18 963.207 1979.16 954.611 1983.6L951.549 1985.19C947.348 1987.38 942.751 1989.89 938.657 1992.85C933.304 1980.48 927.738 1968.23 922.112 1956.11L914.812 1940.43C895.885 1899.62 877.01 1857.26 853.247 1819.26C842.682 1802.37 828.623 1791.82 808.444 1790.18C787.664 1788.5 766.06 1790.67 745.251 1791.42C721.128 1792.29 697.014 1793.32 672.914 1794.59C679.092 1788.09 684.729 1780.86 690.933 1774.62C701.231 1764.28 712.111 1754.48 723.548 1745.42C746.183 1727.5 771.071 1712.72 796.921 1700C822.777 1687.28 849.392 1676.18 873.664 1660.47C889.023 1650.52 902.751 1638 915.275 1624.46C923.16 1709.87 964.231 1789.22 1025.93 1848.83C1090.02 1910.75 1178.58 1944.76 1265.22 1959.23C1353.59 1973.99 1445.82 1968.57 1530.35 1937.73C1573.94 1921.83 1615.75 1899.11 1653.03 1870.61C1653.44 1873.08 1653.93 1875.54 1654.9 1877.84C1656.2 1880.93 1657.79 1883.57 1659.61 1886.29L1662.86 1891.06C1664.91 1894.06 1667 1897.04 1669.33 1899.82C1674.96 1906.56 1682.94 1909.51 1691.54 1909.48C1708.01 1909.42 1720.48 1893.21 1716.05 1877.18C1713.26 1867.1 1707.3 1861.04 1698 1857.09C1695.06 1855.84 1692.07 1854.8 1689.05 1853.77L1686.79 1853C1683.74 1851.95 1680.72 1850.96 1677.59 1850.38C1695.24 1834.73 1711.62 1817.72 1726.29 1799.36C1772.29 1741.78 1817.67 1661.14 1802.29 1584.67C1802.02 1583.35 1800.84 1582.53 1799.58 1582.32C1798.68 1576.95 1795.84 1571.76 1791.94 1568.27C1794.56 1567.58 1797.21 1567.04 1799.86 1566.68ZM1322.16 2888.8C1313.05 2883.71 1303.64 2895.8 1311.04 2903.27L1322.1 2914.37C1332.36 2924.73 1342.34 2935.19 1351.13 2946.99L1353.25 2949.87C1365.11 2966.07 1377.75 2984.83 1397.17 2990.88C1420.66 2998.2 1443.24 2969.47 1429.64 2948.48C1417.75 2930.13 1394.87 2923.21 1375.14 2915.63C1356.47 2908.45 1339.61 2898.54 1322.16 2888.8ZM2080.06 2804.14C2074.71 2797.11 2060.75 2800.81 2064.41 2810.77C2076.29 2843.11 2081.13 2887.2 2111.13 2908.68C2120.8 2915.61 2136.01 2912.42 2143.97 2904.42C2153.03 2895.33 2153.39 2882.53 2148.21 2871.44C2141.9 2857.91 2126.36 2848.1 2115.48 2837.79L2114.5 2836.86C2102.79 2825.43 2090.12 2817.36 2080.06 2804.14ZM826.326 2841.36C816.772 2837.22 791.87 2829.18 784.491 2838.7C784.146 2839.05 783.851 2839.43 783.614 2839.85C781.805 2843.01 781.536 2847.46 783.614 2850.6C792.213 2863.57 801.169 2873.26 813.395 2882.49L814.768 2883.52C828.078 2893.34 840.582 2904.89 856.799 2909.32C879.278 2915.46 894.979 2887.2 879.192 2870.7C866.473 2857.4 847.057 2850.5 830.204 2843.09L826.326 2841.36ZM1729.03 2656.6C1732.79 2649.78 1725.11 2641.41 1718.15 2645.68C1698.3 2657.86 1675.18 2667 1652.89 2673.56C1643.87 2676.22 1635.73 2685.4 1636.4 2695.31L1636.5 2696.81C1636.77 2700.31 1637.25 2703.79 1639.46 2706.7C1647.23 2716.89 1658.34 2720.82 1670.2 2714.79C1696.63 2701.34 1714.73 2682.56 1729.03 2656.6ZM1148.92 2635.94C1149.4 2633.07 1147.31 2630.85 1144.41 2631.41C1127.63 2634.6 1112.14 2642.73 1097.74 2652.08C1090.01 2657.1 1082.56 2662.61 1074.86 2667.67C1065.33 2673.93 1061.77 2679.09 1060.36 2690.57C1059.43 2698.14 1066.48 2705.06 1072.94 2707.15C1090.54 2712.85 1110.71 2694.15 1122.64 2682L1123.18 2681.45C1135.66 2668.67 1145.96 2653.56 1148.92 2635.94ZM645.138 2616.08C648.962 2605.72 635.785 2597.12 627.167 2602.21C619.053 2607.01 610.25 2610.98 602.595 2616.47C595.562 2621.52 589.148 2627.51 582.403 2632.98L579.069 2635.63C566.699 2645.62 546.279 2670.32 563.967 2684.64C580.802 2698.28 603.121 2680.86 614.421 2668.13L615.209 2667.23C621.71 2659.69 629.725 2651.5 634.441 2642.69C638.88 2634.4 641.892 2624.88 645.138 2616.08ZM811.153 1813.51C832.238 1817.62 840.832 1843.75 849.711 1860.78C870.665 1900.98 889.936 1941.92 909.291 1982.91C915.249 1995.52 921.051 2008.23 926.905 2020.91C927.262 2021.9 927.722 2022.88 928.262 2023.85C940.254 2049.77 952.604 2075.53 967.039 2100.14C953.828 2097.65 940.549 2095.54 927.22 2093.87C927.893 2081.27 919.3 2064.4 915.049 2053.79L914.696 2052.9C909.395 2039.3 903.839 2017.89 890.195 2010.83C885.648 2008.49 880.786 2011.43 880.436 2016.45C879.403 2031.42 893.979 2048.55 901.104 2061.25C905.413 2068.93 909.612 2076.65 913.704 2084.45C915.239 2087.37 916.52 2090.24 918.094 2092.81C911.219 2092.06 904.337 2091.4 897.437 2090.91L892.94 2090.6C867.358 2088.91 840.187 2088.43 817.074 2101.1C795.629 2112.84 784.668 2137.93 796.449 2160.77C811.127 2189.22 843.447 2192.99 871.868 2195.3C907.367 2198.17 942.947 2203.36 978.196 2208.43C1014.66 2213.66 1048.99 2227.16 1084.9 2234.1C1088.25 2234.74 1090.33 2230.35 1087.26 2228.48C1058.93 2211.16 1024.49 2201.63 992.813 2191.93L990.251 2191.14C973.07 2185.84 956.278 2179.79 938.505 2176.78C921.252 2173.86 903.891 2171.5 886.488 2169.7L884.798 2169.55C865.638 2167.93 816.757 2168.48 818.823 2140C820.191 2121.14 850.71 2117.89 864.641 2117.66C928.515 2116.64 992.848 2133.66 1053.55 2151.9L1067.1 2155.98C1091.96 2163.49 1116.85 2171.22 1141.24 2180.02C1168.88 2189.99 1190.65 2205.55 1210.78 2226.84C1233.1 2250.44 1254.72 2274.58 1277.87 2297.38C1292.47 2311.76 1307.25 2325.89 1322.16 2339.9C1325.53 2344.27 1328.22 2349.03 1330.08 2355.21C1333.24 2365.65 1332.51 2375.35 1331.32 2386.06C1328.32 2413.13 1327.66 2440.48 1323.9 2467.47C1320.41 2492.47 1315.53 2518.38 1305.2 2541.57C1301.1 2550.76 1295.78 2559.78 1289.71 2567.84L1284.81 2574.24C1282.68 2577.01 1280.29 2580.05 1277.78 2582.91C1274.1 2578.4 1268.78 2575.47 1262.59 2576.2C1249.44 2577.76 1239.1 2577.38 1226.2 2574.35C1216.22 2572 1206.31 2569.26 1196.37 2566.71C1176.85 2561.71 1157.15 2557.16 1137.83 2551.42L1134.51 2550.41C1120.11 2545.98 1105.7 2540.42 1093.72 2531.09C1079.8 2520.24 1075.51 2504.59 1065.2 2491.06C1043.18 2462.17 995.591 2462.78 963.369 2454.86C935.986 2448.14 909.635 2437.53 890.685 2417.58L889.579 2416.39C890.419 2412.83 889.057 2408.81 885.763 2406.97L885.045 2406.57C883.761 2405.84 882.378 2405.55 881.021 2405.57C879.262 2402.98 877.565 2400.3 876.023 2397.45C874.755 2395.1 871.584 2396.83 871.999 2399.15C872.247 2400.54 872.591 2401.89 872.917 2403.24C854.561 2398.5 834.401 2399.41 815.764 2399.42L791.578 2399.34C787.392 2399.28 781.154 2399.07 780.599 2398.82L780.03 2398.57C778.522 2397.91 780.663 2399 779.61 2397.59C778.449 2396.04 777.311 2394.48 776.189 2392.9C772.18 2387.26 768.388 2381.46 764.671 2375.61C805.173 2385.97 847.129 2392.41 888.485 2397.79C932.852 2403.56 977.804 2407.57 1022.57 2407.61C1034.91 2407.62 1034.8 2388.91 1022.57 2388.45C975.169 2386.63 928.016 2384.11 880.935 2378.01C856.587 2374.85 832.342 2370.89 808.232 2366.26C798.924 2364.47 789.638 2362.58 780.375 2360.57L773.432 2359.05C769.077 2358.09 756.769 2356.69 750.766 2352.65C749.586 2350.61 748.407 2348.58 747.237 2346.55C747.812 2339.41 765.893 2340.36 770.131 2340.35C782.149 2340.33 794.17 2340.43 806.191 2340.46C830.231 2340.53 854.267 2340.32 878.309 2340.13C926.341 2339.73 974.555 2338.05 1022.55 2340.11C1034.2 2340.61 1040.32 2321.85 1028.8 2316.91C977.969 2295.12 921.539 2290.38 867.259 2283.68C838.715 2280.16 810.156 2276.09 782.251 2268.97L775.352 2267.2C757.823 2262.69 738.465 2257.19 723.704 2246.44C745.891 2237.42 773.468 2238.46 796.466 2237.18L798.226 2237.08C830.429 2235.09 862.689 2234.07 894.952 2234.03C960.966 2233.94 1027 2236.28 1092.94 2239.43C1094.6 2239.5 1094.94 2236.88 1093.33 2236.53C1025.55 2221.68 956.673 2214.53 887.313 2213.43C855.011 2212.91 822.694 2213.37 790.419 2214.8L778.577 2215.35C751.059 2216.55 720.524 2216.87 697.502 2233.55C693.991 2236.09 692.141 2239.34 691.851 2242.78C660.974 2180.97 632.456 2117.88 603.824 2055.2C581.564 2006.47 560.135 1957.32 537.064 1908.97L529.595 1893.33C519.594 1872.45 509.348 1851.58 497.971 1831.46C540.514 1825.75 583.295 1821.78 626.101 1818.75C665.107 1815.98 792.375 1809.85 811.153 1813.51ZM829.991 2483.34C825.14 2480.63 817.707 2482.84 816.511 2488.85C815.621 2493.32 814.103 2498.29 814.103 2502.86C814.103 2508.34 816.055 2514.3 817.096 2519.66C819.489 2532 822.436 2542.02 828.681 2553C832.588 2559.88 840.478 2564.55 848.406 2564.36C854.686 2564.22 860.25 2562.52 864.559 2557.65C869.721 2551.8 873.265 2543.2 870.434 2535.33C863.016 2514.7 849.382 2494.15 829.991 2483.34ZM1859.05 2462.76C1847.69 2442.8 1820.78 2424.95 1797.3 2426.72C1762.04 2429.37 1754.84 2477.05 1788.98 2488.42C1809.39 2495.22 1837.46 2488.24 1855.31 2477.05C1860.13 2474.04 1861.89 2467.77 1859.05 2462.76ZM2221.45 2394.55C2224.03 2390.79 2219.76 2386.49 2215.92 2387.33C2207.4 2389.21 2198.21 2390.03 2189.87 2392.58C2181.32 2395.19 2173.05 2399.52 2164.58 2402.5C2146.85 2408.74 2127.9 2411.87 2110.74 2419.4C2103.87 2422.42 2098.48 2432.39 2099.11 2439.75L2099.27 2441.47C2099.65 2445.12 2100.28 2448.31 2102.32 2451.64C2107.78 2460.6 2118.6 2465.23 2128.82 2462.47C2147.77 2457.36 2166.28 2444.23 2182.44 2433.32L2185.43 2431.33C2192.49 2426.65 2200.08 2421.77 2205.77 2415.76C2211.7 2409.49 2216.58 2401.66 2221.45 2394.55ZM1570.04 2321.93C1572.22 2314.04 1562.44 2308.83 1556.75 2314.16C1545.36 2324.81 1533.46 2334.69 1522.31 2345.61L1521.56 2346.35C1513.58 2354.41 1501.96 2369.93 1512.35 2380.36C1525.65 2393.72 1544.18 2373.9 1551.32 2363.56C1560.37 2350.46 1565.8 2337.26 1570.04 2321.93ZM698.856 2256.71C715.744 2274.67 741.764 2282.93 764.674 2289.77C791.837 2297.88 819.825 2302.72 847.842 2306.71C874.914 2310.55 901.777 2313.99 928.418 2318.41C908.265 2318.66 888.114 2318.81 868.008 2319.17C844.82 2319.6 821.644 2320.1 798.463 2320.77C781.58 2321.27 761.772 2318.94 745.729 2325.24C742.837 2326.37 740.136 2327.95 737.777 2329.86C724.289 2305.78 711.362 2281.36 698.856 2256.71ZM1740.55 2088.74C1722.93 2083.12 1706.35 2075.66 1687.66 2077.6C1682.7 2078.11 1679.14 2082.96 1681.85 2087.76C1690.71 2103.41 1705.11 2112.24 1719.28 2122.71L1720.53 2123.64C1736.05 2135.22 1752.71 2145.78 1769.58 2155.29C1798.63 2171.66 1824.66 2124.81 1795.33 2111.06C1777.67 2102.79 1759.13 2094.67 1740.55 2088.74ZM1423.2 2048.07C1396.23 2049.85 1369.28 2051.06 1342.28 2052.16C1311 2053.43 1321.51 2101.75 1347.64 2091.97C1373.45 2082.31 1399.27 2072.77 1425.31 2063.75C1433.24 2061.01 1432.6 2047.93 1423.7 2048.05L1423.2 2048.07ZM2114.88 1962.09C2107.89 1961.6 2100.84 1963.13 2093.84 1963.81L2086.39 1964.54C2071.04 1966.07 2056.64 1967.96 2042 1974.24C2014.98 1985.81 2029.49 2029.42 2056.61 2028.42C2076.66 2027.68 2093.8 2019.04 2110.73 2008.98C2125.53 2000.18 2134.6 1989.17 2144.59 1975.36C2147.9 1970.78 2143.29 1965.65 2138.78 1965.19C2130.84 1964.38 2122.82 1962.65 2114.88 1962.09ZM760.579 1873.03C765.05 1901.04 776.147 1927.29 792.868 1950.15C801.272 1961.64 816.025 1962.07 824.353 1950.15C836.135 1933.29 828.87 1913.97 819.995 1897.77L817.369 1893.03C813.395 1885.91 807.291 1875.54 800.317 1868.38L800.199 1867.64C796.462 1838.31 755.973 1844.17 760.579 1873.03ZM1851.32 1693.25C1844.6 1687.17 1832.22 1689 1830.04 1698.9C1826.99 1712.75 1825.13 1728.37 1827.13 1742.44C1828.21 1750.06 1828.62 1758.62 1831.6 1765.73C1834.81 1773.37 1840.99 1779.24 1846.8 1784.99C1858.42 1796.45 1882.9 1792.66 1886.01 1774.59L1886.41 1772.38C1887.97 1763.83 1889.97 1754.69 1887.66 1746.21C1885.91 1739.82 1882 1733.3 1878.77 1727.37L1878.08 1726.1C1871.61 1713.99 1861.51 1702.46 1851.32 1693.25ZM906.322 1722.74L903.89 1722.76C885.124 1723.14 850.818 1727.72 850.635 1751.01C850.591 1756.5 854.639 1762.18 860.065 1763.45C871.282 1766.06 878.532 1759.4 886.526 1752.68C893.064 1747.18 900.684 1742.79 908.6 1739.63C917.15 1736.21 916.591 1722.72 906.322 1722.74Z" fill="black"/>
<path fill-rule="evenodd" clip-rule="evenodd" d="M1274.24 519.605C921.915 530.823 900.664 699.136 900.664 981.404C900.664 1263.67 1083.44 1441.54 1150.73 1472.6C1218.03 1503.66 1395.24 1637.06 1555.16 1575.59C1715.08 1514.11 1668.77 1254.38 1668.77 1142.78C1668.77 1031.18 1626.56 508.386 1274.24 519.605Z" fill="#D08B5B"/>
<path fill-rule="evenodd" clip-rule="evenodd" d="M1614.78 967.56C1541.93 668.804 1408.94 523.043 1215.82 530.276C926.128 541.126 929.182 838.087 947.356 811.011C959.23 793.321 1042.36 731.523 1196.75 625.618L1206.3 619.079L1614.78 967.56Z" fill="#2D1702"/>
<path fill-rule="evenodd" clip-rule="evenodd" d="M1131.31 1379.89C1196.01 1416.22 1270.09 1417.63 1339.69 1394.77C1381.43 1381.1 1419.7 1359.95 1455.51 1334.67C1486.67 1312.66 1514.48 1288.24 1542.03 1262.32C1564.71 1212.01 1584.91 1161.79 1594.37 1107.06C1602.85 1057.92 1603.97 1006.9 1594.14 957.864C1521.43 897.712 1449.17 837.065 1377 776.232C1340.25 745.248 1303.41 714.432 1266.12 684.107C1247.18 668.709 1228.43 653.077 1209.56 637.609C1206.45 635.067 1203.36 632.524 1200.24 629.981C1161.29 658.657 1119.53 683.238 1080.86 712.382C1060.62 727.661 1040.93 743.929 1022.18 761.043C1012.35 770.015 1002.75 779.267 993.384 788.755C984.819 797.421 976.556 809.849 964.405 813.124C962.743 813.569 961.177 813.663 959.702 813.451C943.457 956.498 931.917 1110.96 1001.51 1240.87C1031.87 1297.54 1074.92 1348.21 1131.31 1379.89ZM1552.21 1432.47C1561.12 1424.26 1547.84 1410.97 1538.97 1419.15C1483.25 1470.49 1410.39 1497.7 1336.81 1510.29C1324.93 1512.33 1330 1530.48 1341.79 1528.46C1418.61 1515.3 1494.13 1485.98 1552.21 1432.47ZM1619.08 1511.24C1629.72 1505.5 1620.25 1489.24 1609.63 1494.97C1566.21 1518.39 1518.59 1530.56 1470.29 1538.77C1458.41 1540.79 1463.48 1558.94 1475.27 1556.94C1525.21 1548.44 1574.22 1535.43 1619.08 1511.24ZM1442.38 717.775C1406.36 685.26 1367.64 654.322 1326.74 628.216C1285.36 601.8 1240.16 586.003 1191.3 585.626C1194.72 588.381 1197.98 591.442 1201.28 594.288C1210.5 602.224 1219.7 610.205 1228.9 618.163C1247.3 634.101 1265.74 650.014 1283.91 666.214C1319.67 698.138 1355.56 729.898 1391.26 761.892C1459.87 823.387 1527 886.22 1592.69 950.872C1592.33 949.294 1591.96 947.717 1591.59 946.142C1569.84 854.793 1510.69 779.432 1442.38 717.775ZM1159.98 589.605C1159.75 588.899 1159.58 588.214 1159.49 587.557C1065.74 599.846 987.439 669.225 961.551 760.574C963.799 763.729 965.039 767.472 964.571 771.449C964.337 773.452 964.103 775.477 963.869 777.478C967.076 774.278 970.376 771.286 973.183 768.437C982.525 758.926 992.097 749.671 1001.93 740.654C1022.04 722.223 1042.92 704.989 1064.92 688.909C1103.19 660.94 1144.63 635.231 1190.25 621.812C1187.25 619.34 1184.26 616.868 1181.24 614.419C1172.23 607.048 1163.87 600.976 1159.98 589.605ZM991.91 491.925C1049.47 428.666 1129.18 382.333 1213.12 366.23C1293.27 350.833 1376.25 360.98 1451.98 390.903C1610.43 453.527 1735.45 591.232 1794 750.804C1828.13 843.775 1839.32 945.692 1829.06 1044.1C1818.86 1142.06 1789.53 1243.23 1736.16 1326.57C1731.26 1334.2 1725.9 1341.52 1720.28 1348.61C1722.79 1377.38 1732.34 1405.58 1747.37 1430.11C1748.18 1431.43 1749.03 1432.72 1749.87 1434.01C1765.26 1445.6 1781.22 1456.48 1796.8 1467.7C1810.31 1477.43 1823.67 1487.41 1836.37 1498.19C1848.36 1508.36 1862.28 1519.69 1870.4 1533.42C1877.05 1544.66 1879.76 1559.96 1870.69 1570.68C1859.75 1583.6 1841.21 1579.05 1826.39 1579.05C1825.13 1579.05 1823.86 1579.07 1822.59 1579.09C1818.14 1581.9 1813.56 1584.45 1809.12 1586.81C1764.25 1610.73 1719.21 1634.39 1674.12 1657.94C1584.33 1704.86 1494.91 1753.66 1403.27 1796.86C1360.8 1816.9 1315.34 1834.41 1267.78 1834.34C1223.16 1834.27 1182.83 1816.45 1148 1789.35C1108.3 1758.49 1075.1 1719.29 1042.9 1680.87C1030.02 1665.49 1017.4 1649.93 1005.02 1634.16C981.238 1626.18 957.642 1623.85 936.434 1639.24C919.417 1651.6 896.991 1634.79 896.593 1616.24C896.453 1609.65 896.732 1603.15 897.436 1596.75C901.694 1557.19 920.938 1521.41 942.614 1488.22C954.456 1470.06 966.933 1452.24 979.482 1434.58C982.432 1430.42 985.334 1426.25 988.143 1422.01C937.745 1347.38 897.764 1264.63 873.185 1178.15C847.363 1087.16 838.585 992.802 844.344 898.512C853.194 754.006 892.612 601.071 991.91 491.925Z" fill="black"/>
<path fill-rule="evenodd" clip-rule="evenodd" d="M1166.24 1276.04C1182.04 1269.59 1196.13 1258.83 1206.44 1245.08C1210.02 1240.3 1210.95 1235.25 1210.19 1230.64C1209.35 1225.45 1206.28 1220.74 1202.1 1217.59C1197.91 1214.42 1192.66 1212.86 1187.58 1213.66C1183.18 1214.35 1178.79 1216.77 1175.31 1221.78L1174.59 1222.78C1168.46 1231.08 1160.48 1237.89 1151.38 1242.27C1142.62 1246.5 1132.81 1248.48 1122.67 1247.33C1103.34 1245.14 1090.03 1234.68 1075.87 1220.47C1074.11 1218.68 1072.36 1216.83 1070.59 1214.95C1069.48 1213.24 1067.93 1212.15 1066.22 1211.57C1064.31 1210.94 1062.16 1210.97 1060.18 1211.66C1058.28 1212.33 1056.57 1213.59 1055.43 1215.27C1054.35 1216.86 1053.73 1218.83 1053.93 1221.1C1055.23 1235.83 1062.91 1248.97 1073.84 1259.29C1085.97 1270.75 1102.05 1278.68 1117.18 1281.46C1133.86 1284.52 1150.86 1282.32 1166.24 1276.04V1276.04ZM1109.32 1048.88C1091.57 1059.67 1064.54 1084.85 1083.63 1111.63C1106.09 1135.23 1138.44 1108.17 1154.38 1095.93C1169.16 1086.44 1185.77 1110.84 1172.06 1121.91C1056.87 1207.3 1010.12 1051.7 1100.34 1036.18C1110.28 1034.47 1113.96 1045.54 1109.32 1048.88ZM1315.74 949.549C1313.78 925.185 1276.72 919.652 1273.03 943.761C1269.73 965.358 1273.61 985.197 1283.33 1004.64C1292.61 1023.22 1315.95 1014.55 1317.71 997.636C1320.08 974.962 1316.96 964.704 1315.74 949.549ZM1033.63 938.762C1028.46 931.987 1021 927.362 1012.06 929.976C984.135 938.146 992.366 977.841 1002.17 997.163C1007.5 1007.66 1024.73 1010.32 1032.51 1001.08C1045.2 986.012 1051.28 955.924 1035.15 941.084C1034.71 940.317 1034.22 939.543 1033.63 938.762ZM1283.72 842.94L1279.31 842.167C1265.67 839.804 1248.7 837.533 1239.05 848.518C1233.93 854.343 1232.16 865.169 1239.05 870.745C1251.15 880.555 1264.53 876.753 1279.04 877.584C1291 878.271 1302.49 880.252 1314 883.547C1339.27 890.777 1359.85 903.975 1381.43 918.467C1384.26 920.368 1387.15 916.742 1385.8 914.091C1373.34 889.664 1349.21 869.599 1325.03 857.368C1312.12 850.84 1298 845.424 1283.72 842.94ZM1059.08 831.998L1055.71 832.689C1018.96 840.379 971.227 855.74 953.828 891.874C953.165 896.984 953.866 898.079 954.435 898.794L954.625 899.032C955.094 899.643 955.469 900.485 957.681 901.181C958.295 901.034 958.915 900.879 959.541 900.715C967.517 898.622 973.827 895.739 979.936 892.748L986.559 889.481C994.244 885.708 1002 882.073 1010.21 879.389C1027.75 873.663 1045.78 869.629 1064.1 867.475C1068.06 867.009 1071.89 865.668 1074.9 863.369C1077.77 861.187 1079.95 858.165 1080.95 854.15C1082.24 848.953 1081.87 845.018 1079.08 840.33C1076.99 836.809 1073.99 834.368 1070.55 832.967C1067.05 831.538 1063.05 831.201 1059.08 831.998Z" fill="black"/>
<path fill-rule="evenodd" clip-rule="evenodd" d="M899.54 1062.9C927.992 1092.48 975.49 1100.97 1013.34 1085.11C1110.54 1044.25 1062.97 916.816 988.006 882.594C978.642 880.245 966.135 874.674 954.729 873.411C953.698 872.901 951.453 874.375 948.732 872.981C866.075 882.266 847.252 1011.35 899.54 1062.9M1213.05 1070.47C1244.96 1113.06 1304.29 1126.19 1352.76 1106.4C1448.52 1068.46 1414.55 955.456 1349.04 911.155C1210.64 858.835 1153.49 991.96 1213.05 1070.47M1420.63 976.124C1420.72 976.081 1420.81 976.06 1420.9 976.017C1420.4 975.793 1419.89 975.57 1419.39 975.341C1419.55 975.772 1419.73 976.199 1419.89 976.63C1420.14 976.458 1420.35 976.258 1420.63 976.124M833.659 930.094C841.473 930.111 852.759 931.403 859.227 936.856C875.177 882.74 934.05 832.655 985.251 869.176C1025.57 882.221 1055.49 911.153 1072.49 949.616C1103.15 931.268 1151.36 939.103 1177.95 963.366C1195.36 905.482 1238.22 885.213 1289.22 882.221C1344.89 873.047 1400.38 927.442 1417.7 971.078C1432.09 969.43 1453.6 964.821 1467.15 973.759C1555.04 950.569 1708.72 937.783 1726.59 950.668C1739.32 955.583 1746.31 985.823 1728.52 987.455C1713.02 985.241 1730.33 965.297 1714.71 963.121C1631.46 957.929 1550.65 974.796 1468.28 981.874C1460.93 991.826 1437.16 995.155 1424.49 991.156C1444.45 1065.18 1401.36 1115.54 1336.78 1130.62C1236.79 1153.73 1149.8 1063.74 1175.95 970.142C1145.66 954.982 1110.81 955.633 1077.82 963.618C1132.96 1167.77 806.14 1158.61 857.183 943.851C823.215 960.85 815.837 933.525 833.659 930.094" fill="black"/>
</g>
<defs>
<clipPath id="clip0_5_19362">
<rect width="2453" height="3557" fill="white"/>
</clipPath>
</defs>
</svg>
