<svg width="988" height="658" viewBox="0 0 988 658" fill="none" xmlns="http://www.w3.org/2000/svg">
<g clip-path="url(#clip0_1_2)">
<path d="M103.926 571.495C103.926 571.495 69.1381 525.501 85.7435 470.382C102.349 415.264 145.045 373.13 131.266 309.348C114.923 233.59 153.195 169.72 220.997 177.967C334.584 191.763 416.253 105.806 457.81 97.2085C580.948 71.7439 603.425 164.873 669.89 173.953C813.336 193.54 857.676 256.203 852.55 376.398C850.863 415.944 960.704 495.145 897.634 571.495H103.926Z" fill="#EDE3DD"/>
<path d="M175.408 170.137V157.986H479.103V170.137H175.408Z" fill="#DBCAC2"/>
<path d="M175.408 262.52V250.369H479.103V262.52H175.408Z" fill="#DBCAC2"/>
<path d="M175.408 354.925V342.752H479.103V354.925H175.408Z" fill="#DBCAC2"/>
<path d="M185.135 354.925H172.977V84.2021H185.135V354.925Z" fill="#DBCAC2"/>
<path d="M285.162 354.925H273.003V84.2021H285.162V354.925Z" fill="#DBCAC2"/>
<path d="M385.167 354.925H373.03V84.2021H385.167V354.925Z" fill="#DBCAC2"/>
<path d="M485.193 354.925H473.035V84.2021H485.193V354.925Z" fill="#DBCAC2"/>
<path d="M271.032 306.255C267.987 305.422 264.766 304.171 261.612 303.711C256.639 302.987 254.886 306.496 253.068 310.313C251.688 313.23 250.637 316.235 249.41 319.174H253.068L248.84 344.967H234.053L229.803 319.174H235.324C231.862 316.476 228.226 314.239 223.603 314.239C219.047 314.239 213.001 315.336 210.591 319.656C210.24 320.314 209.101 319.876 209.364 319.152C211.839 312.418 215.257 307.922 222.99 308.843C227.941 309.435 231.402 311.629 234.316 314.787C232.081 308.427 229.869 302.022 227.087 295.946C223.647 288.467 218.127 282.282 214.863 274.671C214.622 274.123 215.169 273.289 215.783 273.75C222.421 278.685 228.642 284.607 231.884 292.393C235.411 300.838 234.929 310.225 237.536 318.933C237.595 319.006 237.653 319.086 237.712 319.174H239.552C233.199 283.335 258.567 259.691 258.194 260.502C254.185 268.947 250.461 277.347 247.57 285.813C249.914 284.87 252.542 284.322 254.624 283.752C260.582 282.107 273.683 281.624 272.982 281.799C268.403 283.028 263.781 284.146 259.246 285.484C253.835 287.085 250.286 289.827 248.709 295.42C246.518 303.119 245.291 311.212 243.933 319.174H245.861C246.452 316.257 247.088 313.362 247.876 310.488C248.862 306.913 249.629 301.759 252.104 298.842C256.508 293.687 271.864 306.496 271.032 306.255V306.255Z" fill="#DBCAC2"/>
<path d="M569.25 186.104C569.25 192.29 564.255 197.29 558.078 197.29C551.922 197.29 546.905 192.29 546.905 186.104H513.848C536.543 168.996 550.016 153.402 555.471 146.449V92.8219H561.188V146.449C566.665 153.402 580.116 168.996 602.811 186.104H569.25Z" fill="#DBCAC2"/>
<path d="M709.323 245.259C709.323 251.444 704.306 256.445 698.15 256.445C691.972 256.445 686.978 251.444 686.978 245.259H653.92C676.616 228.151 690.067 212.534 695.543 205.603V115.304H701.261V205.603C706.738 212.534 720.188 228.151 742.884 245.259H709.323Z" fill="#DBCAC2"/>
<path fill-rule="evenodd" clip-rule="evenodd" d="M932.663 183.757V354.925H761.702V183.757H932.663ZM907.098 209.354H787.289V329.307H907.098V209.354Z" fill="#DBCAC2"/>
<path fill-rule="evenodd" clip-rule="evenodd" d="M747.66 274.978V335.383H687.306V274.978H747.66ZM738.656 284.015H696.354V326.346H738.656V284.015Z" fill="#DBCAC2"/>
<path fill-rule="evenodd" clip-rule="evenodd" d="M673.68 274.978V335.383H613.349V274.978H673.68ZM664.655 284.015H622.374V326.346H664.655V284.015Z" fill="#DBCAC2"/>
<path fill-rule="evenodd" clip-rule="evenodd" d="M826.787 326.171C823.567 331.873 819.405 336.874 814.541 341.019L819.996 353.829L800.63 364.137L793.073 352.447C786.917 354.158 780.476 354.837 773.926 354.311L768.734 367.208L747.747 360.781L750.639 347.183C744.943 343.959 739.948 339.791 735.786 334.922L723.014 340.361L712.718 320.994L724.373 313.427C722.664 307.264 722.007 300.794 722.511 294.258L709.651 289.037L716.048 268.025L729.63 270.942C732.873 265.218 737.035 260.217 741.876 256.072L736.443 243.285L755.809 232.976L763.345 244.644C769.501 242.934 775.985 242.276 782.514 242.78L787.705 229.883L808.692 236.31L805.801 249.908C811.518 253.155 816.491 257.322 820.631 262.169L833.425 256.73L843.721 276.119L832.045 283.664C833.754 289.827 834.433 296.297 833.907 302.855L846.788 308.054L840.37 329.066L826.787 326.171ZM816.097 310.137C822.494 289.213 810.708 267.038 789.787 260.634C768.887 254.229 746.74 266.029 740.343 286.954C733.968 307.9 745.732 330.075 766.653 336.479C787.552 342.884 809.7 331.084 816.097 310.137Z" fill="#474747"/>
<path d="M718.217 293.029L709.038 289.323L713.879 273.487L714.821 273.772L710.243 288.752L718.589 292.13L718.217 293.029Z" fill="#312113"/>
<path d="M748.207 360.891L747.265 360.694L750.091 347.446C743.541 344.134 738.525 338.585 738.481 338.541L739.204 337.883C739.247 337.949 744.33 343.52 750.858 346.744L751.187 346.92L748.207 360.891Z" fill="#312113"/>
<path d="M800.521 331.895L799.973 331.106C825.451 313.186 815.242 285.879 815.133 285.594L816.031 285.243C816.141 285.528 826.634 313.537 800.521 331.895V331.895Z" fill="#312113"/>
<path d="M833.557 294.301C832.856 288.577 831.607 283.839 831.585 283.795L831.497 283.444L835.769 280.681L836.295 281.492L832.615 283.883C832.921 285.089 833.907 289.279 834.52 294.17L833.557 294.301Z" fill="#312113"/>
<path fill-rule="evenodd" clip-rule="evenodd" d="M774.737 366.243L752.895 359.553L755.809 345.867C754.166 344.946 746.542 340.471 741.329 333.935L728.491 339.418L717.779 319.24L729.499 311.629C729.017 309.918 726.98 302.154 727.703 292.964L714.734 287.743L721.415 265.876L735.085 268.793C736.115 267.016 741.219 258.462 747.002 254.295L741.526 241.442L761.68 230.717L769.26 242.429C770.925 241.859 777.891 239.709 787.925 240.653L793.16 227.668L815.001 234.358L812.066 248.044C813.753 248.987 821.53 253.505 826.546 259.976L839.384 254.492L850.096 274.671L838.376 282.282C838.924 283.993 841.114 291.582 840.172 300.947L853.141 306.189L846.46 328.057L832.79 325.14C831.957 326.741 827.992 333.781 820.872 339.594L826.349 352.469L806.195 363.194L798.615 351.482C796.906 352.096 789.502 354.421 779.95 353.28L774.737 366.243ZM754.013 358.895L774.167 365.058L779.337 352.205L779.709 352.271C790.531 353.675 798.549 350.473 798.637 350.451L799.009 350.297L806.545 361.922L825.122 352.03L819.711 339.309L819.996 339.067C828.08 332.597 832.067 324.438 832.111 324.372L832.286 324.021L845.802 326.916L851.958 306.738L839.143 301.561L839.187 301.21C840.326 290.617 837.39 282.304 837.368 282.216L837.237 281.865L848.848 274.342L838.968 255.721L826.24 261.16L826.021 260.853C820.566 253.615 811.409 248.768 811.321 248.724L810.992 248.549L813.884 235.016L793.73 228.852L788.56 241.683L788.187 241.64C776.927 240.499 769.326 243.438 769.26 243.46L768.887 243.614L761.351 231.967L742.774 241.859L748.185 254.624L747.879 254.843C741.591 259.186 735.83 269.451 735.764 269.561L735.589 269.868L722.073 266.994L715.917 287.173L728.732 292.327L728.71 292.7C727.812 303.031 730.507 311.607 730.529 311.695L730.638 312.046L719.049 319.569L728.929 338.19L741.657 332.751L741.876 333.058C747.572 340.383 756.488 345.143 756.576 345.187L756.904 345.362L754.013 358.895Z" fill="#312113"/>
<path fill-rule="evenodd" clip-rule="evenodd" d="M783.937 337.115C761.812 337.115 743.826 319.108 743.826 296.955C743.826 274.803 761.812 256.795 783.937 256.795C806.063 256.795 824.049 274.803 824.049 296.955C824.049 319.108 806.063 337.115 783.937 337.115ZM783.937 257.761C762.359 257.761 744.79 275.351 744.79 296.955C744.79 318.582 762.359 336.15 783.937 336.15C805.538 336.15 823.085 318.582 823.085 296.955C823.085 275.351 805.538 257.761 783.937 257.761Z" fill="#312113"/>
<path fill-rule="evenodd" clip-rule="evenodd" d="M403.327 468.628C400.173 474.199 396.098 479.09 391.366 483.147L396.668 495.649L377.762 505.717L370.401 494.312C364.377 495.978 358.09 496.636 351.693 496.132L346.611 508.722L326.128 502.449L328.954 489.179C323.389 486.021 318.504 481.941 314.451 477.204L301.964 482.511L291.909 463.583L303.301 456.213C301.636 450.182 301 443.843 301.482 437.482L288.908 432.394L295.173 411.864L308.449 414.715C311.603 409.122 315.656 404.253 320.41 400.196L315.087 387.694L333.992 377.626L341.375 389.032C347.377 387.365 353.708 386.729 360.083 387.211L365.144 374.621L385.649 380.894L382.823 394.186C388.409 397.344 393.25 401.402 397.303 406.14L409.79 400.832L419.845 419.76L408.454 427.13C410.119 433.161 410.776 439.478 410.272 445.883L422.846 450.949L416.581 471.479L403.327 468.628ZM392.878 452.967C399.121 432.525 387.62 410.877 367.203 404.626C346.786 398.375 325.164 409.89 318.92 430.332C312.677 450.774 324.156 472.444 344.595 478.673C365.012 484.946 386.634 473.431 392.878 452.967Z" fill="#474747"/>
<path d="M297.276 436.276L288.338 432.679L293.048 417.194L293.968 417.479L289.499 432.109L297.649 435.399L297.276 436.276Z" fill="#312113"/>
<path d="M326.588 502.558L325.646 502.361L328.406 489.42C322.031 486.174 317.124 480.779 317.08 480.713L317.781 480.077C317.825 480.143 322.776 485.604 329.151 488.74L329.479 488.916L326.588 502.558Z" fill="#312113"/>
<path d="M377.675 474.243L377.127 473.453C402.013 455.95 392.045 429.301 391.936 429.016L392.812 428.687C392.922 428.95 403.174 456.301 377.675 474.243Z" fill="#312113"/>
<path d="M409.943 437.526C409.242 431.933 408.016 427.305 407.994 427.261L407.906 426.932L412.09 424.213L412.616 425.024L409.001 427.349C409.286 428.512 410.272 432.613 410.885 437.395L409.943 437.526Z" fill="#312113"/>
<path fill-rule="evenodd" clip-rule="evenodd" d="M352.482 507.779L331.144 501.264L333.992 487.885C332.393 486.986 324.945 482.621 319.862 476.238L307.31 481.59L296.86 461.894L308.317 454.459C307.835 452.77 305.842 445.203 306.565 436.232L293.903 431.1L300.409 409.759L313.772 412.61C314.758 410.877 319.753 402.521 325.383 398.441L320.059 385.895L339.732 375.433L347.136 386.882C348.757 386.312 355.57 384.206 365.363 385.127L370.467 372.45L391.804 378.986L388.957 392.343C390.578 393.265 398.179 397.695 403.065 404.012L415.617 398.66L426.089 418.356L414.631 425.77C415.179 427.459 417.304 434.872 416.384 444.018L429.046 449.129L422.54 470.47L409.177 467.641C408.366 469.198 404.489 476.085 397.544 481.766L402.889 494.333L383.217 504.818L375.791 493.368C374.126 493.961 366.896 496.242 357.564 495.123L352.482 507.779ZM332.262 500.606L351.934 506.616L356.994 494.07L357.345 494.114C367.904 495.496 375.747 492.381 375.834 492.338L376.185 492.206L383.546 503.567L401.706 493.895L396.405 481.459L396.69 481.239C404.576 474.922 408.497 466.961 408.519 466.873L408.695 466.544L421.904 469.373L427.907 449.677L415.398 444.611L415.442 444.26C416.559 433.929 413.689 425.814 413.646 425.726L413.514 425.375L424.862 418.027L415.223 399.845L402.78 405.153L402.561 404.845C397.237 397.783 388.299 393.045 388.212 393.001L387.905 392.848L390.709 379.622L371.037 373.59L365.998 386.136L365.648 386.092C354.65 384.974 347.202 387.847 347.136 387.869L346.786 388.023L339.425 376.661L321.264 386.312L326.566 398.77L326.259 398.989C320.125 403.222 314.495 413.268 314.429 413.356L314.254 413.663L301.066 410.855L295.064 430.551L307.573 435.596L307.529 435.947C306.652 446.058 309.303 454.415 309.325 454.503L309.435 454.853L298.109 462.201L307.77 480.362L320.191 475.076L320.41 475.361C325.952 482.511 334.671 487.161 334.759 487.205L335.066 487.381L332.262 500.606Z" fill="#312113"/>
<path fill-rule="evenodd" clip-rule="evenodd" d="M361.463 479.331C339.863 479.331 322.294 461.741 322.294 440.114C322.294 418.488 339.863 400.897 361.463 400.897C383.064 400.897 400.655 418.488 400.655 440.114C400.655 461.741 383.064 479.331 361.463 479.331ZM361.463 401.841C340.389 401.841 323.236 419.014 323.236 440.114C323.236 461.236 340.389 478.41 361.463 478.41C382.56 478.41 399.713 461.236 399.713 440.114C399.713 419.014 382.56 401.841 361.463 401.841V401.841Z" fill="#312113"/>
<path d="M676.09 556.602V466.785H684.677V556.602C684.677 558.291 683.319 559.673 681.61 559.673H679.157C677.47 559.673 676.09 558.291 676.09 556.602Z" fill="white"/>
<path d="M668.554 461.543H692.213C693.396 461.543 694.47 462.223 694.974 463.298L695.083 463.539C696.003 465.557 694.536 467.838 692.323 467.838H668.444C666.232 467.838 664.764 465.557 665.706 463.539L665.816 463.298C666.298 462.223 667.371 461.543 668.554 461.543Z" fill="white"/>
<path fill-rule="evenodd" clip-rule="evenodd" d="M665.443 466.741C664.786 465.71 664.698 464.416 665.202 463.32L665.312 463.078C665.903 461.806 667.174 460.995 668.554 460.995H692.213C693.615 460.995 694.886 461.806 695.456 463.078L695.565 463.32C696.091 464.416 696.003 465.71 695.324 466.741C694.667 467.772 693.55 468.386 692.323 468.386H668.444C667.218 468.386 666.1 467.772 665.443 466.741V466.741ZM668.554 462.091C667.59 462.091 666.714 462.662 666.298 463.539L666.188 463.758C665.838 464.548 665.903 465.425 666.363 466.149C666.823 466.873 667.59 467.29 668.444 467.29H692.323C693.177 467.29 693.966 466.873 694.426 466.149C694.864 465.425 694.93 464.548 694.579 463.758L694.47 463.539C694.075 462.662 693.177 462.091 692.213 462.091H668.554Z" fill="#312113"/>
<path d="M756.444 408.245C752.085 433.732 738.13 463.386 679.748 463.386C621.345 463.386 599.679 440.487 599.679 434.455C599.679 428.424 622.9 437.131 635.65 421.69C648.4 406.249 627.632 350.385 627.632 325.666C627.632 300.969 695.653 302.176 715.5 302.176C725.709 302.176 743.935 300.662 755.831 320.249C767.069 338.738 761.264 380.105 756.444 408.245Z" fill="#904823"/>
<path d="M679.748 463.386C621.345 463.386 599.679 440.487 599.679 434.455C599.679 428.424 622.9 437.131 635.65 421.69C648.4 406.249 627.632 350.385 627.632 325.666C627.632 308.361 661.04 303.755 687.854 302.57C716.048 302.57 723.737 335.777 725.862 342.335C728.447 350.385 719.137 355.342 719.926 363.677C720.758 372.406 725.293 372.691 726.191 381.377C727.045 389.821 719.75 398.902 722.357 407.039C724.789 414.562 735.633 415.988 736.356 423.949C737.013 431.231 683.823 463.386 679.748 463.386Z" fill="#6C3112"/>
<path d="M623.557 440.399L623.864 439.347C663.647 451.914 691.162 448.405 707.242 443.273C724.657 437.702 732.785 429.038 732.873 428.95L733.661 429.696C733.595 429.784 725.315 438.601 707.658 444.282C699.618 446.87 688.73 449.041 674.929 449.041C660.865 449.041 643.777 446.782 623.557 440.399V440.399Z" fill="#312113"/>
<path fill-rule="evenodd" clip-rule="evenodd" d="M723.869 404.955C723.869 403.135 725.337 401.665 727.155 401.665C728.951 401.665 730.419 403.135 730.419 404.955C730.419 406.754 728.951 408.223 727.155 408.223C725.337 408.223 723.869 406.754 723.869 404.955ZM724.964 404.955C724.964 406.161 725.95 407.148 727.155 407.148C728.36 407.148 729.346 406.161 729.346 404.955C729.346 403.749 728.36 402.762 727.155 402.762C725.95 402.762 724.964 403.749 724.964 404.955Z" fill="#312113"/>
<path fill-rule="evenodd" clip-rule="evenodd" d="M691.271 404.955C691.271 403.135 692.739 401.665 694.536 401.665C696.354 401.665 697.822 403.135 697.822 404.955C697.822 406.754 696.354 408.223 694.536 408.223C692.739 408.223 691.271 406.754 691.271 404.955ZM692.345 404.955C692.345 406.161 693.331 407.148 694.536 407.148C695.74 407.148 696.726 406.161 696.726 404.955C696.726 403.749 695.74 402.762 694.536 402.762C693.331 402.762 692.345 403.749 692.345 404.955Z" fill="#312113"/>
<path fill-rule="evenodd" clip-rule="evenodd" d="M658.652 404.955C658.652 403.135 660.12 401.665 661.938 401.665C663.734 401.665 665.224 403.135 665.224 404.955C665.224 406.754 663.734 408.223 661.938 408.223C660.12 408.223 658.652 406.754 658.652 404.955ZM659.747 404.955C659.747 406.161 660.733 407.148 661.938 407.148C663.143 407.148 664.129 406.161 664.129 404.955C664.129 403.749 663.143 402.762 661.938 402.762C660.733 402.762 659.747 403.749 659.747 404.955Z" fill="#312113"/>
<path fill-rule="evenodd" clip-rule="evenodd" d="M674.754 420.462C674.754 418.663 676.221 417.172 678.04 417.172C679.836 417.172 681.326 418.663 681.326 420.462C681.326 422.282 679.836 423.752 678.04 423.752C676.221 423.752 674.754 422.282 674.754 420.462ZM675.849 420.462C675.849 421.668 676.835 422.655 678.04 422.655C679.245 422.655 680.23 421.668 680.23 420.462C680.23 419.256 679.245 418.269 678.04 418.269C676.835 418.269 675.849 419.256 675.849 420.462Z" fill="#312113"/>
<path fill-rule="evenodd" clip-rule="evenodd" d="M709.717 384.886C709.717 383.066 711.185 381.596 713.003 381.596C714.799 381.596 716.289 383.066 716.289 384.886C716.289 386.685 714.799 388.176 713.003 388.176C711.185 388.176 709.717 386.685 709.717 384.886ZM710.812 384.886C710.812 386.092 711.798 387.079 713.003 387.079C714.208 387.079 715.194 386.092 715.194 384.886C715.194 383.68 714.208 382.693 713.003 382.693C711.798 382.693 710.812 383.68 710.812 384.886Z" fill="#312113"/>
<path fill-rule="evenodd" clip-rule="evenodd" d="M744.242 384.886C744.242 383.066 745.71 381.596 747.506 381.596C749.325 381.596 750.792 383.066 750.792 384.886C750.792 386.685 749.325 388.176 747.506 388.176C745.71 388.176 744.242 386.685 744.242 384.886ZM745.316 384.886C745.316 386.092 746.301 387.079 747.506 387.079C748.711 387.079 749.697 386.092 749.697 384.886C749.697 383.68 748.711 382.693 747.506 382.693C746.301 382.693 745.316 383.68 745.316 384.886Z" fill="#312113"/>
<path fill-rule="evenodd" clip-rule="evenodd" d="M677.12 384.886C677.12 383.066 678.587 381.596 680.406 381.596C682.202 381.596 683.67 383.066 683.67 384.886C683.67 386.685 682.202 388.176 680.406 388.176C678.587 388.176 677.12 386.685 677.12 384.886ZM678.215 384.886C678.215 386.092 679.179 387.079 680.406 387.079C681.61 387.079 682.574 386.092 682.574 384.886C682.574 383.68 681.61 382.693 680.406 382.693C679.179 382.693 678.215 383.68 678.215 384.886Z" fill="#312113"/>
<path fill-rule="evenodd" clip-rule="evenodd" d="M644.5 384.886C644.5 383.066 645.99 381.596 647.786 381.596C649.605 381.596 651.072 383.066 651.072 384.886C651.072 386.685 649.605 388.176 647.786 388.176C645.99 388.176 644.5 386.685 644.5 384.886ZM645.596 384.886C645.596 386.092 646.581 387.079 647.786 387.079C648.991 387.079 649.977 386.092 649.977 384.886C649.977 383.68 648.991 382.693 647.786 382.693C646.581 382.693 645.596 383.68 645.596 384.886Z" fill="#312113"/>
<path fill-rule="evenodd" clip-rule="evenodd" d="M723.869 364.817C723.869 363.019 725.337 361.527 727.155 361.527C728.951 361.527 730.419 363.019 730.419 364.817C730.419 366.638 728.951 368.107 727.155 368.107C725.337 368.107 723.869 366.638 723.869 364.817ZM724.964 364.817C724.964 366.023 725.95 367.01 727.155 367.01C728.36 367.01 729.346 366.023 729.346 364.817C729.346 363.611 728.36 362.624 727.155 362.624C725.95 362.624 724.964 363.611 724.964 364.817Z" fill="#312113"/>
<path fill-rule="evenodd" clip-rule="evenodd" d="M691.271 364.817C691.271 363.019 692.739 361.527 694.536 361.527C696.354 361.527 697.822 363.019 697.822 364.817C697.822 366.638 696.354 368.107 694.536 368.107C692.739 368.107 691.271 366.638 691.271 364.817ZM692.345 364.817C692.345 366.023 693.331 367.01 694.536 367.01C695.74 367.01 696.726 366.023 696.726 364.817C696.726 363.611 695.74 362.624 694.536 362.624C693.331 362.624 692.345 363.611 692.345 364.817Z" fill="#312113"/>
<path fill-rule="evenodd" clip-rule="evenodd" d="M658.652 364.817C658.652 363.019 660.12 361.527 661.938 361.527C663.734 361.527 665.224 363.019 665.224 364.817C665.224 366.638 663.734 368.107 661.938 368.107C660.12 368.107 658.652 366.638 658.652 364.817ZM659.747 364.817C659.747 366.023 660.733 367.01 661.938 367.01C663.143 367.01 664.129 366.023 664.129 364.817C664.129 363.611 663.143 362.624 661.938 362.624C660.733 362.624 659.747 363.611 659.747 364.817Z" fill="#312113"/>
<path fill-rule="evenodd" clip-rule="evenodd" d="M709.717 344.748C709.717 342.95 711.185 341.48 713.003 341.48C714.799 341.48 716.289 342.95 716.289 344.748C716.289 346.569 714.799 348.038 713.003 348.038C711.185 348.038 709.717 346.569 709.717 344.748ZM710.812 344.748C710.812 345.954 711.798 346.941 713.003 346.941C714.208 346.941 715.194 345.954 715.194 344.748C715.194 343.542 714.208 342.555 713.003 342.555C711.798 342.555 710.812 343.542 710.812 344.748Z" fill="#312113"/>
<path fill-rule="evenodd" clip-rule="evenodd" d="M744.242 344.748C744.242 342.95 745.71 341.48 747.506 341.48C749.325 341.48 750.792 342.95 750.792 344.748C750.792 346.569 749.325 348.038 747.506 348.038C745.71 348.038 744.242 346.569 744.242 344.748ZM745.316 344.748C745.316 345.954 746.301 346.941 747.506 346.941C748.711 346.941 749.697 345.954 749.697 344.748C749.697 343.542 748.711 342.555 747.506 342.555C746.301 342.555 745.316 343.542 745.316 344.748Z" fill="#312113"/>
<path fill-rule="evenodd" clip-rule="evenodd" d="M677.12 344.748C677.12 342.95 678.587 341.48 680.406 341.48C682.202 341.48 683.67 342.95 683.67 344.748C683.67 346.569 682.202 348.038 680.406 348.038C678.587 348.038 677.12 346.569 677.12 344.748ZM678.215 344.748C678.215 345.954 679.179 346.941 680.406 346.941C681.61 346.941 682.574 345.954 682.574 344.748C682.574 343.542 681.61 342.555 680.406 342.555C679.179 342.555 678.215 343.542 678.215 344.748Z" fill="#312113"/>
<path fill-rule="evenodd" clip-rule="evenodd" d="M644.5 344.748C644.5 342.95 645.99 341.48 647.786 341.48C649.605 341.48 651.072 342.95 651.072 344.748C651.072 346.569 649.605 348.038 647.786 348.038C645.99 348.038 644.5 346.569 644.5 344.748ZM645.596 344.748C645.596 345.954 646.581 346.941 647.786 346.941C648.991 346.941 649.977 345.954 649.977 344.748C649.977 343.542 648.991 342.555 647.786 342.555C646.581 342.555 645.596 343.542 645.596 344.748Z" fill="#312113"/>
<path fill-rule="evenodd" clip-rule="evenodd" d="M723.869 319.963C723.869 318.165 725.337 316.695 727.155 316.695C728.951 316.695 730.419 318.165 730.419 319.963C730.419 321.784 728.951 323.253 727.155 323.253C725.337 323.253 723.869 321.784 723.869 319.963ZM724.964 319.963C724.964 321.17 725.95 322.157 727.155 322.157C728.36 322.157 729.346 321.17 729.346 319.963C729.346 318.757 728.36 317.77 727.155 317.77C725.95 317.77 724.964 318.757 724.964 319.963Z" fill="#312113"/>
<path fill-rule="evenodd" clip-rule="evenodd" d="M691.271 319.963C691.271 318.165 692.739 316.695 694.536 316.695C696.354 316.695 697.822 318.165 697.822 319.963C697.822 321.784 696.354 323.253 694.536 323.253C692.739 323.253 691.271 321.784 691.271 319.963ZM692.345 319.963C692.345 321.17 693.331 322.157 694.536 322.157C695.74 322.157 696.726 321.17 696.726 319.963C696.726 318.757 695.74 317.77 694.536 317.77C693.331 317.77 692.345 318.757 692.345 319.963Z" fill="#312113"/>
<path fill-rule="evenodd" clip-rule="evenodd" d="M658.652 319.963C658.652 318.165 660.12 316.695 661.938 316.695C663.734 316.695 665.224 318.165 665.224 319.963C665.224 321.784 663.734 323.253 661.938 323.253C660.12 323.253 658.652 321.784 658.652 319.963ZM659.747 319.963C659.747 321.17 660.733 322.157 661.938 322.157C663.143 322.157 664.129 321.17 664.129 319.963C664.129 318.757 663.143 317.77 661.938 317.77C660.733 317.77 659.747 318.757 659.747 319.963Z" fill="#312113"/>
<path d="M677.886 468.013H678.982V555.703H677.886V468.013Z" fill="#312113"/>
<path d="M658.126 563.007C658.126 558.708 661.631 555.22 665.925 555.22H694.842C699.136 555.22 702.619 558.708 702.619 563.007V568.139H701.524V563.007C701.524 559.322 698.523 556.317 694.842 556.317H665.925C662.223 556.317 659.222 559.322 659.222 563.007V569.126H658.126V563.007Z" fill="#312113"/>
<path d="M647.02 563.007C647.02 558.708 650.503 555.22 654.796 555.22H705.949C710.243 555.22 713.748 558.708 713.748 563.007V568.139H712.653V563.007C712.653 559.322 709.651 556.317 705.949 556.317H654.796C651.094 556.317 648.093 559.322 648.093 563.007V569.126H647.02V563.007Z" fill="#312113"/>
<path d="M658.696 564.432C660.689 564.432 662.311 566.055 662.311 568.051C662.311 570.069 660.689 571.692 658.696 571.692C656.68 571.692 655.059 570.069 655.059 568.051C655.059 566.055 656.68 564.432 658.696 564.432Z" fill="#312113"/>
<path d="M647.764 564.432C649.758 564.432 651.379 566.055 651.379 568.051C651.379 570.069 649.758 571.692 647.764 571.692C645.749 571.692 644.128 570.069 644.128 568.051C644.128 566.055 645.749 564.432 647.764 564.432Z" fill="#312113"/>
<path d="M713.266 564.432C715.259 564.432 716.881 566.055 716.881 568.051C716.881 570.069 715.259 571.692 713.266 571.692C711.272 571.692 709.651 570.069 709.651 568.051C709.651 566.055 711.272 564.432 713.266 564.432Z" fill="#312113"/>
<path d="M701.852 564.432C703.846 564.432 705.467 566.055 705.467 568.051C705.467 570.069 703.846 571.692 701.852 571.692C699.859 571.692 698.238 570.069 698.238 568.051C698.238 566.055 699.859 564.432 701.852 564.432Z" fill="#312113"/>
<path d="M545.656 339.484C544.758 341.897 539.281 343.388 538.099 344.353C536.937 345.34 534.856 347.38 534.068 348.301C533.257 349.223 532.359 350.889 531.68 349.047C530.979 347.205 532.907 343.52 534.046 341.019C535.207 338.519 538.668 334.198 538.668 334.198C538.668 334.198 546.555 337.071 545.656 339.484V339.484Z" fill="#E6A19B"/>
<path d="M528.876 338.826C527.277 334.593 525.896 327.596 525.896 327.596C525.896 327.596 586.272 329.724 603.228 329.329C608.661 329.175 623.119 352.359 600.774 357.667C583.161 361.878 549.819 338.497 534.988 340.208C532.14 340.537 529.182 339.638 528.876 338.826V338.826Z" fill="#E6A19B"/>
<path d="M544.035 331.04C544.035 331.04 539.347 339.418 532.644 336.962C525.458 334.308 507.166 338.168 508.59 332.904C509.642 329.022 512.424 325.798 525.721 327.552C535.623 328.868 544.035 331.04 544.035 331.04V331.04Z" fill="#E6A19B"/>
<path d="M519.872 328.671C523.947 329.088 534.068 337.159 534.068 337.159C534.068 337.159 526.181 337.51 529.051 343.103C530.365 345.713 534.221 346.7 533.367 348.214C532.315 350.078 528.175 347.753 522.742 348.389C517.835 348.959 510.08 345.845 509.203 344.024C507.757 340.91 508.261 335.755 508.59 332.904C508.962 329.79 516.871 328.364 519.872 328.671V328.671Z" fill="#E6A19B"/>
<path d="M522.676 348.016L522.128 336.413C522.128 336.413 521.186 343.893 522.676 348.016Z" fill="#312113"/>
<path d="M513.431 347.007L511.701 335.492C511.701 335.492 511.525 343.037 513.431 347.007Z" fill="#312113"/>
<path d="M518.339 348.257L516.104 334.747C516.104 334.747 516.389 344.244 518.339 348.257Z" fill="#312113"/>
<path d="M623.579 260.59C631.29 261.445 643.12 270.767 643.12 287.371C643.098 303.974 634.116 342.072 623.601 367.954C623.601 367.954 602.045 355.495 586.184 329.329C586.184 329.329 590.193 295.596 596.919 281.427C603.666 267.28 615.079 259.647 623.579 260.59V260.59Z" fill="#F2CD5D"/>
<path d="M603.972 535.546L585.549 543.333L570.784 521.377L593.852 511.595L603.972 535.546Z" fill="#E6A19B"/>
<path d="M579.678 536.511C579.678 536.511 583.818 532.936 590.303 536.116C596.787 539.297 597.576 534.493 598.715 533.331C599.854 532.169 601.519 531.028 604.104 531.05C604.104 531.05 610.041 553.795 608.354 571.495H547.146C547.146 571.495 545.24 565.332 550.542 562.48C555.821 559.651 579.021 552.917 582.088 546.93C585.176 540.92 579.678 536.511 579.678 536.511Z" fill="#904823"/>
<path d="M597.641 567.152H596.524C596.524 555.111 607.346 551.163 607.478 551.119L607.85 552.194C607.434 552.347 597.641 555.922 597.641 567.152Z" fill="#312113"/>
<path d="M608.748 565.88C608.814 568.095 608.42 570.025 608.354 571.495H547.146C547.146 571.495 546.27 568.6 547.387 565.88H608.748Z" fill="#312113"/>
<path d="M576.545 557.852L569.25 555.835L569.535 554.738L576.589 556.69C577.947 556.427 589.755 553.904 590.938 548.926C592.187 543.596 587.586 538.134 587.542 538.069L588.419 537.345C588.616 537.586 593.413 543.289 592.033 549.189C590.631 555.155 577.246 557.721 576.677 557.83L576.545 557.852Z" fill="#312113"/>
<path d="M582.92 554.189L576.523 551.996L576.896 550.921L583.292 553.115L582.92 554.189Z" fill="#312113"/>
<path d="M588.178 550.329L581.781 548.136L582.153 547.061L588.55 549.255L588.178 550.329Z" fill="#312113"/>
<path d="M579.042 451.827C583.774 467.926 603.337 521.728 603.337 521.728C581.89 547.96 542.436 548.268 542.436 548.268C542.436 548.268 536.346 522.606 531.767 504.62C527.189 486.657 522.347 462.574 520.661 448.734C517.638 423.949 574.311 435.706 579.042 451.827V451.827Z" fill="#6987D0"/>
<path d="M642.945 439.215C628.421 438.732 561.605 477.664 534.791 466.347C520.398 460.293 511.504 430.88 530.584 415.812C543.071 405.942 601.453 386.597 615.977 384.118C630.48 381.64 668.51 440.07 642.945 439.215V439.215Z" fill="#6987D0"/>
<path d="M595.56 528.308C592.844 520.741 590.018 513.35 587.279 506.221C577.991 482.029 570.674 462.903 574.639 454.832C575.515 453.055 576.939 451.849 578.889 451.278C592.209 447.286 640.163 432.46 640.645 432.328L640.995 433.403C640.513 433.556 592.537 448.383 579.196 452.353C577.553 452.858 576.392 453.823 575.647 455.336C571.901 462.969 579.524 482.819 588.331 505.805C591.069 512.955 593.895 520.346 596.612 527.935L595.56 528.308Z" fill="#312113"/>
<path d="M543.86 544.802L542.743 544.627C542.787 544.407 546.27 522.891 545.569 504.927L546.708 504.883C547.409 522.978 543.904 544.583 543.86 544.802Z" fill="#312113"/>
<path d="M666.363 535.546L647.94 543.333L633.196 521.377L656.264 511.595L666.363 535.546Z" fill="#E6A19B"/>
<path d="M642.09 536.511C642.09 536.511 646.231 532.936 652.715 536.116C659.2 539.297 659.988 534.493 661.127 533.331C662.267 532.169 663.932 531.028 666.495 531.05C666.495 531.05 672.453 553.795 670.766 571.495H609.537C609.537 571.495 607.653 565.332 612.932 562.48C618.234 559.651 641.411 552.917 644.5 546.93C647.567 540.92 642.09 536.511 642.09 536.511Z" fill="#904823"/>
<path d="M660.054 567.152H658.915C658.915 555.111 669.759 551.163 669.868 551.119L670.241 552.194C669.825 552.347 660.054 555.922 660.054 567.152Z" fill="#312113"/>
<path d="M671.161 565.88C671.227 568.095 670.832 570.025 670.767 571.495H609.537C609.537 571.495 608.661 568.6 609.8 565.88H671.161Z" fill="#312113"/>
<path d="M638.958 557.852L631.641 555.835L631.948 554.738L639.002 556.69C640.36 556.427 652.168 553.904 653.329 548.926C654.599 543.596 649.999 538.134 649.955 538.069L650.809 537.345C651.028 537.586 655.826 543.289 654.446 549.189C653.022 555.155 639.637 557.721 639.089 557.83L638.958 557.852Z" fill="#312113"/>
<path d="M645.311 554.189L638.936 551.996L639.286 550.921L645.683 553.115L645.311 554.189Z" fill="#312113"/>
<path d="M650.59 550.329L644.194 548.136L644.566 547.061L650.963 549.255L650.59 550.329Z" fill="#312113"/>
<path d="M641.455 451.827C646.187 467.926 665.75 521.728 665.75 521.728C644.281 547.96 604.849 548.268 604.849 548.268C604.849 548.268 598.759 522.606 594.18 504.62C589.602 486.657 584.76 462.574 583.073 448.734C580.05 423.949 636.723 435.706 641.455 451.827V451.827Z" fill="#6987D0"/>
<path d="M695.258 440.706C681.457 444.106 624.017 477.664 597.181 466.347C582.789 460.293 573.916 430.88 592.997 415.812C605.484 405.942 651.16 384.118 697.164 384.118C727.286 384.118 719.575 434.675 695.258 440.706V440.706Z" fill="#6987D0"/>
<path d="M657.951 528.308C655.256 520.741 652.409 513.35 649.67 506.199C640.404 482.007 633.087 462.903 637.052 454.832C637.928 453.055 639.352 451.849 641.28 451.278C654.599 447.308 702.838 426.867 703.32 426.669L703.78 427.7C703.276 427.919 654.972 448.361 641.609 452.353C639.966 452.858 638.804 453.823 638.06 455.336C634.314 462.969 641.915 482.819 650.722 505.805C653.482 512.955 656.308 520.346 659.025 527.935L657.951 528.308Z" fill="#312113"/>
<path d="M634.27 509.687C634.182 509.555 624.959 495.935 614.773 487.183L615.496 486.306C625.814 495.167 635.124 508.919 635.212 509.073L634.27 509.687Z" fill="#312113"/>
<path d="M582.394 431.845C582 411.996 621.367 398.507 623.053 397.936L623.404 399.011C623.01 399.143 583.161 412.785 583.533 431.823L582.394 431.845Z" fill="#312113"/>
<path d="M673.899 264.209C700.144 279.496 720.32 415.637 720.32 415.637C692.191 420.33 653.657 393.616 629.384 397.893C606.338 401.95 593.698 389.931 593.698 389.931C599.766 378.942 592.055 322.552 594.859 297.789C599.942 252.782 647.633 248.943 673.899 264.209V264.209Z" fill="#F2CD5D"/>
<path d="M639.571 227.493L647.304 256.554C629.516 271.842 623.141 262.498 621.958 260.7L617.445 240.609C631.334 233.327 639.571 227.493 639.571 227.493V227.493Z" fill="#E6A19B"/>
<path d="M640.842 235.235C640.886 235.169 642.288 243.745 642.288 243.745C638.607 256.445 619.526 256.379 619.526 256.379C621.608 247.079 627.588 246.575 640.842 235.235V235.235Z" fill="#312113"/>
<path d="M604.257 232.318C602.811 223.435 603.359 216.153 611.728 212.841C614.269 211.854 621.345 209.748 624.39 210.275C631.597 211.525 635.168 219.114 639.418 227.405C640.776 230.059 642.134 235.783 641.543 238.13C639.878 244.71 629.209 255.896 622.55 257.081C610.764 259.164 605.9 242.298 604.257 232.318Z" fill="#E6A19B"/>
<path d="M615.561 242.977C614.904 242.912 611.53 242.517 610.786 241.091C610.61 240.784 610.501 240.28 610.829 239.687C612.713 236.222 611.508 232.208 611.246 231.419C610.764 231.046 608.726 229.73 606.119 231.133L605.594 230.125C609.23 228.172 612.056 230.629 612.1 230.651L612.188 230.739L612.253 230.87C612.319 231.09 614.159 235.937 611.815 240.236C611.706 240.433 611.749 240.499 611.771 240.565C612.122 241.201 614.313 241.705 615.671 241.837L615.561 242.977Z" fill="#312113"/>
<path d="M639.812 221.746C643.252 221.176 646.538 223.501 647.107 226.944C647.699 230.388 645.377 233.678 641.937 234.248C638.476 234.84 635.212 232.515 634.62 229.072C634.051 225.606 636.373 222.338 639.812 221.746V221.746Z" fill="#E6A19B"/>
<path d="M642.134 232.384C641.871 232.384 641.587 232.318 641.302 232.164C640.36 231.638 640.623 230.607 640.82 229.927C641.039 229.094 641.061 228.787 640.754 228.567C640.579 228.458 640.338 228.348 640.097 228.26C639.462 227.953 638.717 227.624 638.52 226.9C638.388 226.44 638.52 225.935 638.892 225.387C640.206 223.501 642.353 223.961 642.463 223.983L642.222 225.08C642.156 225.08 640.688 224.795 639.834 226.023C639.659 226.264 639.571 226.484 639.615 226.593C639.659 226.813 640.185 227.054 640.579 227.229C640.864 227.361 641.148 227.493 641.368 227.624C642.419 228.326 642.112 229.467 641.915 230.212C641.718 230.892 641.718 231.09 641.85 231.155C642.551 231.55 643.58 230.344 643.58 230.322L644.456 231.046C643.996 231.616 643.098 232.384 642.134 232.384V232.384Z" fill="#312113"/>
<path d="M615.89 247.978C615.079 247.978 614.575 247.934 614.51 247.912L614.619 246.794C614.663 246.794 619.943 247.298 623.754 244.842L624.368 245.785C621.432 247.693 617.84 247.978 615.89 247.978Z" fill="#312113"/>
<path d="M622.769 231.441C622.798 231.528 622.82 231.616 622.834 231.704C622.988 232.625 622.374 233.48 621.454 233.634C620.534 233.787 619.658 233.173 619.504 232.252C619.439 231.879 619.526 231.484 619.702 231.177C620.709 231.397 621.739 231.484 622.769 231.441Z" fill="#312113"/>
<path d="M610.742 233.48C610.771 233.568 610.793 233.656 610.807 233.744C610.961 234.665 610.347 235.52 609.427 235.674C608.507 235.827 607.653 235.213 607.499 234.292C607.434 233.919 607.499 233.524 607.675 233.217C608.682 233.436 609.712 233.524 610.742 233.48Z" fill="#312113"/>
<path d="M617.664 229.357L616.613 228.94C616.657 228.809 618.015 225.54 624.653 227.646L624.302 228.743C618.76 226.966 617.664 229.335 617.664 229.357V229.357Z" fill="#312113"/>
<path d="M627.479 279.321C619.505 279.321 615.517 272.061 615.342 271.754L616.35 271.228C616.394 271.293 620.184 278.18 627.479 278.18V279.321Z" fill="#312113"/>
<path d="M626.624 391.247L626.471 390.128C626.69 390.084 649.298 386.356 653.964 366.089L655.059 366.331C650.24 387.365 626.865 391.203 626.624 391.247Z" fill="black"/>
<path d="M622.418 215.67C616.832 225.255 603.819 229.313 603.819 229.313L604.805 235.103C604.805 235.103 599.153 228.94 597.488 222.426C595.845 215.934 599.394 213.675 599.394 213.675C599.394 213.675 596.59 205.428 609.668 199.155C622.725 192.904 629.428 200.778 629.428 200.778C635.847 199.111 646.099 212.117 641.959 221.724C641.959 221.724 635.54 221.395 636.789 228.83C635.321 229.335 635.935 229.094 634.423 229.357L631.509 222.382C631.509 222.382 625.463 222.689 622.418 215.67V215.67Z" fill="#312113"/>
<path d="M674.031 267.85C680.449 272.215 688.161 282.962 680.406 297.613C672.629 312.287 651.795 343.651 630.414 361.615C630.414 361.615 625.419 333.562 605.944 312.155C605.944 312.155 629.319 280.001 641.893 270.635C654.468 261.27 666.955 263.025 674.031 267.85Z" fill="#F2CD5D"/>
<path d="M639.659 332.268C636.46 332.268 634.314 331.72 634.248 331.698L634.533 330.601C634.708 330.645 651.226 334.812 661.412 318.933L662.354 319.525C655.432 330.36 645.683 332.268 639.659 332.268V332.268Z" fill="black"/>
<path d="M622.155 334.505C628.684 348.652 632.232 360.935 630.086 361.944C627.939 362.931 620.885 352.271 614.356 338.124C607.828 323.955 604.279 311.673 606.448 310.686C608.595 309.677 615.627 320.358 622.155 334.505V334.505Z" fill="black"/>
<path d="M554.025 333.145C554.025 333.145 542.02 327.596 541.954 320.161C541.888 312.155 531.154 300.114 531.154 300.114C531.154 300.114 538.931 296.824 548.439 306.957C557.968 317.09 564.014 318.779 564.014 318.779L554.025 333.145Z" fill="#E6A19B"/>
<path d="M547.584 309.918C549.293 313.712 544.583 326.302 544.583 326.302C543.356 325.381 539.479 319.678 538.559 319.327C538.099 319.152 535.623 320.161 532.797 322.025C530.585 323.517 530.124 324.197 528.24 322.31C525.59 319.7 522.435 316.432 522.063 315.555C521.406 314.02 530.672 304.851 530.672 304.851C530.672 304.851 519.565 312.682 514.264 313.23C512.906 313.362 511.569 311.234 512.708 310.466C521.077 304.939 531.767 299.851 531.767 299.851C531.767 299.851 545.591 305.553 547.584 309.918V309.918Z" fill="#E6A19B"/>
<path d="M527.255 321.389L536.74 312.879C536.74 312.879 530.431 317.858 527.255 321.389Z" fill="#312113"/>
<path d="M524.538 318.604L534.944 307.725C534.944 307.725 527.364 314.787 524.538 318.604Z" fill="#312113"/>
<path d="M605.9 313.932C607.083 313.449 608.244 312.967 609.362 312.506C612.582 316.081 617.511 324.416 622.155 334.505C622.929 336.172 623.652 337.803 624.324 339.396C621.783 339.791 618.76 340.142 615.452 340.449C597.488 342.204 563.839 337.598 553.149 332.729L561.298 318.494C561.298 318.494 586.425 322.047 605.9 313.932V313.932Z" fill="#E6A19B"/>
<path d="M630.37 362.426L629.801 361.439C630.305 361.154 679.354 332.378 681.413 301.605L682.552 301.671C680.427 333.058 630.874 362.141 630.37 362.426Z" fill="black"/>
<path d="M506.991 384.447H588.747V386.685C588.747 387.211 588.331 387.628 587.805 387.628H507.451C507.188 387.628 506.991 387.408 506.991 387.167V384.447Z" fill="black"/>
<path d="M578.561 383.175H581.124V384.447H578.254V383.504C578.254 383.329 578.385 383.175 578.561 383.175Z" fill="#312113"/>
<path d="M575.231 383.175H577.794V384.447H574.924V383.504C574.924 383.329 575.055 383.175 575.231 383.175Z" fill="#312113"/>
<path d="M571.901 383.175H574.464V384.447H571.594V383.504C571.594 383.329 571.726 383.175 571.901 383.175Z" fill="#312113"/>
<path d="M558.034 383.175H560.597V384.447H557.727V383.504C557.727 383.329 557.859 383.175 558.034 383.175Z" fill="#312113"/>
<path d="M554.704 383.175H557.267V384.447H554.397V383.504C554.397 383.329 554.529 383.175 554.704 383.175Z" fill="#312113"/>
<path d="M515.622 383.175H518.185V384.447H515.315V383.504C515.315 383.329 515.469 383.175 515.622 383.175Z" fill="#312113"/>
<path d="M512.314 383.175H514.855V384.447H511.986V383.504C511.986 383.329 512.139 383.175 512.314 383.175Z" fill="#312113"/>
<path d="M561.473 383.175H571.003V384.447H561.145V383.504C561.145 383.329 561.298 383.175 561.473 383.175Z" fill="#312113"/>
<path d="M501.492 383.175H511.044V384.447H501.185V383.504C501.185 383.329 501.317 383.175 501.492 383.175Z" fill="#312113"/>
<path d="M519.281 383.175H553.214V384.447H518.952V383.504C518.952 383.329 519.105 383.175 519.281 383.175Z" fill="#312113"/>
<path d="M502.281 383.504V384.447H494.307V383.899C494.307 383.504 494.635 383.175 495.008 383.175H501.974C502.149 383.175 502.281 383.329 502.281 383.504Z" fill="url(#paint0_linear_1_2)"/>
<path d="M492.664 383.504V384.447H484.69V383.899C484.69 383.504 485.018 383.175 485.413 383.175H492.357C492.532 383.175 492.664 383.329 492.664 383.504Z" fill="url(#paint1_linear_1_2)"/>
<path d="M483.068 383.504V384.447H475.094V383.899C475.094 383.504 475.401 383.175 475.795 383.175H482.762C482.937 383.175 483.068 383.329 483.068 383.504Z" fill="url(#paint2_linear_1_2)"/>
<path d="M473.451 383.504V384.447H465.477V383.899C465.477 383.504 465.806 383.175 466.2 383.175H473.145C473.32 383.175 473.451 383.329 473.451 383.504Z" fill="url(#paint3_linear_1_2)"/>
<path d="M462.147 383.504V384.447H457.481V383.899C457.481 383.504 457.81 383.175 458.204 383.175H461.841C462.016 383.175 462.147 383.329 462.147 383.504Z" fill="url(#paint4_linear_1_2)"/>
<path d="M456.474 383.504V384.447H451.829V383.899C451.829 383.504 452.136 383.175 452.53 383.175H456.167C456.342 383.175 456.474 383.329 456.474 383.504Z" fill="url(#paint5_linear_1_2)"/>
<path d="M451.15 383.504V384.447H446.484V383.899C446.484 383.504 446.813 383.175 447.207 383.175H450.843C451.019 383.175 451.15 383.329 451.15 383.504Z" fill="url(#paint6_linear_1_2)"/>
<path d="M528.766 382.759C529.599 386.18 526.466 387.233 526.466 387.233L507.933 319.854C510.54 319.832 512.971 321.806 513.629 324.35C517.199 338.08 528.065 379.885 528.766 382.759Z" fill="black"/>
<path d="M509.839 321.784L525.743 384.426H435.684L419.933 322.113C419.626 320.95 420.524 319.81 421.707 319.81H507.319C508.502 319.81 509.532 320.621 509.839 321.784Z" fill="#858481"/>
<path d="M419.429 322.266C419.254 321.543 419.407 320.775 419.867 320.183C420.327 319.591 421.028 319.24 421.773 319.24H492.291V320.424H421.773C421.401 320.424 421.028 320.6 420.809 320.907C420.568 321.214 420.481 321.608 420.568 321.981L431.872 366.638L430.711 366.923L419.429 322.266Z" fill="#312113"/>
<path d="M435.531 384.447H525.239V386.685C525.239 387.211 524.823 387.628 524.319 387.628H435.991C435.728 387.628 435.531 387.408 435.531 387.167V384.447Z" fill="white"/>
<path d="M436.1 383.855H509.51V385.04H436.1V383.855Z" fill="#312113"/>
<path d="M512.927 336.348L514.067 336.063L526.269 383.855H588.747V385.04H525.349L512.927 336.348Z" fill="#312113"/>
<path d="M123.62 363.435C148.813 340.625 181.498 400.349 178.191 423.818L165.682 423.752C153.567 417.786 103.225 381.881 123.62 363.435Z" fill="#BCB469"/>
<path d="M171.618 424.015C153.304 389.931 123.511 364.159 123.226 363.896L124.015 362.953C124.322 363.216 154.268 389.141 172.714 423.445L171.618 424.015Z" fill="#8C843D"/>
<path d="M157.094 400.656C156.218 400.568 135.275 398.222 128.922 395.787L129.36 394.646C135.582 397.015 157.028 399.406 157.248 399.428L157.094 400.656Z" fill="#8C843D"/>
<path d="M142.066 380.521L140.927 380.061C143.884 372.823 144.542 361.132 144.542 361.023L145.768 361.088C145.746 361.571 145.111 373.086 142.066 380.521Z" fill="#8C843D"/>
<path d="M167.369 385.325C174.948 398.858 179.527 414.321 178.191 423.818C160.796 408.443 164.586 387.825 167.369 385.325Z" fill="black"/>
<path d="M187.939 347.841C210.218 338.76 203.142 394.23 183.448 423.862L174.335 423.796C169.844 416.339 169.888 355.21 187.939 347.841Z" fill="#BCB469"/>
<path d="M178.782 423.949L177.577 423.686C181.192 407.236 191.006 354.158 191.116 353.609L192.32 353.85C192.233 354.377 182.397 407.477 178.782 423.949Z" fill="#8C843D"/>
<path d="M182.879 405.898L182.024 405.021L191.795 395.326L192.671 396.204L182.879 405.898Z" fill="#8C843D"/>
<path d="M185.507 384.118L174.488 376.288L175.211 375.279L186.208 383.131L185.507 384.118Z" fill="#8C843D"/>
<path d="M208.422 424.125L208.356 431.78C208.312 440.465 206.012 448.997 201.718 456.564L200.01 459.569L188.421 570.64L156.306 570.42L144.607 459.196L142.942 456.169C138.758 448.559 136.589 439.983 136.633 431.297L136.699 423.642L208.422 424.125Z" fill="#904823"/>
<path d="M190.415 443.887L136.984 443.514L137.006 442.286L190.436 442.637L190.415 443.887Z" fill="#312113"/>
<path d="M200.316 460.096L181.214 459.964V458.736L200.338 458.867L200.316 460.096Z" fill="#312113"/>
<path d="M157.489 571.034H155.758L144.016 459.372L142.417 456.477C138.167 448.778 135.954 440.07 136.02 431.297L136.086 423.006L208.422 423.489L208.4 424.739L137.29 424.256L137.247 431.297C137.203 439.873 139.35 448.361 143.49 455.862L145.221 459.13L156.875 569.806H157.51L157.489 571.034Z" fill="#312113"/>
<path d="M191.225 424.037L190.064 423.598C194.708 411.754 212.431 406.074 213.176 405.832L213.548 407.017C213.373 407.061 195.65 412.763 191.225 424.037V424.037Z" fill="#312113"/>
<path d="M151.53 423.664C151.442 423.511 143.074 406.863 131.266 404.231L131.529 403.025C143.928 405.789 152.275 422.414 152.625 423.116L151.53 423.664Z" fill="#312113"/>
<path d="M151.837 424.344C151.53 424.147 119.809 404.626 96.8065 412.654L96.3903 411.469C119.962 403.266 152.165 423.094 152.494 423.313L151.837 424.344Z" fill="#312113"/>
<path d="M170.238 395.765L169.012 395.655C169.033 395.37 171.29 365.234 156.985 351.635L157.839 350.736C172.56 364.751 170.348 394.515 170.238 395.765Z" fill="#312113"/>
<path fill-rule="evenodd" clip-rule="evenodd" d="M702.575 206.524L703.386 183.078L694.974 183.494C694.959 183.494 694.937 183.494 694.908 183.494C691.096 183.626 687.416 182.244 684.524 179.568C681.435 176.717 679.573 172.615 679.42 168.316L676.835 97.8446C676.528 89.1371 682.991 81.7675 691.249 81.4165L797.323 77.0957C801.134 76.9202 804.88 78.3239 807.772 80.9998C810.861 83.8731 812.723 87.9746 812.876 92.2735L815.461 162.723C815.768 171.431 809.306 178.822 801.047 179.173L739.445 181.542L702.575 206.524ZM704.678 181.762L703.912 204.112L739.028 180.314L801.003 177.923C808.561 177.594 814.498 170.795 814.191 162.767L811.628 92.3174C811.474 88.3475 809.766 84.5749 806.918 81.9429C804.289 79.4864 800.915 78.2143 797.432 78.3459C797.417 78.3459 797.396 78.3459 797.366 78.3459L691.293 82.6667C683.714 82.9957 677.799 89.7951 678.083 97.8227L680.668 168.273C680.8 172.242 682.531 176.015 685.378 178.647C688.029 181.125 691.425 182.376 694.93 182.244L704.678 181.762Z" fill="#312113"/>
<path d="M681.523 84.4653L787.596 80.1444C795.482 79.7935 802.208 86.3735 802.514 94.7081L805.078 165.158C805.384 173.515 799.163 180.621 791.276 180.95L729.499 183.341L693.484 207.731L694.273 184.832L685.203 185.293C677.295 185.622 670.591 179.064 670.285 170.707L667.721 100.257C667.415 91.9007 673.614 84.7943 681.523 84.4653V84.4653Z" fill="#FF8376"/>
<path d="M683.955 185.644C680.537 185.644 677.273 184.372 674.732 182.047C672.015 179.568 670.438 176.19 670.285 172.528L668.466 131.315L669.233 131.293L671.051 172.484C671.205 175.949 672.694 179.13 675.257 181.476C677.799 183.801 681.107 185.008 684.568 184.854L688.971 184.635L688.993 185.424L684.59 185.622C684.385 185.636 684.174 185.644 683.955 185.644V185.644Z" fill="#312113"/>
<path d="M667.393 101.771C667.02 91.6375 672.366 87.8869 672.607 87.7333L673.045 88.3913C672.979 88.4133 667.809 92.0542 668.16 101.749L667.393 101.771Z" fill="#312113"/>
<path d="M703.101 156.341L702.86 152.656L721.262 151.91L721.503 155.595L703.101 156.341Z" fill="white"/>
<path d="M702.269 145.264L702.028 141.602L740.956 140.022L741.175 143.685L702.269 145.264Z" fill="white"/>
<path d="M697.033 134.386L696.814 130.723L728.031 129.451L728.272 133.135L697.033 134.386Z" fill="white"/>
<path d="M723.387 155.507L723.168 151.823L728.754 151.603L728.973 155.288L723.387 155.507Z" fill="white"/>
<path d="M746.301 154.586L746.082 150.901L764.484 150.156L764.703 153.84L746.301 154.586Z" fill="white"/>
<path d="M745.469 143.532L745.25 139.847L784.157 138.268L784.398 141.953L745.469 143.532Z" fill="white"/>
<path d="M740.255 132.631L740.036 128.968L771.253 127.696L771.472 131.381L740.255 132.631Z" fill="white"/>
<path d="M766.609 153.753L766.39 150.09L771.954 149.849L772.195 153.533L766.609 153.753Z" fill="white"/>
<path d="M693.834 123.836L693.615 120.151L712.017 119.405L712.236 123.09L693.834 123.836Z" fill="white"/>
<path d="M693.002 112.781L692.783 109.096L731.69 107.517L731.909 111.202L693.002 112.781Z" fill="white"/>
<path d="M714.142 123.002L713.901 119.339L719.487 119.098L719.728 122.783L714.142 123.002Z" fill="white"/>
<path d="M737.057 122.081L736.838 118.396L755.239 117.65L755.459 121.335L737.057 122.081Z" fill="white"/>
<path d="M736.224 111.027L736.005 107.342L774.912 105.763L775.131 109.447L736.224 111.027Z" fill="white"/>
<path d="M757.343 121.247L757.123 117.585L762.71 117.365L762.929 121.028L757.343 121.247Z" fill="white"/>
<path d="M675.915 118.966L675.783 115.391C676.499 115.318 677.039 115.187 677.404 114.996C677.769 114.806 678.076 114.492 678.324 114.053C678.573 113.615 678.733 113.074 678.806 112.43C678.865 111.962 678.872 111.129 678.828 109.93C678.755 108 678.792 106.654 678.938 105.894C679.084 105.119 679.383 104.49 679.836 104.008C680.274 103.525 680.939 103.131 681.83 102.823C682.428 102.619 683.378 102.494 684.677 102.451L685.466 102.407L685.619 105.982C684.509 106.026 683.801 106.113 683.494 106.245C683.188 106.391 682.969 106.596 682.837 106.859C682.691 107.108 682.633 107.546 682.662 108.175C682.691 108.804 682.691 109.996 682.662 111.75C682.662 112.73 682.567 113.534 682.377 114.163C682.187 114.777 681.939 115.289 681.632 115.698C681.326 116.122 680.851 116.561 680.208 117.014C680.807 117.321 681.304 117.694 681.698 118.133C682.092 118.572 682.399 119.113 682.618 119.756C682.852 120.399 683.02 121.262 683.122 122.344C683.254 123.996 683.327 125.049 683.341 125.503C683.37 126.161 683.473 126.614 683.648 126.862C683.808 127.111 684.057 127.301 684.393 127.433C684.714 127.55 685.415 127.586 686.496 127.542L686.627 131.139L685.838 131.161C684.495 131.22 683.465 131.154 682.75 130.964C682.019 130.774 681.399 130.445 680.888 129.977C680.376 129.494 680.019 128.888 679.814 128.156C679.624 127.44 679.493 126.292 679.42 124.713C679.347 122.885 679.223 121.701 679.047 121.16C678.799 120.37 678.441 119.814 677.974 119.493C677.521 119.156 676.835 118.981 675.915 118.966V118.966Z" fill="white"/>
<path d="M797.98 149.191C797.556 149.556 797.25 150.141 797.06 150.945C796.914 151.501 796.884 152.693 796.972 154.52C797.03 156.1 796.987 157.255 796.841 157.986C796.709 158.732 796.402 159.36 795.921 159.872C795.453 160.398 794.869 160.779 794.168 161.013C793.452 161.261 792.423 161.415 791.079 161.473L790.29 161.495L790.159 157.92C791.225 157.876 791.919 157.774 792.24 157.613C792.561 157.467 792.795 157.262 792.941 156.999C793.087 156.736 793.146 156.275 793.116 155.617C793.102 155.164 793.095 154.111 793.095 152.459C793.109 151.362 793.204 150.485 793.379 149.827C793.555 149.169 793.817 148.606 794.168 148.138C794.518 147.67 794.986 147.26 795.57 146.909C794.884 146.5 794.372 146.105 794.037 145.725C793.686 145.33 793.394 144.833 793.16 144.234C792.927 143.634 792.766 142.837 792.678 141.843C792.518 140.103 792.423 138.918 792.394 138.29C792.379 137.676 792.291 137.244 792.131 136.996C791.97 136.747 791.729 136.564 791.408 136.447C791.086 136.33 790.378 136.301 789.283 136.36L789.129 132.784L789.918 132.741C791.218 132.697 792.174 132.748 792.788 132.894C793.708 133.128 794.409 133.472 794.891 133.925C795.373 134.364 795.723 134.963 795.942 135.723C796.147 136.469 796.286 137.807 796.359 139.737C796.417 140.922 796.49 141.755 796.578 142.238C796.709 142.866 796.914 143.385 797.191 143.795C797.483 144.219 797.819 144.511 798.199 144.672C798.564 144.833 799.112 144.921 799.842 144.935L799.995 148.511C799.075 148.598 798.403 148.825 797.98 149.191V149.191Z" fill="white"/>
<path d="M512.007 394.383V547.697L397.522 547.456V571.517H385.035V394.383H512.007Z" fill="#312113"/>
<g style="mix-blend-mode:multiply">
<path d="M512.007 394.383V421.427H410.447L386.459 397.41C385.999 396.949 385.517 396.599 385.035 396.313V394.383H512.007Z" fill="#312113"/>
</g>
<path d="M363.566 400.196V387.628H714.252L713.901 400.196H363.566Z" fill="#312113"/>
<path d="M713.091 400.744H362.997V387.079H506.443V388.198H364.114V399.625H713.091V400.744Z" fill="black"/>
<path d="M664.72 400.744H678.062V571.473H664.72V400.744Z" fill="#EDE3DD"/>
<path d="M678.062 400.744V416.031H670.986V571.473H664.72V400.744H678.062Z" fill="#312113"/>
<path d="M671.555 571.473H670.416V416.031H671.555V571.473Z" fill="black"/>
<path d="M384.466 414.211H385.583V520.303H384.466V414.211Z" fill="black"/>
<path d="M448.521 547.127H511.438V475.186H512.555V548.246H448.521V547.127Z" fill="black"/>
<path d="M396.974 550.549H398.092V567.986H396.974V550.549Z" fill="black"/>
<path d="M581.474 87.3824V96.1996H436.144V87.3824C436.144 83.2151 439.54 79.8373 443.702 79.8373H573.916C578.079 79.8373 581.474 83.2151 581.474 87.3824Z" fill="#6987D0"/>
<path d="M446.462 89.3564C446.462 89.9925 445.958 90.4969 445.323 90.4969C444.688 90.4969 444.184 89.9925 444.184 89.3564C444.184 88.7203 444.688 88.2159 445.323 88.2159C445.958 88.2159 446.462 88.7203 446.462 89.3564Z" fill="white"/>
<path d="M451.304 89.3564C451.304 89.9925 450.778 90.4969 450.164 90.4969C449.529 90.4969 449.003 89.9925 449.003 89.3564C449.003 88.7203 449.529 88.2159 450.164 88.2159C450.778 88.2159 451.304 88.7203 451.304 89.3564Z" fill="white"/>
<path d="M456.123 89.3564C456.123 89.9925 455.619 90.4969 454.984 90.4969C454.349 90.4969 453.845 89.9925 453.845 89.3564C453.845 88.7203 454.349 88.2159 454.984 88.2159C455.619 88.2159 456.123 88.7203 456.123 89.3564Z" fill="white"/>
<path d="M446.572 253.659L446.528 251.093H459.365L459.409 253.659H446.572Z" fill="#312113"/>
<path d="M446.309 245.938L446.243 243.372H473.408L473.451 245.938H446.309Z" fill="#312113"/>
<path d="M445.958 238.218L445.893 235.63H467.69L467.734 238.218H445.958Z" fill="#312113"/>
<path d="M460.745 253.659L460.68 251.093H464.579L464.623 253.659H460.745Z" fill="#312113"/>
<path d="M476.737 253.659L476.672 251.093H489.509L489.575 253.659H476.737Z" fill="#312113"/>
<path d="M476.453 245.938L476.409 243.372H503.551L503.617 245.938H476.453Z" fill="#312113"/>
<path d="M476.102 238.218L476.058 235.63H497.834L497.899 238.218H476.102Z" fill="#312113"/>
<path d="M490.889 253.659L490.845 251.093H494.745L494.789 253.659H490.889Z" fill="#312113"/>
<path d="M446.396 230.761L446.331 228.194H459.168L459.234 230.761H446.396Z" fill="#312113"/>
<path d="M446.133 223.04L446.068 220.474H473.232L473.276 223.04H446.133Z" fill="#312113"/>
<path d="M445.761 215.298L445.717 212.731H467.493L467.558 215.298H445.761Z" fill="#312113"/>
<path d="M460.548 230.761L460.504 228.194H464.404L464.448 230.761H460.548Z" fill="#312113"/>
<path d="M476.54 230.761L476.496 228.194H489.334L489.4 230.761H476.54Z" fill="#FF8376"/>
<path d="M476.277 223.04L476.233 220.474H503.376L503.442 223.04H476.277Z" fill="#312113"/>
<path d="M475.927 215.298L475.861 212.731H497.658L497.702 215.298H475.927Z" fill="white"/>
<path d="M490.714 230.761L490.648 228.194H494.548L494.613 230.761H490.714Z" fill="#312113"/>
<path d="M446.199 207.862L446.155 205.296H458.993L459.059 207.862H446.199Z" fill="#312113"/>
<path d="M445.936 200.142L445.893 197.554H473.035L473.101 200.142H445.936Z" fill="#312113"/>
<path d="M445.586 192.399L445.52 189.833H467.317L467.361 192.399H445.586Z" fill="#312113"/>
<path d="M460.373 207.862L460.307 205.296H464.207L464.272 207.862H460.373Z" fill="#312113"/>
<path d="M476.365 207.862L476.321 205.296H489.159L489.202 207.862H476.365Z" fill="#312113"/>
<path d="M476.102 200.142L476.036 197.554H503.201L503.245 200.142H476.102Z" fill="#312113"/>
<path d="M475.73 192.399L475.686 189.833H497.461L497.527 192.399H475.73Z" fill="#312113"/>
<path d="M490.517 207.862L490.473 205.296H494.372L494.416 207.862H490.517Z" fill="#312113"/>
<path d="M446.024 184.964L445.98 182.398H458.818L458.861 184.964H446.024Z" fill="#312113"/>
<path d="M445.761 177.221L445.695 174.655H472.86L472.904 177.221H445.761Z" fill="#312113"/>
<path d="M460.198 184.964L460.132 182.398H464.031L464.075 184.964H460.198Z" fill="#312113"/>
<path d="M476.19 184.964L476.124 182.398H488.961L489.027 184.964H476.19Z" fill="#312113"/>
<path d="M475.905 177.221L475.861 174.655H503.004L503.069 177.221H475.905Z" fill="#312113"/>
<path d="M475.554 169.501L475.511 166.935H497.286L497.33 169.501H475.554Z" fill="#312113"/>
<path d="M490.342 184.964L490.298 182.398H494.197L494.241 184.964H490.342Z" fill="#312113"/>
<path d="M445.849 162.065L445.783 159.477H458.62L458.686 162.065H445.849Z" fill="#312113"/>
<path d="M445.586 154.323L445.52 151.757H472.663L472.728 154.323H445.586Z" fill="#312113"/>
<path d="M445.213 146.602L445.17 144.036H466.945L467.011 146.602H445.213Z" fill="#312113"/>
<path d="M460.001 162.065L459.957 159.477H463.856L463.9 162.065H460.001Z" fill="#312113"/>
<path d="M475.993 162.065L475.949 159.477H488.786L488.83 162.065H475.993Z" fill="#312113"/>
<path d="M475.73 154.323L475.686 151.757H502.828L502.894 154.323H475.73Z" fill="#312113"/>
<path d="M475.379 146.602L475.313 144.036H497.111L497.155 146.602H475.379Z" fill="#312113"/>
<path d="M490.166 162.065L490.101 159.477H494L494.066 162.065H490.166Z" fill="#312113"/>
<path d="M445.652 139.145L445.608 136.579H458.445L458.511 139.145H445.652Z" fill="#312113"/>
<path d="M445.389 131.425L445.345 128.858H472.487L472.553 131.425H445.389Z" fill="#312113"/>
<path d="M445.038 123.704L444.972 121.138H466.77L466.814 123.704H445.038Z" fill="#312113"/>
<path d="M459.825 139.145L459.76 136.579H463.659L463.725 139.145H459.825Z" fill="#312113"/>
<path d="M475.817 139.145L475.773 136.579H488.611L488.655 139.145H475.817Z" fill="#312113"/>
<path d="M475.554 131.425L475.489 128.858H502.653L502.697 131.425H475.554Z" fill="#312113"/>
<path d="M475.182 123.704L475.138 121.138H496.914L496.979 123.704H475.182Z" fill="#312113"/>
<path d="M489.969 139.145L489.925 136.579H493.825L493.869 139.145H489.969Z" fill="#312113"/>
<path d="M445.476 116.247L445.432 113.68H458.27L458.314 116.247H445.476Z" fill="#312113"/>
<path d="M445.213 108.526L445.148 105.96H472.312L472.356 108.526H445.213Z" fill="#312113"/>
<path d="M459.628 116.247L459.584 113.68H463.484L463.528 116.247H459.628Z" fill="#312113"/>
<path d="M475.642 116.247L475.576 113.68H488.414L488.479 116.247H475.642Z" fill="#312113"/>
<path d="M475.357 108.526L475.313 105.96H502.456L502.522 108.526H475.357Z" fill="#312113"/>
<path d="M489.794 116.247L489.75 113.68H493.649L493.693 116.247H489.794Z" fill="#312113"/>
<path d="M514.68 253.659L514.636 251.093H527.474L527.539 253.659H514.68Z" fill="#312113"/>
<path d="M514.417 245.938L514.373 243.372H541.516L541.582 245.938H514.417Z" fill="#312113"/>
<path d="M514.067 238.218L514.001 235.63H535.798L535.842 238.218H514.067Z" fill="#312113"/>
<path d="M528.854 253.659L528.788 251.093H532.688L532.753 253.659H528.854Z" fill="#312113"/>
<path d="M544.846 253.659L544.802 251.093H557.639L557.683 253.659H544.846Z" fill="#312113"/>
<path d="M544.583 245.938L544.517 243.372H571.682L571.726 245.938H544.583Z" fill="#312113"/>
<path d="M544.211 238.218L544.167 235.63H565.942L566.008 238.218H544.211Z" fill="#312113"/>
<path d="M558.998 253.659L558.954 251.093H562.853L562.897 253.659H558.998Z" fill="#312113"/>
<path d="M514.505 230.761L514.461 228.194H527.298L527.342 230.761H514.505Z" fill="#312113"/>
<path d="M514.242 223.04L514.176 220.474H541.341L541.385 223.04H514.242Z" fill="#312113"/>
<path d="M513.87 215.298L513.826 212.731H535.601L535.667 215.298H513.87Z" fill="#312113"/>
<path d="M528.679 230.761L528.613 228.194H532.512L532.556 230.761H528.679Z" fill="#312113"/>
<path d="M544.671 230.761L544.605 228.194H557.442L557.508 230.761H544.671Z" fill="#312113"/>
<path d="M544.386 223.04L544.342 220.474H571.485L571.55 223.04H544.386Z" fill="#FF8376"/>
<path d="M544.035 215.298L543.991 212.731H565.767L565.811 215.298H544.035Z" fill="white"/>
<path d="M558.822 230.761L558.779 228.194H562.678L562.722 230.761H558.822Z" fill="#312113"/>
<path d="M514.33 207.862L514.264 205.296H527.101L527.167 207.862H514.33Z" fill="#312113"/>
<path d="M514.067 200.142L514.001 197.554H541.165L541.209 200.142H514.067Z" fill="#312113"/>
<path d="M513.694 192.399L513.65 189.833H535.426L535.492 192.399H513.694Z" fill="#312113"/>
<path d="M528.481 207.862L528.438 205.296H532.337L532.381 207.862H528.481Z" fill="#312113"/>
<path d="M544.473 207.862L544.43 205.296H557.267L557.311 207.862H544.473Z" fill="#312113"/>
<path d="M544.211 200.142L544.167 197.554H571.309L571.375 200.142H544.211Z" fill="#312113"/>
<path d="M543.86 192.399L543.794 189.833H565.592L565.635 192.399H543.86Z" fill="#312113"/>
<path d="M558.647 207.862L558.581 205.296H562.481L562.547 207.862H558.647Z" fill="#312113"/>
<path d="M514.067 284.146L514.001 281.58H535.798L535.842 284.146H514.067Z" fill="#312113"/>
<path d="M544.211 284.146L544.167 281.58H565.942L566.008 284.146H544.211Z" fill="#312113"/>
<path d="M514.505 276.689L514.461 274.123H527.298L527.342 276.689H514.505Z" fill="#312113"/>
<path d="M514.242 268.968L514.176 266.402H541.341L541.385 268.968H514.242Z" fill="#312113"/>
<path d="M513.87 261.248L513.826 258.682H535.601L535.667 261.248H513.87Z" fill="#312113"/>
<path d="M528.679 276.689L528.613 274.123H532.512L532.556 276.689H528.679Z" fill="#312113"/>
<path d="M544.671 276.689L544.605 274.123H557.442L557.508 276.689H544.671Z" fill="#312113"/>
<path d="M544.386 268.968L544.342 266.402H571.485L571.55 268.968H544.386Z" fill="#FF8376"/>
<path d="M544.035 261.248L543.991 258.682H565.767L565.811 261.248H544.035Z" fill="white"/>
<path d="M558.822 276.689L558.779 274.123H562.678L562.722 276.689H558.822Z" fill="#312113"/>
<path d="M514.132 184.964L514.089 182.398H526.926L526.992 184.964H514.132Z" fill="#312113"/>
<path d="M513.87 177.221L513.826 174.655H540.968L541.034 177.221H513.87Z" fill="#312113"/>
<path d="M528.306 184.964L528.24 182.398H532.14L532.206 184.964H528.306Z" fill="#312113"/>
<path d="M544.298 184.964L544.254 182.398H557.092L557.136 184.964H544.298Z" fill="#312113"/>
<path d="M544.035 177.221L543.97 174.655H571.134L571.178 177.221H544.035Z" fill="#312113"/>
<path d="M543.663 169.501L543.619 166.935H565.394L565.46 169.501H543.663Z" fill="#312113"/>
<path d="M558.45 184.964L558.406 182.398H562.306L562.349 184.964H558.45Z" fill="#312113"/>
<path d="M513.957 162.065L513.913 159.477H526.751L526.795 162.065H513.957Z" fill="#312113"/>
<path d="M513.694 154.323L513.629 151.757H540.793L540.837 154.323H513.694Z" fill="#312113"/>
<path d="M513.322 146.602L513.278 144.036H535.053L535.119 146.602H513.322Z" fill="#312113"/>
<path d="M528.131 162.065L528.065 159.477H531.965L532.008 162.065H528.131Z" fill="#312113"/>
<path d="M544.123 162.065L544.057 159.477H556.895L556.96 162.065H544.123Z" fill="#312113"/>
<path d="M543.838 154.323L543.794 151.757H570.937L571.003 154.323H543.838Z" fill="#312113"/>
<path d="M543.488 146.602L543.444 144.036H565.219L565.263 146.602H543.488Z" fill="white"/>
<path d="M558.275 162.065L558.231 159.477H562.13L562.174 162.065H558.275Z" fill="#312113"/>
<path d="M513.782 139.145L513.716 136.579H526.554L526.619 139.145H513.782Z" fill="#312113"/>
<path d="M513.497 131.425L513.453 128.858H540.596L540.662 131.425H513.497Z" fill="#312113"/>
<path d="M513.147 123.704L513.103 121.138H534.878L534.944 123.704H513.147Z" fill="#312113"/>
<path d="M527.934 139.145L527.89 136.579H531.789L531.833 139.145H527.934Z" fill="#312113"/>
<path d="M543.926 139.145L543.882 136.579H556.719L556.763 139.145H543.926Z" fill="#312113"/>
<path d="M543.663 131.425L543.619 128.858H570.762L570.806 131.425H543.663Z" fill="#312113"/>
<path d="M543.312 123.704L543.247 121.138H565.044L565.088 123.704H543.312Z" fill="#312113"/>
<path d="M558.1 139.145L558.034 136.579H561.933L561.999 139.145H558.1Z" fill="#312113"/>
<path d="M513.585 116.247L513.541 113.68H526.378L526.444 116.247H513.585Z" fill="#312113"/>
<path d="M513.322 108.526L513.278 105.96H540.421L540.486 108.526H513.322Z" fill="#312113"/>
<path d="M527.759 116.247L527.693 113.68H531.592L531.658 116.247H527.759Z" fill="#312113"/>
<path d="M543.751 116.247L543.685 113.68H556.544L556.588 116.247H543.751Z" fill="#312113"/>
<path d="M543.488 108.526L543.422 105.96H570.586L570.63 108.526H543.488Z" fill="#FF8376"/>
<path d="M557.902 116.247L557.859 113.68H561.758L561.802 116.247H557.902Z" fill="#312113"/>
<path d="M582.088 293.863H580.839V87.514C580.839 83.6318 577.684 80.4515 573.785 80.4515H443.833C439.934 80.4515 436.779 83.6318 436.779 87.514V235.674H435.531V87.514C435.531 82.9299 439.255 79.2013 443.833 79.2013H573.785C578.363 79.2013 582.088 82.9299 582.088 87.514V293.863Z" fill="#312113"/>
<path fill-rule="evenodd" clip-rule="evenodd" d="M377.499 295.42L323.74 300.991C316.532 301.715 310.004 296.122 309.216 288.511L302.709 227.076C302.315 223.325 303.432 219.531 305.754 216.657C307.945 213.96 311.012 212.293 314.342 211.964L406.92 202.554C414.128 201.831 420.634 207.424 421.444 215.012L427.929 276.47C428.345 280.22 427.228 284.015 424.906 286.888C422.737 289.564 419.714 291.209 416.384 291.56C416.355 291.574 416.333 291.582 416.318 291.582L408.979 292.262L412.572 312.506L377.499 295.42ZM416.209 290.485C419.254 290.178 422.058 288.665 424.051 286.186C426.198 283.554 427.228 280.067 426.855 276.601L420.371 215.144C419.626 208.147 413.646 202.993 407.03 203.651L314.451 213.06C314.437 213.06 314.422 213.06 314.407 213.06C311.362 213.389 308.602 214.903 306.609 217.359C304.462 219.991 303.454 223.501 303.826 226.966L310.311 288.401C311.056 295.42 317.036 300.574 323.63 299.916L377.696 294.301L411.126 310.576L407.687 291.275L416.209 290.485Z" fill="#312113"/>
<path d="M415.705 219.289L422.189 280.747C422.956 288.029 417.939 294.543 411.061 295.245L403.108 295.968L406.635 315.752L372.395 299.061L318.482 304.654C311.581 305.356 305.316 299.96 304.549 292.678L298.065 231.221C297.276 223.939 302.293 217.403 309.194 216.723L401.75 207.314C408.651 206.612 414.916 212.008 415.705 219.289V219.289Z" fill="#F2CD5D"/>
<path d="M304.9 293.6C305.601 300.311 311.625 305.202 318.329 304.5L332.897 302.965L333.028 304.04L318.46 305.597C311.143 306.365 304.571 301.035 303.805 293.731L298.678 245.302L299.774 245.193L304.9 293.6Z" fill="#312113"/>
<path d="M394.609 310.488L375.878 301.364L376.338 300.377L395.069 309.523L394.609 310.488Z" fill="#312113"/>
<path fill-rule="evenodd" clip-rule="evenodd" d="M345.69 275.219C342.711 275.219 340.279 274.386 338.395 272.763C336.183 270.855 334.868 267.872 334.496 263.88L334.452 263.485L342.163 261.884L342.207 262.323C342.492 264.341 342.908 265.744 343.456 266.49C344.288 267.609 345.428 268.091 346.895 267.96C348.429 267.806 349.415 267.323 349.94 266.424C350.488 265.503 350.62 263.595 350.357 260.743L348.144 236.683L356.337 235.937L358.506 259.515C358.791 262.564 358.747 264.999 358.353 266.709C357.805 268.99 356.622 270.899 354.804 272.412C352.985 273.925 350.466 274.847 347.312 275.132C346.757 275.19 346.216 275.219 345.69 275.219V275.219ZM335.372 264.165C335.789 267.74 336.993 270.416 338.943 272.127C340.98 273.882 343.763 274.605 347.246 274.276C350.203 274.013 352.569 273.158 354.256 271.754C355.921 270.372 357.038 268.596 357.52 266.512C357.893 264.889 357.936 262.564 357.674 259.581L355.57 236.858L349.064 237.472L351.211 260.656C351.496 263.748 351.321 265.766 350.663 266.863C350.006 267.981 348.757 268.639 346.983 268.793C345.209 268.968 343.785 268.354 342.777 266.994C342.163 266.183 341.725 264.845 341.441 262.893L335.372 264.165Z" fill="black"/>
<path fill-rule="evenodd" clip-rule="evenodd" d="M378.025 272.215C374.454 272.215 371.519 271.403 369.262 269.802C366.502 267.828 364.662 264.735 363.786 260.612L363.698 260.173L371.628 258.66L371.738 259.033C372.351 261.314 373.359 262.937 374.695 263.88C376.01 264.823 377.784 265.196 379.909 264.999C382.165 264.801 383.83 264.165 384.86 263.134C385.89 262.081 386.35 260.985 386.218 259.756C386.152 258.989 385.89 258.375 385.386 257.892C384.882 257.388 384.006 256.971 382.779 256.664C381.903 256.445 379.887 256.094 376.776 255.611C372.68 254.997 369.7 254.01 367.926 252.694C365.407 250.83 364.005 248.351 363.72 245.346C363.545 243.394 363.917 241.508 364.859 239.731C365.801 237.933 367.291 236.507 369.262 235.432C371.212 234.38 373.644 233.7 376.492 233.436C381.158 233.02 384.838 233.744 387.401 235.586C390.008 237.45 391.542 240.148 391.98 243.592L392.023 244.008L383.896 245.127L383.808 244.776C383.348 243.021 382.582 241.815 381.574 241.157C380.544 240.477 379.033 240.236 377.061 240.411C375.024 240.609 373.446 241.157 372.395 242.1C371.76 242.648 371.497 243.306 371.562 244.118C371.65 244.864 372.001 245.456 372.702 245.917C373.644 246.575 375.922 247.167 379.515 247.671C383.195 248.198 385.999 248.834 387.817 249.601C389.679 250.369 391.213 251.531 392.374 253.067C393.535 254.602 394.236 256.598 394.455 258.989C394.652 261.16 394.236 263.266 393.206 265.262C392.177 267.28 390.578 268.859 388.475 269.977C386.372 271.096 383.699 271.798 380.479 272.105C379.632 272.178 378.814 272.215 378.025 272.215V272.215ZM364.728 260.853C365.582 264.56 367.269 267.345 369.766 269.1C372.329 270.942 375.922 271.666 380.413 271.25C383.502 270.964 386.087 270.284 388.058 269.232C390.03 268.179 391.498 266.731 392.44 264.867C393.404 263.025 393.798 261.072 393.601 259.055C393.404 256.839 392.746 254.997 391.695 253.593C390.621 252.168 389.219 251.093 387.489 250.391C385.736 249.645 382.998 249.031 379.383 248.505C375.615 247.978 373.271 247.364 372.198 246.618C371.322 246.004 370.818 245.193 370.73 244.184C370.62 243.109 370.993 242.188 371.825 241.464C373.03 240.411 374.761 239.775 376.973 239.556C379.142 239.358 380.851 239.666 382.034 240.433C383.151 241.157 384.006 242.429 384.509 244.184L391.081 243.285C390.6 240.28 389.198 237.911 386.919 236.288C384.509 234.555 381.026 233.875 376.579 234.292C373.841 234.555 371.519 235.191 369.657 236.178C367.838 237.165 366.48 238.503 365.626 240.126C364.749 241.771 364.399 243.504 364.574 245.259C364.815 248.022 366.13 250.281 368.43 252.014C370.095 253.242 372.943 254.185 376.908 254.778C380.04 255.26 382.078 255.611 382.998 255.83C384.378 256.203 385.364 256.664 385.999 257.278C386.634 257.914 386.985 258.726 387.073 259.691C387.204 261.16 386.678 262.52 385.473 263.726C384.29 264.911 382.45 265.635 379.975 265.854C377.653 266.073 375.703 265.635 374.191 264.582C372.767 263.573 371.716 261.906 371.015 259.647L364.728 260.853Z" fill="black"/>
<path d="M346.698 239.424L354.037 238.744L356.184 261.884C356.461 264.925 356.41 267.28 356.03 268.947C355.505 271.14 354.366 272.968 352.613 274.43C350.846 275.892 348.429 276.769 345.362 277.062C341.755 277.398 338.885 276.645 336.752 274.803C334.62 272.96 333.371 270.087 333.006 266.183L339.885 264.735C340.148 266.826 340.586 268.281 341.2 269.1C342.12 270.328 343.398 270.869 345.033 270.723C346.669 270.577 347.786 269.999 348.385 268.99C348.984 267.996 349.144 266.015 348.867 263.046L346.698 239.424Z" fill="white"/>
<path d="M362.296 262.871L369.416 261.511C370.058 263.88 371.095 265.569 372.526 266.578C373.943 267.587 375.776 267.989 378.025 267.784C380.406 267.565 382.151 266.892 383.261 265.766C384.371 264.655 384.86 263.427 384.729 262.081C384.655 261.219 384.334 260.502 383.765 259.932C383.21 259.376 382.282 258.93 380.982 258.594C380.092 258.375 378.069 258.024 374.914 257.541C370.869 256.927 367.984 255.977 366.261 254.69C363.837 252.891 362.493 250.544 362.23 247.649C362.055 245.792 362.42 244.001 363.326 242.276C364.231 240.565 365.633 239.19 367.532 238.152C369.445 237.114 371.803 236.471 374.608 236.222C379.193 235.798 382.742 236.485 385.254 238.284C387.752 240.082 389.212 242.656 389.636 246.004L382.297 247.013C381.8 245.156 380.997 243.862 379.887 243.131C378.777 242.414 377.185 242.151 375.111 242.341C372.965 242.531 371.322 243.124 370.182 244.118C369.452 244.761 369.131 245.558 369.218 246.509C369.306 247.371 369.744 248.073 370.533 248.614C371.526 249.316 373.863 249.923 377.543 250.435C381.209 250.947 383.94 251.583 385.736 252.343C387.533 253.089 388.993 254.2 390.118 255.677C391.228 257.154 391.892 259.055 392.111 261.38C392.301 263.47 391.899 265.481 390.906 267.411C389.913 269.356 388.394 270.869 386.35 271.951C384.305 273.033 381.698 273.721 378.529 274.013C373.914 274.437 370.27 273.699 367.597 271.798C364.925 269.882 363.158 266.907 362.296 262.871V262.871Z" fill="white"/>
</g>
<defs>
<linearGradient id="paint0_linear_1_2" x1="18487.1" y1="2603.07" x2="18777.4" y2="2603.07" gradientUnits="userSpaceOnUse">
<stop stop-color="#AACEFF"/>
<stop offset="1" stop-color="#DBE9FF"/>
</linearGradient>
<linearGradient id="paint1_linear_1_2" x1="18127.3" y1="2603.07" x2="18417.6" y2="2603.07" gradientUnits="userSpaceOnUse">
<stop stop-color="#AACEFF"/>
<stop offset="1" stop-color="#DBE9FF"/>
</linearGradient>
<linearGradient id="paint2_linear_1_2" x1="17768.6" y1="2603.07" x2="18058.9" y2="2603.07" gradientUnits="userSpaceOnUse">
<stop stop-color="#AACEFF"/>
<stop offset="1" stop-color="#DBE9FF"/>
</linearGradient>
<linearGradient id="paint3_linear_1_2" x1="17408.8" y1="2603.07" x2="17699.1" y2="2603.07" gradientUnits="userSpaceOnUse">
<stop stop-color="#AACEFF"/>
<stop offset="1" stop-color="#DBE9FF"/>
</linearGradient>
<linearGradient id="paint4_linear_1_2" x1="10201.9" y1="2603.07" x2="10301.2" y2="2603.07" gradientUnits="userSpaceOnUse">
<stop stop-color="#AACEFF"/>
<stop offset="1" stop-color="#DBE9FF"/>
</linearGradient>
<linearGradient id="paint5_linear_1_2" x1="10030.6" y1="2603.07" x2="10129" y2="2603.07" gradientUnits="userSpaceOnUse">
<stop stop-color="#AACEFF"/>
<stop offset="1" stop-color="#DBE9FF"/>
</linearGradient>
<linearGradient id="paint6_linear_1_2" x1="9956.56" y1="2603.07" x2="10055.9" y2="2603.07" gradientUnits="userSpaceOnUse">
<stop stop-color="#AACEFF"/>
<stop offset="1" stop-color="#DBE9FF"/>
</linearGradient>
<clipPath id="clip0_1_2">
<rect width="988" height="658" fill="white"/>
</clipPath>
</defs>
</svg>
