<svg width="1002" height="702" viewBox="0 0 1002 702" fill="none" xmlns="http://www.w3.org/2000/svg">
<path d="M858.513 600.912L772.682 316.863C770.979 311.207 765.748 307.336 759.836 307.336H238.897C232.925 307.336 227.674 311.287 226.011 317.044L144.107 600.912" stroke="#66B0F0" stroke-width="6" stroke-miterlimit="10"/>
<path d="M381.602 211.342H609.456" stroke="#66B0F0" stroke-width="6" stroke-miterlimit="10"/>
<path d="M876.549 600.912H125.45L260.279 521.225H743.784L876.549 600.912Z" fill="#D0F0E4"/>
<path d="M555.09 211.342H419.96V133.139C419.96 127.844 424.249 123.552 429.54 123.552H545.511C550.802 123.552 555.09 127.844 555.09 133.139V211.342V211.342Z" fill="white" stroke="black" stroke-width="1.5" stroke-miterlimit="10"/>
<path d="M545.89 206.247H431.722C428.716 206.247 426.271 203.8 426.271 200.792V133.761C426.271 130.752 428.716 128.305 431.722 128.305H545.89C548.896 128.305 551.341 130.752 551.341 133.761V200.812C551.341 203.82 548.896 206.247 545.89 206.247Z" fill="#66B0F0"/>
<path d="M579.777 229.694C584.948 233.064 583.745 239.663 577.633 239.663H393.546C388.395 239.663 386.632 232.703 391.682 229.514L579.777 229.694Z" fill="#66B0F0" stroke="black" stroke-width="1.5" stroke-miterlimit="10"/>
<path d="M577.633 235.069H393.545C390.259 235.069 388.956 231.198 391.682 229.514L421 211.342H555.709L579.757 229.694C582.162 231.519 580.759 235.069 577.633 235.069Z" fill="white" stroke="black" stroke-width="1.5" stroke-miterlimit="10"/>
<path d="M556.39 229.594H414.788C412.263 229.594 411.261 226.605 413.345 225.322L433.706 211.342H539.517L558.014 225.462C559.877 226.866 558.795 229.594 556.39 229.594Z" fill="white" stroke="black" stroke-miterlimit="10"/>
<path d="M530.358 211.342L548.875 229.594" stroke="black" stroke-miterlimit="10"/>
<path d="M520.539 211.342L536.851 229.594" stroke="black" stroke-miterlimit="10"/>
<path d="M511.36 211.342L525.509 229.594" stroke="black" stroke-miterlimit="10"/>
<path d="M501.1 211.342L513.064 229.594" stroke="black" stroke-miterlimit="10"/>
<path d="M492.583 211.342L498.415 229.594" stroke="black" stroke-miterlimit="10"/>
<path d="M442.303 211.342L423.786 229.594" stroke="black" stroke-miterlimit="10"/>
<path d="M452.122 211.342L435.81 229.594" stroke="black" stroke-miterlimit="10"/>
<path d="M461.301 211.342L447.152 229.594" stroke="black" stroke-miterlimit="10"/>
<path d="M471.561 211.342L459.597 229.594" stroke="black" stroke-miterlimit="10"/>
<path d="M480.078 211.342L474.247 229.594" stroke="black" stroke-miterlimit="10"/>
<path d="M485.85 229.814V211.342" stroke="black" stroke-miterlimit="10"/>
<path d="M423.786 218.161H548.475" stroke="black" stroke-miterlimit="10"/>
<path d="M534.072 193.379L534.072 193.38L535.815 205.747H435.584L437.327 193.38L436.832 193.31L437.327 193.38C438.421 185.62 443.984 179.246 451.501 177.089L476.142 171.968H495.257L519.899 177.089C527.435 179.226 532.998 185.619 534.072 193.379Z" fill="#FFCF2D" stroke="black"/>
<mask id="path-22-inside-1_1_320" fill="white">
<path d="M492.543 186.25L485.229 178.849C485.068 178.689 485.068 178.428 485.229 178.287C485.389 178.127 485.649 178.127 485.79 178.287L492.503 185.087L502.924 173.273C503.064 173.113 503.325 173.093 503.485 173.233C503.645 173.373 503.665 173.634 503.525 173.795L492.543 186.25Z"/>
</mask>
<path d="M492.543 186.25L485.229 178.849C485.068 178.689 485.068 178.428 485.229 178.287C485.389 178.127 485.649 178.127 485.79 178.287L492.503 185.087L502.924 173.273C503.064 173.113 503.325 173.093 503.485 173.233C503.645 173.373 503.665 173.634 503.525 173.795L492.543 186.25Z" fill="white"/>
<path d="M492.543 186.25L491.832 186.953L492.585 187.715L493.293 186.911L492.543 186.25ZM485.229 178.849L485.94 178.146L485.936 178.142L485.229 178.849ZM485.229 178.287L485.887 179.04L485.913 179.018L485.936 178.994L485.229 178.287ZM485.79 178.287L485.037 178.946L485.057 178.968L485.078 178.99L485.79 178.287ZM492.503 185.087L491.792 185.789L492.544 186.552L493.253 185.748L492.503 185.087ZM502.924 173.273L503.674 173.935L503.677 173.931L502.924 173.273ZM503.525 173.795L504.275 174.456L504.278 174.453L503.525 173.795ZM493.254 185.547L485.94 178.146L484.517 179.552L491.832 186.953L493.254 185.547ZM485.936 178.142C486.138 178.344 486.21 178.757 485.887 179.04L484.57 177.535C483.926 178.099 483.999 179.033 484.521 179.556L485.936 178.142ZM485.936 178.994C485.734 179.197 485.32 179.269 485.037 178.946L486.543 177.629C485.979 176.985 485.044 177.057 484.521 177.581L485.936 178.994ZM485.078 178.99L491.792 185.789L493.215 184.384L486.501 177.585L485.078 178.99ZM493.253 185.748L503.674 173.935L502.174 172.612L491.753 184.425L493.253 185.748ZM503.677 173.931C503.557 174.068 503.404 174.128 503.27 174.138C503.136 174.147 502.969 174.11 502.826 173.985L504.144 172.481C503.559 171.968 502.667 172.048 502.171 172.615L503.677 173.931ZM502.826 173.985C502.69 173.866 502.63 173.712 502.621 173.579C502.611 173.446 502.648 173.279 502.772 173.136L504.278 174.453C504.79 173.868 504.71 172.977 504.144 172.481L502.826 173.985ZM502.775 173.133L491.793 185.589L493.293 186.911L504.275 174.456L502.775 173.133Z" fill="black" mask="url(#path-22-inside-1_1_320)"/>
<mask id="path-24-inside-2_1_320" fill="white">
<path d="M478.956 186.25L467.974 173.795C467.834 173.634 467.834 173.373 468.014 173.233C468.175 173.093 468.435 173.093 468.575 173.273L478.996 185.087L485.71 178.287C485.87 178.127 486.11 178.127 486.271 178.287C486.431 178.448 486.431 178.689 486.271 178.849L478.956 186.25Z"/>
</mask>
<path d="M478.956 186.25L467.974 173.795C467.834 173.634 467.834 173.373 468.014 173.233C468.175 173.093 468.435 173.093 468.575 173.273L478.996 185.087L485.71 178.287C485.87 178.127 486.11 178.127 486.271 178.287C486.431 178.448 486.431 178.689 486.271 178.849L478.956 186.25Z" fill="white"/>
<path d="M478.956 186.25L478.206 186.912L478.914 187.715L479.667 186.953L478.956 186.25ZM467.974 173.795L467.221 174.453L467.224 174.456L467.974 173.795ZM468.014 173.233L468.629 174.022L468.651 174.004L468.673 173.985L468.014 173.233ZM468.575 173.273L467.786 173.887L467.805 173.911L467.825 173.935L468.575 173.273ZM478.996 185.087L478.246 185.748L478.955 186.552L479.708 185.789L478.996 185.087ZM485.71 178.287L485.002 177.581L484.998 177.585L485.71 178.287ZM486.271 178.849L485.563 178.142L485.559 178.146L486.271 178.849ZM479.706 185.589L468.724 173.133L467.224 174.456L478.206 186.912L479.706 185.589ZM468.727 173.136C468.831 173.255 468.88 173.405 468.873 173.555C468.865 173.716 468.789 173.897 468.629 174.022L467.4 172.444C466.696 172.992 466.764 173.93 467.221 174.453L468.727 173.136ZM468.673 173.985C468.554 174.089 468.404 174.139 468.254 174.132C468.092 174.124 467.911 174.047 467.786 173.887L469.365 172.66C468.817 171.955 467.879 172.022 467.355 172.481L468.673 173.985ZM467.825 173.935L478.246 185.748L479.746 184.425L469.325 172.612L467.825 173.935ZM479.708 185.789L486.421 178.99L484.998 177.585L478.285 184.384L479.708 185.789ZM486.417 178.994C486.316 179.096 486.164 179.167 485.99 179.167C485.817 179.167 485.665 179.096 485.563 178.994L486.978 177.581C486.427 177.029 485.553 177.029 485.002 177.581L486.417 178.994ZM485.563 178.994C485.462 178.893 485.391 178.741 485.391 178.568C485.391 178.395 485.462 178.244 485.563 178.142L486.978 179.556C487.529 179.005 487.529 178.132 486.978 177.581L485.563 178.994ZM485.559 178.146L478.245 185.547L479.667 186.953L486.982 179.552L485.559 178.146Z" fill="black" mask="url(#path-24-inside-2_1_320)"/>
<mask id="path-26-inside-3_1_320" fill="white">
<path d="M485.87 191.084C484.908 191.084 484.126 190.301 484.126 189.339C484.126 188.376 484.908 187.594 485.87 187.594C486.832 187.594 487.613 188.376 487.613 189.339C487.613 190.301 486.832 191.084 485.87 191.084ZM485.87 188.396C485.349 188.396 484.928 188.817 484.928 189.339C484.928 189.86 485.349 190.281 485.87 190.281C486.391 190.281 486.812 189.86 486.812 189.339C486.812 188.817 486.391 188.396 485.87 188.396Z"/>
</mask>
<path d="M485.87 191.084C484.908 191.084 484.126 190.301 484.126 189.339C484.126 188.376 484.908 187.594 485.87 187.594C486.832 187.594 487.613 188.376 487.613 189.339C487.613 190.301 486.832 191.084 485.87 191.084ZM485.87 188.396C485.349 188.396 484.928 188.817 484.928 189.339C484.928 189.86 485.349 190.281 485.87 190.281C486.391 190.281 486.812 189.86 486.812 189.339C486.812 188.817 486.391 188.396 485.87 188.396Z" fill="white"/>
<path d="M485.87 190.084C485.461 190.084 485.126 189.75 485.126 189.339H483.126C483.126 190.853 484.355 192.084 485.87 192.084V190.084ZM485.126 189.339C485.126 188.927 485.461 188.594 485.87 188.594V186.594C484.355 186.594 483.126 187.825 483.126 189.339H485.126ZM485.87 188.594C486.279 188.594 486.613 188.927 486.613 189.339H488.613C488.613 187.825 487.385 186.594 485.87 186.594V188.594ZM486.613 189.339C486.613 189.75 486.279 190.084 485.87 190.084V192.084C487.385 192.084 488.613 190.853 488.613 189.339H486.613ZM485.87 187.396C484.796 187.396 483.928 188.266 483.928 189.339H485.928C485.928 189.369 485.902 189.396 485.87 189.396V187.396ZM483.928 189.339C483.928 190.412 484.796 191.281 485.87 191.281V189.281C485.902 189.281 485.928 189.309 485.928 189.339H483.928ZM485.87 191.281C486.944 191.281 487.812 190.412 487.812 189.339H485.812C485.812 189.309 485.838 189.281 485.87 189.281V191.281ZM487.812 189.339C487.812 188.266 486.944 187.396 485.87 187.396V189.396C485.838 189.396 485.812 189.369 485.812 189.339H487.812Z" fill="black" mask="url(#path-26-inside-3_1_320)"/>
<mask id="path-28-inside-4_1_320" fill="white">
<path d="M485.87 200.912C484.908 200.912 484.126 200.13 484.126 199.167C484.126 198.204 484.908 197.422 485.87 197.422C486.832 197.422 487.613 198.204 487.613 199.167C487.613 200.13 486.832 200.912 485.87 200.912ZM485.87 198.224C485.349 198.224 484.928 198.645 484.928 199.167C484.928 199.688 485.349 200.11 485.87 200.11C486.391 200.11 486.812 199.688 486.812 199.167C486.812 198.645 486.391 198.224 485.87 198.224Z"/>
</mask>
<path d="M485.87 200.912C484.908 200.912 484.126 200.13 484.126 199.167C484.126 198.204 484.908 197.422 485.87 197.422C486.832 197.422 487.613 198.204 487.613 199.167C487.613 200.13 486.832 200.912 485.87 200.912ZM485.87 198.224C485.349 198.224 484.928 198.645 484.928 199.167C484.928 199.688 485.349 200.11 485.87 200.11C486.391 200.11 486.812 199.688 486.812 199.167C486.812 198.645 486.391 198.224 485.87 198.224Z" fill="white"/>
<path d="M485.87 199.912C485.461 199.912 485.126 199.578 485.126 199.167H483.126C483.126 200.681 484.355 201.912 485.87 201.912V199.912ZM485.126 199.167C485.126 198.756 485.461 198.422 485.87 198.422V196.422C484.355 196.422 483.126 197.653 483.126 199.167H485.126ZM485.87 198.422C486.279 198.422 486.613 198.756 486.613 199.167H488.613C488.613 197.653 487.385 196.422 485.87 196.422V198.422ZM486.613 199.167C486.613 199.578 486.279 199.912 485.87 199.912V201.912C487.385 201.912 488.613 200.681 488.613 199.167H486.613ZM485.87 197.224C484.796 197.224 483.928 198.094 483.928 199.167H485.928C485.928 199.197 485.902 199.224 485.87 199.224V197.224ZM483.928 199.167C483.928 200.24 484.796 201.11 485.87 201.11V199.11C485.902 199.11 485.928 199.137 485.928 199.167H483.928ZM485.87 201.11C486.944 201.11 487.812 200.24 487.812 199.167H485.812C485.812 199.137 485.838 199.11 485.87 199.11V201.11ZM487.812 199.167C487.812 198.094 486.944 197.224 485.87 197.224V199.224C485.838 199.224 485.812 199.197 485.812 199.167H487.812Z" fill="black" mask="url(#path-28-inside-4_1_320)"/>
<path d="M475.97 205.826H443.225L434.487 179.872L467.233 170.485L475.97 205.826Z" fill="white" stroke="black" stroke-miterlimit="10"/>
<path d="M444.928 183.242H444.307C442.724 183.242 441.441 181.958 441.441 180.374V171.368C441.441 170.726 441.962 170.205 442.604 170.205H445.309C445.95 170.205 446.471 170.726 446.471 171.368V181.677C446.491 182.54 445.79 183.242 444.928 183.242Z" fill="white"/>
<path d="M444.928 183.242H444.307C442.724 183.242 441.441 181.958 441.441 180.374V171.368C441.441 170.726 441.962 170.205 442.604 170.205H445.309C445.95 170.205 446.471 170.726 446.471 171.368V181.677C446.491 182.54 445.79 183.242 444.928 183.242Z" stroke="black" stroke-miterlimit="10" stroke-linecap="round"/>
<path d="M458.115 183.242H458.736C460.319 183.242 461.602 181.958 461.602 180.374V171.368C461.602 170.726 461.081 170.205 460.44 170.205H457.714C457.073 170.205 456.552 170.726 456.552 171.368V181.677C456.552 182.54 457.253 183.242 458.115 183.242Z" fill="white"/>
<path d="M449.959 184.285H448.516C447.394 184.285 446.492 183.382 446.492 182.259V171.388C446.492 170.746 447.013 170.225 447.654 170.225H450.359C451.001 170.225 451.522 170.746 451.522 171.388V182.72C451.522 183.583 450.82 184.285 449.959 184.285Z" fill="white"/>
<path d="M455.008 184.686H453.806C452.544 184.686 451.521 183.663 451.521 182.399V171.368C451.521 170.726 452.042 170.205 452.684 170.205H455.389C456.03 170.205 456.551 170.726 456.551 171.368V183.121C456.551 183.984 455.85 184.686 455.008 184.686Z" fill="white"/>
<path d="M458.115 183.242H458.736C460.319 183.242 461.602 181.958 461.602 180.374V171.368C461.602 170.726 461.081 170.205 460.44 170.205H457.714C457.073 170.205 456.552 170.726 456.552 171.368V181.677C456.552 182.54 457.253 183.242 458.115 183.242Z" stroke="black" stroke-miterlimit="10" stroke-linecap="round"/>
<path d="M449.959 184.285H448.516C447.394 184.285 446.492 183.382 446.492 182.259V171.388C446.492 170.746 447.013 170.225 447.654 170.225H450.359C451.001 170.225 451.522 170.746 451.522 171.388V182.72C451.522 183.583 450.82 184.285 449.959 184.285Z" stroke="black" stroke-miterlimit="10" stroke-linecap="round"/>
<path d="M455.008 184.686H453.806C452.544 184.686 451.521 183.663 451.521 182.399V171.368C451.521 170.726 452.042 170.205 452.684 170.205H455.389C456.03 170.205 456.551 170.726 456.551 171.368V183.121C456.551 183.984 455.85 184.686 455.008 184.686Z" stroke="black" stroke-miterlimit="10" stroke-linecap="round"/>
<path d="M495.329 159.674V174.316C495.329 176.843 491.02 178.909 485.71 178.909C480.399 178.909 476.09 176.843 476.09 174.316V159.674H495.329Z" fill="white"/>
<path d="M495.329 159.674C495.329 170.726 488.255 174.015 481.461 173.434C481.441 173.434 481.421 173.434 481.401 173.434C478.395 173.153 476.11 170.585 476.11 167.577V159.694H495.329V159.674Z" fill="#666B70"/>
<path d="M499.798 155.904V156.646C499.798 158.29 498.475 159.614 496.832 159.614H495.309L495.329 159.955C495.329 164.689 491.501 168.519 486.772 168.519H484.668C479.938 168.519 476.111 164.689 476.111 159.955L476.131 159.614H474.608C472.964 159.614 471.642 158.29 471.642 156.646V155.904C471.642 154.259 472.964 152.935 474.608 152.935H476.551L476.772 149.305C476.772 148.743 476.852 148.202 477.012 147.7C482.744 149.124 489.457 145.434 491.261 144.331C493.265 145.093 494.688 147.018 494.688 149.285L494.908 152.915H496.852C498.475 152.935 499.798 154.259 499.798 155.904Z" fill="white"/>
<path d="M496.972 152.935H494.888L494.668 149.305C494.668 147.039 493.245 145.113 491.241 144.351C489.437 145.434 482.724 149.124 476.992 147.72C476.832 148.222 476.752 148.763 476.752 149.325L476.531 152.955H475.229C475.229 152.955 472.563 140.039 475.189 137.672C477.133 135.927 494.928 139.738 496.892 142.445C497.994 143.99 496.972 152.935 496.972 152.935Z" fill="#E57281"/>
<path d="M491.962 152.153C491.902 152.153 491.822 152.133 491.762 152.073C491.742 152.053 490.439 150.99 488.355 150.99C488.195 150.99 488.055 150.849 488.055 150.689C488.055 150.529 488.195 150.388 488.355 150.388C490.66 150.388 492.083 151.552 492.143 151.612C492.263 151.712 492.283 151.913 492.183 152.033C492.143 152.113 492.043 152.153 491.962 152.153Z" fill="#666B70"/>
<path d="M484.347 158.371C484.307 158.371 484.267 158.371 484.247 158.351C484.087 158.291 484.007 158.11 484.067 157.97C484.628 156.486 484.487 154.62 483.706 152.976C483.245 151.973 482.584 151.251 482.003 151.05C480.72 150.609 478.916 151.231 478.896 151.231C478.736 151.291 478.576 151.211 478.516 151.05C478.455 150.89 478.536 150.729 478.696 150.669C478.776 150.649 480.7 149.987 482.183 150.489C482.924 150.749 483.686 151.572 484.227 152.735C485.069 154.52 485.209 156.566 484.608 158.211C484.588 158.291 484.467 158.371 484.347 158.371Z" fill="#666B70"/>
<path d="M488.295 161.56C488.315 161.721 488.175 161.861 488.014 161.881H487.994C487.834 161.881 487.714 161.761 487.694 161.6C487.674 161.4 487.634 161.199 487.573 161.019C486.712 161.44 485.93 161.58 485.289 161.58C484.026 161.58 483.265 161.059 483.225 161.019C483.084 160.918 483.064 160.738 483.145 160.597C483.245 160.457 483.425 160.437 483.565 160.517C483.605 160.537 484.247 160.979 485.289 160.979C485.85 160.979 486.531 160.858 487.313 160.477C487.193 160.277 487.072 160.156 487.072 160.156C486.952 160.036 486.972 159.835 487.092 159.735C487.213 159.635 487.413 159.635 487.513 159.755C487.553 159.815 488.235 160.577 488.295 161.56Z" fill="#666B70"/>
<path d="M489.377 155.828C489.653 155.811 489.849 155.349 489.815 154.796C489.78 154.243 489.529 153.809 489.252 153.826C488.976 153.843 488.78 154.306 488.815 154.858C488.849 155.411 489.101 155.845 489.377 155.828Z" fill="#666B70"/>
<path d="M481.195 155.748C481.449 155.732 481.63 155.307 481.598 154.798C481.566 154.289 481.335 153.89 481.081 153.906C480.827 153.922 480.646 154.347 480.678 154.855C480.71 155.364 480.941 155.763 481.195 155.748Z" fill="#666B70"/>
<path d="M475.59 156.867C475.429 156.867 475.289 156.727 475.289 156.566C475.289 155.684 474.568 154.982 473.706 154.982C473.546 154.982 473.405 154.841 473.405 154.681C473.405 154.52 473.546 154.38 473.706 154.38C474.908 154.38 475.89 155.363 475.89 156.566C475.89 156.747 475.75 156.867 475.59 156.867Z" fill="#666B70"/>
<path d="M495.75 156.867C495.589 156.867 495.449 156.727 495.449 156.566C495.449 155.363 496.431 154.38 497.634 154.38C497.794 154.38 497.934 154.52 497.934 154.681C497.934 154.841 497.794 154.982 497.634 154.982C496.752 154.982 496.05 155.704 496.05 156.566C496.05 156.747 495.93 156.867 495.75 156.867Z" fill="#666B70"/>
<path d="M461.18 300.277V300.27V300.238V300.205V300.17V300.135V300.099V300.061V300.023V299.984V299.944V299.903V299.861V299.819V299.775V299.73V299.685V299.639V299.591V299.543V299.494V299.444V299.393V299.342V299.289V299.236V299.181V299.126V299.07V299.014V298.956V298.897V298.838V298.778V298.717V298.655V298.593V298.529V298.465V298.4V298.334V298.267V298.2V298.132V298.063V297.993V297.923V297.851V297.779V297.706V297.633V297.559V297.484V297.408V297.331V297.254V297.176V297.097V297.018V296.938V296.857V296.775V296.693V296.61V296.526V296.442V296.357V296.271V296.185V296.098V296.01V295.922V295.833V295.743V295.653V295.562V295.47V295.378V295.285V295.191V295.097V295.003V294.907V294.811V294.715V294.617V294.52V294.421V294.322V294.223V294.123V294.022V293.921V293.819V293.716V293.614V293.51V293.406V293.301V293.196V293.091V292.984V292.878V292.77V292.663V292.554V292.446V292.336V292.226V292.116V292.005V291.894V291.782V291.67V291.557V291.444V291.331V291.217V291.102V290.987V290.872V290.756V290.639V290.523V290.405V290.288V290.17V290.051V289.932V289.813V289.693V289.573V289.453V289.332V289.211V289.089V288.967V288.844V288.722V288.599V288.475V288.351V288.227V288.103V287.978V287.852V287.727V287.601V287.475V287.348V287.221V287.094V286.967V286.839V286.711V286.582V286.454V286.325V286.196V286.066V285.936V285.806V285.676V285.545V285.415V285.283V285.152V285.021V284.889V284.757V284.624V284.492V284.359V284.226V284.093V283.96V283.826V283.693V283.559V283.424V283.29V283.156V283.021V282.886V282.751V282.616V282.481V282.345V282.209V282.074V281.938V281.802V281.665V281.529V281.393V281.256V281.119V280.983V280.846V280.709V280.571V280.434V280.297V280.16V280.022V279.885V279.747V279.609V279.472V279.334V279.196V279.058V278.92V278.782V278.644V278.506V278.368V278.23V278.092V277.954V277.815V277.677V277.539V277.401V277.263V277.125V276.986V276.848V276.71V276.572V276.434V276.296V276.158V276.02V275.883V275.745V275.607V275.469V275.332V275.194V275.057V274.919V274.782V274.645V274.508V274.371V274.234V274.097V273.96V273.824V273.687V273.551V273.415V273.279V273.143V273.007V272.872V272.736V272.601V272.466V272.331V272.196V272.061V271.927V271.792V271.658V271.524V271.391V271.257V271.124V270.991V270.858V270.725V270.593V270.46V270.328V270.197V270.065V269.934V269.803V269.672V269.541V269.411V269.281V269.151V269.022V268.893V268.764V268.635V268.507V268.379V268.251V268.124V267.996V267.87V267.743V267.617V267.491V267.366V267.24V267.116V266.991V266.867V266.743V266.62V266.497V266.374V266.252V266.13V266.008V265.887V265.766V265.646V265.526V265.406V265.287V265.168V265.049V264.931V264.814V264.697V264.58V264.464V264.348V264.232V264.118V264.003V263.889V263.775V263.662V263.55V263.437V263.326V263.215V263.104V262.994V262.884V262.775V262.666V262.558V262.45V262.343V262.236V262.13V262.025V261.919V261.815V261.711V261.608V261.505V261.402V261.301V261.199V261.099V260.999V260.899V260.8V260.702V260.604V260.507V260.411V260.315V260.22V260.125V260.031V259.937V259.845V259.752V259.661V259.57V259.48V259.39V259.301V259.213V259.125V259.038V258.952V258.867V258.782V258.697V258.614V258.531V258.449V258.367V258.287V258.206V258.127V258.049V257.971V257.893V257.817V257.741V257.666V257.592V257.519V257.446V257.374V257.303V257.233V257.163V257.094V257.026V256.959V256.892V256.826V256.761V256.697V256.634V256.572V256.51V256.449V256.389V256.33V256.271V256.214V256.157V256.101V256.046V255.992V255.939V255.886V255.835V255.784V255.734V255.685V255.637V255.59V255.544V255.499V255.454V255.411V255.368V255.326V255.286V255.246V255.207V255.169V255.132V255.096V255.06V255.026V255.005H514.007V300.277H461.18Z" fill="#FFCF2D" stroke="black"/>
<path d="M661.961 469.497L636.931 407.12H677.232L661.961 469.497Z" fill="#6987D0"/>
<path d="M593.284 323.863C598.655 313.694 609.216 307.335 620.699 307.335H651.701L672.763 323.863H593.284Z" fill="#6987D0"/>
<path d="M710.819 396.891H632.723L662.122 468.314C660.077 464.985 647.833 468.455 634.867 476.417C622.062 484.28 613.404 493.747 615.168 497.197L551.801 386.842C535.369 359.003 555.409 323.863 587.713 323.863H762.722L763.103 325.066C774.526 360.567 748.073 396.891 710.819 396.891Z" fill="#6987D0"/>
<path d="M765.748 344.341C765.468 350.86 764.025 357.158 761.58 362.994L669.797 323.883H760.899L763.023 330.101C764.506 333.831 765.328 339.066 765.748 344.341Z" fill="#E6E6E6"/>
<path d="M662.142 468.314C664.186 471.643 655.248 480.729 642.302 488.692C629.336 496.655 617.292 500.646 615.248 497.316C613.204 493.987 621.922 484.58 634.887 476.618C647.833 468.655 660.078 464.984 662.142 468.314Z" fill="#66B0F0"/>
<path d="M633.384 476.658L576.391 375.81C571.922 367.828 577.673 357.96 586.831 357.96H697.833C712.783 357.96 723.945 344.18 720.859 329.539" stroke="black" stroke-width="1.5" stroke-miterlimit="10" stroke-linecap="round"/>
<path d="M614.587 497.537C612.543 494.208 621.38 483.618 634.887 475.735C650.058 466.89 659.877 464.263 662.803 468.956" stroke="black" stroke-width="1.5" stroke-miterlimit="10" stroke-linecap="round"/>
<path d="M663.244 469.397L626.01 380.544" stroke="black" stroke-width="1.5" stroke-miterlimit="10" stroke-linecap="round"/>
<path d="M585.529 323.201H676.37" stroke="black" stroke-width="1.5" stroke-miterlimit="10"/>
<path d="M636.911 501.91L631.5 494.529L624.045 484.38C627.091 481.813 630.759 479.145 634.867 476.618C643.043 471.604 650.919 468.274 656.149 467.352L659.777 474.592L664.306 483.618C661.099 495.03 636.911 501.91 636.911 501.91Z" fill="#E57281"/>
<path d="M659.797 474.592C656.43 478.704 650.097 483.899 642.302 488.692C638.554 490.999 634.887 492.965 631.52 494.529L624.065 484.38C627.112 481.813 630.779 479.145 634.887 476.618C643.063 471.604 650.939 468.274 656.17 467.352L659.797 474.592Z" fill="#6987D0"/>
<path d="M689.076 523.391L634.086 562.924C629.416 566.173 622.162 568.881 623.124 557.127C624.467 540.921 628.054 516.812 636.911 501.89C637.292 501.789 661.1 494.91 664.306 483.598L689.376 501.428C696.591 507.044 696.43 517.996 689.076 523.391Z" fill="black" stroke="#FFCF2D" stroke-miterlimit="10"/>
<path d="M634.366 507.124C638.735 507.947 663.264 499.242 667.071 485.824" stroke="#FFCF2D" stroke-miterlimit="10" stroke-linecap="round"/>
<path d="M628.455 558.852C628.455 558.852 664.346 508.95 689.877 511.758C717.673 514.786 605.729 587.955 628.455 558.852Z" fill="#FFCF2D"/>
<path d="M627.433 565.651C624.647 565.832 621.701 562.582 625.769 557.368C625.769 557.368 663.124 505.62 689.717 508.548C693.825 508.99 695.208 512.339 694.246 515.228" stroke="#FFCF2D" stroke-miterlimit="10" stroke-linecap="round"/>
<path d="M765.949 348.412C753.244 345.404 721.62 337.481 685.548 329.137C668.595 325.226 654.406 313.673 647.092 297.868L614.246 226.746L634.126 195.216C640.238 185.508 650.659 179.331 662.102 178.629L681.661 177.425C701.38 176.222 717.212 188.537 723.224 207.371L763.003 323.862C767.372 334.774 765.949 348.412 765.949 348.412Z" fill="#F2CD5D" stroke="black" stroke-width="1.5" stroke-miterlimit="10"/>
<path d="M631.541 230.737C631.541 230.737 642.001 247.184 665.829 250.814" stroke="#FE5244" stroke-width="2" stroke-miterlimit="10"/>
<path d="M645.649 200.812C644.567 199.648 642.663 199.969 642.001 201.393C641.26 202.998 642.603 204.783 644.346 204.522C646.13 204.262 646.871 202.115 645.649 200.812Z" fill="#FFCF2D" stroke="#FE5244" stroke-width="2" stroke-miterlimit="10" stroke-linejoin="round"/>
<path d="M695.569 235.09C694.487 233.926 692.583 234.247 691.921 235.671C691.18 237.276 692.523 239.061 694.266 238.8C696.05 238.539 696.791 236.393 695.569 235.09Z" fill="#FFCF2D" stroke="#FE5244" stroke-width="2" stroke-miterlimit="10" stroke-linejoin="round"/>
<path d="M711.38 249.13C710.298 247.966 708.394 248.287 707.733 249.711C706.991 251.316 708.334 253.101 710.078 252.84C711.841 252.599 712.583 250.453 711.38 249.13Z" fill="#FFCF2D" stroke="#FE5244" stroke-width="2" stroke-miterlimit="10" stroke-linejoin="round"/>
<path d="M741.701 328.576C740.618 327.413 738.715 327.733 738.053 329.158C737.312 330.762 738.654 332.547 740.398 332.286C742.161 332.026 742.903 329.9 741.701 328.576Z" fill="#FFCF2D" stroke="#FE5244" stroke-width="2" stroke-miterlimit="10" stroke-linejoin="round"/>
<path d="M724.727 290.608C723.645 289.444 721.741 289.765 721.08 291.189C720.338 292.794 721.681 294.579 723.424 294.318C725.208 294.057 725.949 291.911 724.727 290.608Z" fill="#FFCF2D" stroke="#FE5244" stroke-width="2" stroke-miterlimit="10" stroke-linejoin="round"/>
<path d="M731.761 263.29C730.198 263.49 729.336 265.235 730.118 266.599C730.999 268.144 733.224 268.084 734.025 266.499C734.847 264.894 733.524 263.049 731.761 263.29Z" fill="#FFCF2D" stroke="#FE5244" stroke-width="2" stroke-miterlimit="10" stroke-linejoin="round"/>
<path d="M744.566 303.805C743.003 304.006 742.141 305.751 742.923 307.115C743.805 308.659 746.029 308.599 746.831 307.015C747.652 305.41 746.35 303.565 744.566 303.805Z" fill="#FFCF2D" stroke="#FE5244" stroke-width="2" stroke-miterlimit="10" stroke-linejoin="round"/>
<path d="M691.46 260.101C690.378 258.937 688.474 259.258 687.813 260.682C687.072 262.287 688.414 264.072 690.158 263.811C691.921 263.551 692.663 261.425 691.46 260.101Z" fill="#FFCF2D" stroke="#FE5244" stroke-width="2" stroke-miterlimit="10" stroke-linejoin="round"/>
<path d="M680.418 282.825C679.336 281.662 677.432 281.983 676.771 283.407C676.03 285.012 677.372 286.797 679.116 286.536C680.899 286.275 681.641 284.129 680.418 282.825Z" fill="#FFCF2D" stroke="#FE5244" stroke-width="2" stroke-miterlimit="10" stroke-linejoin="round"/>
<path d="M660.659 274.883C661.821 273.8 661.5 271.895 660.078 271.233C658.474 270.491 656.691 271.834 656.951 273.579C657.212 275.344 659.336 276.086 660.659 274.883Z" fill="#FFCF2D" stroke="#FE5244" stroke-width="2" stroke-miterlimit="10" stroke-linejoin="round"/>
<path d="M678.194 313.994C679.356 312.911 679.036 311.006 677.613 310.344C676.01 309.602 674.226 310.946 674.486 312.691C674.747 314.476 676.891 315.218 678.194 313.994Z" fill="#FFCF2D" stroke="#FE5244" stroke-width="2" stroke-miterlimit="10" stroke-linejoin="round"/>
<path d="M707.713 280.439C708.875 279.356 708.555 277.45 707.132 276.788C705.529 276.046 703.745 277.39 704.005 279.135C704.266 280.9 706.41 281.662 707.713 280.439Z" fill="#FFCF2D" stroke="#FE5244" stroke-width="2" stroke-miterlimit="10" stroke-linejoin="round"/>
<path d="M717.793 322.438C718.955 321.355 718.635 319.45 717.212 318.788C715.609 318.046 713.825 319.39 714.086 321.134C714.326 322.92 716.47 323.662 717.793 322.438Z" fill="#FFCF2D" stroke="#FE5244" stroke-width="2" stroke-miterlimit="10" stroke-linejoin="round"/>
<path d="M657.352 237.376C656.27 236.213 654.366 236.534 653.705 237.958C652.964 239.562 654.306 241.347 656.05 241.087C657.833 240.826 658.575 238.68 657.352 237.376Z" fill="#FFCF2D" stroke="#FE5244" stroke-width="2" stroke-miterlimit="10" stroke-linejoin="round"/>
<path d="M660.939 185.348C659.857 184.185 657.953 184.505 657.292 185.93C656.551 187.534 657.893 189.319 659.637 189.058C661.42 188.798 662.162 186.652 660.939 185.348Z" fill="#FFCF2D" stroke="#FE5244" stroke-width="2" stroke-miterlimit="10" stroke-linejoin="round"/>
<path d="M695.569 185.348C694.487 184.185 692.583 184.505 691.921 185.93C691.18 187.534 692.523 189.319 694.266 189.058C696.05 188.798 696.791 186.652 695.569 185.348Z" fill="#FFCF2D" stroke="#FE5244" stroke-width="2" stroke-miterlimit="10" stroke-linejoin="round"/>
<path d="M695.629 207.812C694.166 208.393 693.745 210.279 694.847 211.422C696.07 212.686 698.214 212.104 698.615 210.379C699.016 208.634 697.292 207.15 695.629 207.812Z" fill="#FFCF2D" stroke="#FE5244" stroke-width="2" stroke-miterlimit="10" stroke-linejoin="round"/>
<path d="M675.95 195.015C674.426 195.457 673.845 197.282 674.807 198.525C675.909 199.909 678.094 199.528 678.655 197.863C679.236 196.159 677.653 194.514 675.95 195.015Z" fill="#FFCF2D" stroke="#FE5244" stroke-width="2" stroke-miterlimit="10" stroke-linejoin="round"/>
<path d="M673.043 250.573C671.48 250.754 670.599 252.479 671.36 253.863C672.222 255.407 674.446 255.387 675.268 253.823C676.11 252.238 674.827 250.373 673.043 250.573Z" fill="#FFCF2D" stroke="#FE5244" stroke-width="2" stroke-miterlimit="10" stroke-linejoin="round"/>
<path d="M655.869 292.353C654.306 292.533 653.424 294.258 654.186 295.642C655.047 297.187 657.272 297.167 658.094 295.602C658.935 294.018 657.653 292.152 655.869 292.353Z" fill="#FFCF2D" stroke="#FE5244" stroke-width="2" stroke-miterlimit="10" stroke-linejoin="round"/>
<path d="M661.641 211.583C660.118 212.024 659.537 213.849 660.499 215.093C661.601 216.477 663.785 216.095 664.346 214.431C664.928 212.746 663.364 211.101 661.641 211.583Z" fill="#FFCF2D" stroke="#FE5244" stroke-width="2" stroke-miterlimit="10" stroke-linejoin="round"/>
<path d="M678.234 222.815C676.711 223.256 676.129 225.081 677.091 226.325C678.194 227.709 680.378 227.328 680.939 225.663C681.52 223.958 679.957 222.313 678.234 222.815Z" fill="#FFCF2D" stroke="#FE5244" stroke-width="2" stroke-miterlimit="10" stroke-linejoin="round"/>
<path d="M642.302 222.333C643.304 221.11 642.763 219.264 641.24 218.803C639.557 218.282 637.954 219.846 638.455 221.531C638.956 223.256 641.16 223.717 642.302 222.333Z" fill="#FFCF2D" stroke="#FE5244" stroke-width="2" stroke-miterlimit="10" stroke-linejoin="round"/>
<path d="M718.274 222.393C719.276 221.17 718.735 219.325 717.212 218.863C715.528 218.342 713.925 219.906 714.426 221.591C714.907 223.316 717.132 223.777 718.274 222.393Z" fill="#FFCF2D" stroke="#FE5244" stroke-width="2" stroke-miterlimit="10" stroke-linejoin="round"/>
<path d="M698.996 303.705C699.998 302.482 699.456 300.637 697.933 300.175C696.25 299.654 694.647 301.218 695.148 302.903C695.629 304.608 697.853 305.069 698.996 303.705Z" fill="#FFCF2D" stroke="#FE5244" stroke-width="2" stroke-miterlimit="10" stroke-linejoin="round"/>
<path d="M683.003 176.764C682.562 176.784 682.122 176.804 681.661 176.824L662.102 178.027C657.112 178.328 652.342 179.672 648.013 181.898L642.001 163.887L668.795 144.231L683.003 176.764Z" fill="#E6A19B"/>
<path d="M647.933 181.618C653.504 179.09 657.953 174.598 660.478 169.022L670.218 147.46L668.795 144.211L642.001 163.867L647.933 181.618Z" fill="#BA6F69"/>
<path d="M670.518 146.036C670.518 147.901 669.757 149.586 668.534 150.809C667.312 152.033 665.628 152.795 663.765 152.795H657.873C655.548 161.841 646.55 168.038 636.871 166.334L632.442 165.551C627.593 164.689 624.286 160.156 624.967 155.282L630.158 129.268C631.059 123.712 636.771 120.323 642.081 122.228L650.679 125.678C655.328 127.282 658.454 131.655 658.454 136.569V139.076L663.765 139.277C667.492 139.277 670.518 142.305 670.518 146.036Z" fill="#E6A19B"/>
<path d="M660.539 147.339C660.539 144.752 662.623 142.666 665.208 142.666" stroke="black" stroke-width="1.5" stroke-miterlimit="10" stroke-linecap="round"/>
<path d="M633.043 134.744C633.043 134.744 637.252 134.744 640.258 138.775" stroke="black" stroke-width="1.5" stroke-miterlimit="10" stroke-linecap="round"/>
<path d="M635.84 142.25C636.052 141.084 635.782 140.059 635.238 139.96C634.694 139.861 634.08 140.726 633.869 141.892C633.657 143.058 633.927 144.084 634.471 144.183C635.016 144.282 635.629 143.417 635.84 142.25Z" fill="black"/>
<path d="M663.765 139.277C667.492 139.277 670.518 142.305 670.518 146.036C670.518 146.056 670.518 146.096 670.518 146.136C673.524 141.503 680.899 129.709 680.899 125.718C680.899 120.363 674.226 115.008 667.312 117.455C667.773 117.114 668.254 116.753 668.755 116.371C671.42 114.286 672.823 112.721 673.043 111.598C673.123 111.197 673.063 110.836 672.863 110.555C672.061 109.412 671.18 108.91 670.238 109.071C668.855 109.291 667.432 110.996 666.009 114.125C665.368 115.549 664.867 116.953 664.586 117.816C664.025 114.466 661.32 103.374 649.697 105.079C645.689 105.661 643.805 107.326 643.284 109.151C639.957 106.543 635.508 104.498 631.821 106.443C625.448 109.793 626.23 115.288 629.917 119.179C626.43 119.119 623.985 120.142 623.985 123.091C623.985 125.798 626.771 127.102 630.599 127.624C634.426 128.145 639.336 127.864 643.584 127.383C646.611 127.042 649.336 126.621 651.079 126.32C649.917 128.707 649.456 130.752 649.556 132.477C649.737 136.048 652.322 138.154 655.969 138.896C656.751 139.056 657.592 139.156 658.454 139.197L663.765 139.277ZM670.358 109.873C670.418 109.853 670.478 109.853 670.558 109.853C671.119 109.853 671.661 110.254 672.202 111.016C672.242 111.096 672.302 111.217 672.262 111.437C671.941 113.062 667.833 116.151 665.448 117.775C666.39 115.008 668.374 110.214 670.358 109.873Z" fill="#312113"/>
<path d="M647.773 115.81C646.39 115.81 644.987 115.068 643.965 113.764C642.823 112.32 642.442 110.535 642.923 108.991C642.983 108.79 643.184 108.67 643.384 108.71C643.464 108.71 643.545 108.73 643.605 108.79C646.631 110.956 649.056 114.045 648.695 115.269C648.615 115.589 648.354 115.79 648.013 115.81C647.933 115.81 647.853 115.81 647.773 115.81ZM643.565 109.753C643.384 110.916 643.745 112.2 644.587 113.263C645.488 114.406 646.731 115.068 647.933 114.988C647.973 114.466 646.631 112.079 643.565 109.753Z" fill="#312113"/>
<path d="M608.214 292.915H479.958C476.792 292.915 474.888 289.425 476.571 286.757L493.645 259.921C495.87 256.431 499.698 254.325 503.826 254.325H590.639L608.214 292.915Z" fill="#E6A19B"/>
<path d="M506.651 254.345L516.872 237.497C517.473 236.494 518.575 235.872 519.737 235.872C522.363 235.872 523.966 238.74 522.603 240.987L514.487 254.345H506.651Z" fill="#BE3D32"/>
<path d="M608.214 292.915H579.376C579.316 292.854 579.236 292.774 579.176 292.714C572.162 285.494 569.176 274.542 573.124 263.992L577.232 254.325H590.639L608.214 292.915Z" fill="#BA6F69"/>
<path d="M498.074 274.903H482.002C480.92 274.903 479.918 275.485 479.377 276.428L477.674 279.396C476.531 281.402 477.974 283.909 480.299 283.909H493.225C495.469 283.909 497.553 282.746 498.736 280.82L500.118 278.554C501.08 276.949 499.938 274.903 498.074 274.903Z" fill="#E6A19B"/>
<path d="M493.926 283.909H477.854C476.772 283.909 475.77 284.49 475.229 285.433L473.525 288.401C472.383 290.407 473.826 292.914 476.151 292.914H489.076C491.321 292.914 493.405 291.751 494.587 289.826L495.97 287.559C496.952 285.955 495.79 283.909 493.926 283.909Z" fill="#E6A19B"/>
<path d="M502.663 265.777H486.591C485.509 265.777 484.507 266.359 483.966 267.302L482.263 270.27C481.12 272.276 482.563 274.783 484.888 274.783H497.814C500.058 274.783 502.142 273.62 503.325 271.694L504.707 269.428C505.689 267.823 504.527 265.777 502.663 265.777Z" fill="#E6A19B"/>
<path d="M498.074 274.903H482.002C480.92 274.903 479.918 275.485 479.377 276.428L477.674 279.396C476.531 281.402 477.974 283.909 480.299 283.909H493.225C495.469 283.909 497.553 282.746 498.736 280.82L500.118 278.554C501.08 276.949 499.938 274.903 498.074 274.903Z" stroke="#BA6F69" stroke-width="1.2" stroke-miterlimit="10" stroke-linecap="round"/>
<path d="M493.926 283.909H477.854C476.772 283.909 475.77 284.49 475.229 285.433L473.525 288.401C472.383 290.407 473.826 292.914 476.151 292.914H489.076C491.321 292.914 493.405 291.751 494.587 289.826L495.97 287.559C496.952 285.955 495.79 283.909 493.926 283.909Z" stroke="#BA6F69" stroke-width="1.2" stroke-miterlimit="10" stroke-linecap="round"/>
<path d="M502.663 265.777H486.591C485.509 265.777 484.507 266.359 483.966 267.302L482.263 270.27C481.12 272.276 482.563 274.783 484.888 274.783H497.814C500.058 274.783 502.142 273.62 503.325 271.694L504.707 269.428C505.689 267.823 504.527 265.777 502.663 265.777Z" stroke="#BA6F69" stroke-width="1.2" stroke-miterlimit="10" stroke-linecap="round"/>
<path d="M525.93 279.195C521.1 279.195 516.451 277.45 512.804 274.261L506.711 268.926H501.1L499.657 270.47C497.072 273.238 493.886 274.823 490.098 274.823H487.413C486.01 274.823 485.148 273.258 485.91 272.075L492.663 261.485H525.95V279.195H525.93Z" fill="#E6A19B"/>
<path d="M492.663 261.485L485.91 272.075C485.148 273.258 486.01 274.823 487.413 274.823H490.098C493.886 274.823 497.072 273.258 499.657 270.47L501.1 268.926H506.711L512.804 274.261C516.431 277.43 521.1 279.195 525.93 279.195" stroke="#BA6F69" stroke-width="1.2" stroke-miterlimit="10" stroke-linecap="round"/>
<path d="M637.593 245.162C642.619 249.4 650.143 254.016 660.258 255.755L630.266 289.292L630.266 289.292C623.928 296.386 614.865 300.437 605.348 300.437C586.623 300.437 573.659 281.739 580.222 264.178L616.57 178.704L616.745 178.292L616.354 178.072L604.104 171.212C602.527 169.961 601.766 167.933 602.113 165.959L602.113 165.959L602.115 165.946L604.197 151.9C604.793 149.031 607.769 146.696 610.75 146.002C610.751 146.002 610.751 146.002 610.752 146.002L625.138 142.753L625.139 142.753C626.02 142.55 626.816 143.301 626.679 144.164L624.597 155.008L624.595 155.016L624.593 155.025C623.727 160.612 627.501 165.421 633.039 166.365C637.081 167.058 639.971 171.145 639.601 175.277L629.804 236.435L629.816 236.437C629.805 236.51 629.803 236.579 629.807 236.608C629.812 236.632 629.823 236.671 629.828 236.685C629.837 236.71 629.846 236.73 629.85 236.736C629.857 236.752 629.865 236.766 629.869 236.773C629.878 236.789 629.889 236.807 629.9 236.825C629.922 236.861 629.954 236.911 629.995 236.973C630.076 237.096 630.197 237.273 630.357 237.497C630.677 237.945 631.157 238.582 631.797 239.354C633.078 240.897 635.006 242.98 637.593 245.162ZM625.028 142.266L625.027 142.265L625.028 142.266Z" fill="#E6A19B" stroke="black"/>
<path d="M637.773 189.881L625.949 266.72" stroke="#BA6F69" stroke-width="1.2" stroke-miterlimit="10" stroke-linecap="round"/>
<path d="M613.264 152.835L613.104 157.81C613.044 159.855 614.266 161.661 616.03 162.162L634.446 165.893" stroke="#BA6F69" stroke-width="1.2" stroke-miterlimit="10" stroke-linecap="round"/>
<path d="M646.971 167.497L632.242 165.532C627.392 164.669 624.086 160.136 624.767 155.262L626.671 144.371C626.851 143.349 625.929 142.486 624.927 142.727L609.897 146.237" stroke="#BA6F69" stroke-width="1.2" stroke-miterlimit="10" stroke-linecap="round"/>
<path d="M638.835 280.399L678.674 236.033" stroke="black" stroke-miterlimit="10"/>
<path d="M616.53 178.529H623.564" stroke="#BA6F69" stroke-width="1.2" stroke-miterlimit="10" stroke-linecap="round"/>
<path d="M613.284 154.159V155.764C613.284 157.669 614.667 159.234 616.37 159.234H618.575C619.537 159.234 620.298 158.371 620.298 157.288L620.438 146.818C620.458 145.194 618.735 144.191 617.332 144.532" stroke="#BA6F69" stroke-width="1.2" stroke-miterlimit="10" stroke-linecap="round"/>
<path d="M620.438 154.159V155.764C620.438 157.669 621.821 159.234 623.525 159.234H624.927" stroke="#BA6F69" stroke-width="1.2" stroke-miterlimit="10" stroke-linecap="round"/>
<path d="M753.524 407.12L776.791 600.912" stroke="#66B0F0" stroke-width="6" stroke-miterlimit="10"/>
<path d="M652.683 407.12L629.417 600.912" stroke="#66B0F0" stroke-width="6" stroke-miterlimit="10"/>
<path d="M637.393 534.362H768.795" stroke="#66B0F0" stroke-width="6" stroke-miterlimit="10"/>
<path d="M639.276 407.721H765.728C767.412 407.721 768.775 406.357 768.775 404.673V400.541C768.775 398.856 767.412 397.492 765.728 397.492H639.276C637.593 397.492 636.23 398.856 636.23 400.541V404.673C636.23 406.357 637.593 407.721 639.276 407.721Z" fill="white" stroke="#FFCF2D" stroke-width="3" stroke-miterlimit="10"/>
<path d="M432.412 260.976L413.053 300.849H354.557L378.064 260.976H432.412Z" fill="white" stroke="black" stroke-miterlimit="10"/>
<path d="M419.586 270.703C419.586 270.703 417.041 266.351 410.929 267.474C406.36 268.296 400.949 272.067 397.622 270.041C394.296 268.016 391.35 265.488 387.041 266.692C382.733 267.895 379.546 270.202 379.546 270.202" stroke="black" stroke-miterlimit="10"/>
<path d="M417.582 276.921C417.582 276.921 415.037 272.569 408.925 273.692C404.356 274.514 398.945 278.285 395.619 276.259C392.292 274.233 389.346 271.706 385.037 272.91C380.729 274.113 377.542 276.42 377.542 276.42" stroke="black" stroke-miterlimit="10"/>
<path d="M454.416 439.925C454.416 445.281 439.566 449.613 420.969 449.613C402.372 449.613 387.963 445.281 387.963 439.925C387.963 434.57 402.372 430.238 420.969 430.238C439.566 430.238 454.416 434.59 454.416 439.925Z" fill="#FE5244"/>
<path d="M445.859 433.407V502.604L443.755 492.616C441.49 481.865 432.012 474.183 421.03 474.183C417.723 474.183 414.477 474.885 411.531 476.209C411.43 476.249 411.33 476.309 411.21 476.349L403.495 448.189L399.206 432.524C405.078 431.1 412.673 430.238 420.969 430.238C430.829 430.238 439.707 431.461 445.859 433.407Z" fill="#E6A19B"/>
<path d="M445.859 433.407V446.444C439.707 448.39 430.829 449.613 420.969 449.613C414.577 449.613 408.605 449.092 403.495 448.209L399.206 432.545C405.078 431.12 412.673 430.258 420.969 430.258C430.829 430.238 439.707 431.461 445.859 433.407Z" fill="#BA6F69"/>
<path d="M444.376 500.578C444.917 500.739 450.007 502.163 454.516 502.163C456.961 502.163 459.225 501.742 460.508 500.458C461.61 499.355 461.871 497.75 461.29 495.725C460.769 493.92 459.767 492.796 458.304 492.395C455.618 491.673 451.891 493.679 448.945 495.785C453.534 490.209 458.063 483.129 456.38 478.496C455.779 476.851 454.416 475.748 452.713 475.547C451.29 475.387 449.967 475.888 449.346 476.831C446.46 481.223 444.095 499.255 443.995 500.017L444.376 500.578ZM450.187 477.392C450.548 476.851 451.31 476.53 452.191 476.53C452.332 476.53 452.472 476.53 452.612 476.55C453.254 476.63 454.797 476.991 455.458 478.837C455.899 480.06 456.059 482.306 454.276 486.077C452.592 489.647 449.546 493.839 445.218 498.593C445.859 494.02 447.903 480.862 450.187 477.392ZM459.807 499.756C458.484 501.08 455.478 501.481 451.089 500.919C448.785 500.619 446.64 500.137 445.498 499.836C446.36 499.074 447.963 497.69 449.827 496.407C453.394 493.94 456.24 492.877 458.063 493.378C459.165 493.679 459.907 494.541 460.348 496.005C460.829 497.69 460.648 498.914 459.807 499.756Z" fill="#FFCF2D"/>
<path d="M403.695 481.965L399.065 487.16C393.815 493.057 392.953 501.641 396.941 508.461L417.322 543.44C421.31 550.28 428.625 554.472 436.52 554.472H444.957C451.069 554.472 455.618 548.856 454.356 542.879L443.735 492.636C441.47 481.885 431.991 474.203 421.009 474.203C414.416 474.183 408.104 477.011 403.695 481.965Z" fill="white" stroke="#3FB1B5" stroke-miterlimit="10"/>
<path d="M419.466 497.089L445.778 548.114C447.021 550.42 448.564 551.905 450.328 552.847C448.805 553.87 446.961 554.492 444.957 554.492H436.52C428.604 554.492 421.29 550.28 417.322 543.461L396.941 508.461C396.119 507.037 395.498 505.553 395.077 504.008C392.192 493.278 404.396 484.854 413.554 491.152C415.638 492.576 417.682 494.501 419.466 497.089Z" fill="#3FB1B5"/>
<path d="M419.526 497.209H395.238C395.358 496.827 395.498 496.466 395.659 496.125H418.745C418.985 496.446 419.226 496.767 419.466 497.108L419.526 497.209Z" fill="white"/>
<path d="M423.093 504.108H395.117C395.117 504.068 395.097 504.028 395.097 504.008C395.017 503.687 394.937 503.346 394.877 503.025H422.552L423.093 504.108Z" fill="white"/>
<path d="M426.66 511.028H398.444L397.803 509.925H426.099L426.66 511.028Z" fill="white"/>
<path d="M430.228 517.948H402.472L401.831 516.845H429.667L430.228 517.948Z" fill="white"/>
<path d="M433.795 524.847H406.5L405.859 523.764H433.234L433.795 524.847Z" fill="white"/>
<path d="M437.362 531.767H410.528L409.887 530.664H436.78L437.362 531.767Z" fill="white"/>
<path d="M440.929 538.687H414.556L413.915 537.583H440.348L440.929 538.687Z" fill="white"/>
<path d="M444.476 545.587H418.744C418.484 545.226 418.223 544.864 417.983 544.503H443.915L444.476 545.587Z" fill="white"/>
<path d="M449.747 552.506H427.382C426.661 552.185 425.959 551.824 425.278 551.423H448.304C448.765 551.824 449.246 552.185 449.747 552.506Z" fill="white"/>
<path d="M372.332 438.502C372.152 443.797 357.142 448.089 338.665 448.089C320.188 448.089 305.178 443.817 304.998 438.502V396.803H372.332V438.502Z" fill="#FE5244"/>
<path d="M367.863 445.421L367.763 450.375L366.801 498.733V497.329C366.801 484.914 356.741 474.845 344.336 474.845H342.973C336.641 474.845 330.929 477.312 326.701 481.284L323.755 461.347L321.931 449.012C326.861 449.834 332.572 450.295 338.645 450.295C351.149 450.275 362.031 448.31 367.863 445.421Z" fill="#E6A19B"/>
<path d="M367.863 445.421L367.763 450.375C360.308 455.671 337.282 462.189 323.775 461.327L321.951 448.992C326.881 449.794 332.592 450.275 338.665 450.275C351.149 450.275 362.031 448.31 367.863 445.421Z" fill="#BA6F69"/>
<path d="M345.358 555.134H349.085C358.865 555.134 366.801 547.191 366.801 537.403V497.329C366.801 484.914 356.741 474.845 344.336 474.845H342.973C328.544 474.845 317.422 487.582 319.366 501.902L324.076 536.561C325.538 547.191 334.617 555.134 345.358 555.134Z" fill="white" stroke="#3FB1B5" stroke-miterlimit="10"/>
<path d="M361.229 550.3C358.063 553.289 353.775 555.134 349.085 555.134H345.358C334.616 555.134 325.538 547.191 324.095 536.561L319.386 501.902C319.306 501.24 319.226 500.578 319.206 499.937C320.408 492.255 327.041 486.378 335.057 486.378C339.005 486.378 342.652 487.822 345.478 490.229C348.304 492.636 350.288 496.025 350.909 499.937L357.101 542.237C357.562 545.386 359.045 548.194 361.229 550.3Z" fill="#3FB1B5"/>
<path d="M349.045 494.582H321.049C321.25 494.201 321.49 493.84 321.731 493.499H348.384C348.624 493.84 348.845 494.201 349.045 494.582Z" fill="white"/>
<path d="M351.129 501.482H319.326C319.286 501.12 319.246 500.759 319.226 500.398H350.969L351.129 501.482Z" fill="white"/>
<path d="M352.151 508.401H320.268L320.107 507.318H351.991L352.151 508.401Z" fill="white"/>
<path d="M353.153 515.321H321.21L321.049 514.218H352.993L353.153 515.321Z" fill="white"/>
<path d="M354.175 522.22H322.152L321.991 521.137H354.015L354.175 522.22Z" fill="white"/>
<path d="M355.177 529.14H323.073L322.933 528.057H355.017L355.177 529.14Z" fill="white"/>
<path d="M356.2 536.06H324.015L323.875 534.957H356.039L356.2 536.06Z" fill="white"/>
<path d="M357.221 542.96H325.999C325.819 542.599 325.658 542.237 325.518 541.876H357.041L357.101 542.237C357.141 542.478 357.181 542.719 357.221 542.96Z" fill="white"/>
<path d="M360.809 549.879H331.29C330.889 549.538 330.488 549.157 330.127 548.796H359.887C360.167 549.177 360.488 549.538 360.809 549.879Z" fill="white"/>
<path d="M386.901 221.764V255.541C385.438 251.71 373.855 252.251 361.11 257.085C350.188 261.237 341.991 266.933 340.789 270.884V223.349C340.789 209.209 348.344 196.573 359.947 189.673C375.017 192.3 386.901 205.438 386.901 221.764Z" fill="#FFCF2D"/>
<path d="M339.907 191.197C329.647 198.338 323.114 210.191 323.114 223.349V262.561H266.06L273.936 228.624C277.282 214.163 287.743 202.63 301.371 197.716L339.907 191.197Z" fill="#FFCF2D"/>
<path d="M455.298 359.035V437.76C455.298 432.404 439.566 428.072 420.969 428.072C402.372 428.072 387.302 432.404 387.302 437.76V400.032C387.302 398.267 385.859 396.823 384.095 396.823H281.811C251.05 396.823 228.305 368.161 235.258 338.176L259.948 231.713C263.876 214.724 277.623 201.787 294.797 198.859L301.37 197.736C287.743 202.65 277.282 214.183 273.936 228.644L266.06 262.58H323.114V223.349C323.114 210.191 329.667 198.317 339.907 191.197L348.925 189.673C350.789 189.352 352.613 189.211 354.436 189.211C354.677 189.211 354.897 189.211 355.138 189.211C355.358 189.211 355.579 189.231 355.779 189.231C355.819 189.231 355.859 189.231 355.899 189.231C356.06 189.231 356.24 189.252 356.4 189.252C356.42 189.252 356.46 189.252 356.48 189.252C356.581 189.252 356.681 189.272 356.761 189.272C356.941 189.292 357.102 189.292 357.282 189.312C357.482 189.332 357.703 189.352 357.903 189.372C358.104 189.392 358.284 189.412 358.484 189.432C358.524 189.432 358.565 189.452 358.625 189.452C358.825 189.472 359.045 189.512 359.246 189.532C359.266 189.532 359.286 189.532 359.286 189.532C359.506 189.572 359.727 189.593 359.947 189.633C348.344 196.532 340.789 209.168 340.789 223.309V319.683H416.019C437.702 319.723 455.298 337.313 455.298 359.035Z" fill="#FE5244"/>
<path d="M341.21 190.314C330.95 197.455 323.094 210.191 323.094 223.349V262.56H266.04L273.916 228.624C277.262 214.162 286.842 202.409 300.489 197.495" stroke="black" stroke-width="1.5" stroke-miterlimit="10" stroke-linecap="round"/>
<path d="M387.302 387.938C387.302 376.766 391.25 365.955 398.444 357.431" stroke="black" stroke-miterlimit="10" stroke-linecap="round"/>
<path d="M303.955 383.946C303.855 383.946 303.755 383.926 303.675 383.866L301.029 382.422C300.729 382.262 300.629 381.901 300.789 381.6C300.949 381.299 301.31 381.199 301.611 381.359L304.256 382.803C304.557 382.964 304.657 383.325 304.496 383.625C304.376 383.826 304.176 383.946 303.955 383.946ZM306.601 383.264C306.38 383.264 306.18 383.144 306.08 382.943C305.919 382.643 306.019 382.282 306.32 382.121L308.965 380.677C309.266 380.517 309.627 380.637 309.787 380.918C309.947 381.219 309.847 381.58 309.546 381.74L306.901 383.184C306.801 383.224 306.701 383.264 306.601 383.264ZM298.665 381.078C298.565 381.078 298.464 381.058 298.384 380.998L295.739 379.554C295.438 379.393 295.338 379.032 295.498 378.731C295.659 378.431 296.019 378.33 296.32 378.491L298.965 379.935C299.266 380.095 299.366 380.456 299.206 380.757C299.086 380.958 298.885 381.078 298.665 381.078ZM311.871 380.376C311.651 380.376 311.45 380.256 311.35 380.055C311.19 379.754 311.29 379.393 311.591 379.233L314.236 377.789C314.697 377.548 315.118 377.267 315.538 376.966C315.799 376.766 316.18 376.826 316.38 377.087C316.581 377.348 316.52 377.729 316.26 377.929C315.799 378.27 315.318 378.571 314.817 378.852L312.172 380.296C312.072 380.356 311.971 380.376 311.871 380.376ZM293.434 378.11C293.314 378.11 293.194 378.07 293.074 377.989C292.232 377.368 291.45 376.646 290.789 375.823C290.569 375.562 290.609 375.181 290.869 374.981C291.13 374.76 291.51 374.8 291.711 375.061C292.312 375.803 293.013 376.445 293.775 377.007C294.035 377.207 294.096 377.588 293.915 377.849C293.815 378.03 293.635 378.11 293.434 378.11ZM318.063 376.004C317.923 376.004 317.803 375.964 317.683 375.863C317.422 375.663 317.382 375.282 317.603 375.021C318.204 374.279 318.705 373.477 319.106 372.594C319.246 372.293 319.607 372.153 319.907 372.293C320.208 372.434 320.348 372.795 320.208 373.095C319.767 374.058 319.206 374.961 318.544 375.763C318.404 375.924 318.244 376.004 318.063 376.004ZM289.667 373.517C289.446 373.517 289.226 373.396 289.126 373.176C288.685 372.213 288.364 371.21 288.164 370.167C288.104 369.846 288.324 369.525 288.645 369.465C288.965 369.405 289.286 369.626 289.346 369.946C289.527 370.889 289.807 371.792 290.208 372.654C290.348 372.955 290.208 373.316 289.907 373.456C289.827 373.497 289.747 373.517 289.667 373.517ZM320.548 370.588C320.508 370.588 320.468 370.588 320.448 370.588C320.128 370.528 319.907 370.207 319.967 369.886C320.088 369.224 320.148 368.563 320.148 367.901V366.998C320.148 366.657 320.408 366.396 320.749 366.396C321.09 366.396 321.35 366.657 321.35 366.998V367.901C321.35 368.643 321.29 369.385 321.15 370.107C321.09 370.388 320.829 370.588 320.548 370.588ZM288.565 367.66C288.224 367.66 287.963 367.399 287.963 367.058V364.05C287.963 363.709 288.224 363.448 288.565 363.448C288.905 363.448 289.166 363.709 289.166 364.05V367.058C289.166 367.379 288.885 367.66 288.565 367.66ZM320.729 364.591C320.388 364.591 320.128 364.33 320.128 363.989V360.981C320.128 360.64 320.388 360.379 320.729 360.379C321.069 360.379 321.33 360.64 321.33 360.981V363.989C321.33 364.33 321.069 364.591 320.729 364.591ZM288.565 361.643C288.224 361.643 287.963 361.382 287.963 361.041V358.033C287.963 357.692 288.224 357.431 288.565 357.431C288.905 357.431 289.166 357.692 289.166 358.033V361.041C289.166 361.362 288.885 361.643 288.565 361.643ZM320.729 358.574C320.388 358.574 320.128 358.313 320.128 357.972V354.964C320.128 354.623 320.388 354.362 320.729 354.362C321.069 354.362 321.33 354.623 321.33 354.964V357.972C321.33 358.313 321.069 358.574 320.729 358.574ZM288.565 355.626C288.224 355.626 287.963 355.365 287.963 355.024V352.015C287.963 351.674 288.224 351.414 288.565 351.414C288.905 351.414 289.166 351.674 289.166 352.015V355.024C289.166 355.345 288.885 355.626 288.565 355.626ZM320.729 352.557C320.388 352.557 320.128 352.296 320.128 351.955V348.947C320.128 348.606 320.388 348.345 320.729 348.345C321.069 348.345 321.33 348.606 321.33 348.947V351.955C321.33 352.296 321.069 352.557 320.729 352.557ZM288.565 349.609C288.224 349.609 287.963 349.348 287.963 349.007V346.419H289.587C289.927 346.419 290.188 346.68 290.188 347.021C290.188 347.362 289.927 347.623 289.587 347.623H289.166V349.007C289.166 349.328 288.885 349.609 288.565 349.609ZM319.647 347.623H316.641C316.3 347.623 316.039 347.362 316.039 347.021C316.039 346.68 316.3 346.419 316.641 346.419H319.647C319.987 346.419 320.248 346.68 320.248 347.021C320.248 347.362 319.987 347.623 319.647 347.623ZM313.635 347.623H310.629C310.288 347.623 310.027 347.362 310.027 347.021C310.027 346.68 310.288 346.419 310.629 346.419H313.635C313.975 346.419 314.236 346.68 314.236 347.021C314.236 347.362 313.975 347.623 313.635 347.623ZM307.623 347.623H304.617C304.276 347.623 304.015 347.362 304.015 347.021C304.015 346.68 304.276 346.419 304.617 346.419H307.623C307.963 346.419 308.224 346.68 308.224 347.021C308.224 347.362 307.963 347.623 307.623 347.623ZM301.611 347.623H298.605C298.264 347.623 298.003 347.362 298.003 347.021C298.003 346.68 298.264 346.419 298.605 346.419H301.611C301.951 346.419 302.212 346.68 302.212 347.021C302.212 347.362 301.951 347.623 301.611 347.623ZM295.599 347.623H292.593C292.252 347.623 291.991 347.362 291.991 347.021C291.991 346.68 292.252 346.419 292.593 346.419H295.599C295.939 346.419 296.2 346.68 296.2 347.021C296.2 347.362 295.939 347.623 295.599 347.623Z" fill="black"/>
<path d="M247.242 380.617C247.022 380.617 246.821 380.497 246.721 380.296C246.561 379.995 246.661 379.634 246.962 379.474L249.406 378.13C249.467 378.09 249.527 378.07 249.587 378.029C249.867 377.869 250.248 377.969 250.408 378.25C250.569 378.531 250.469 378.912 250.188 379.072C250.128 379.113 250.068 379.153 249.988 379.173L247.543 380.517C247.443 380.597 247.342 380.617 247.242 380.617ZM252.312 377.408C252.152 377.408 251.992 377.348 251.871 377.207C251.651 376.966 251.671 376.585 251.911 376.365C252.613 375.723 253.234 374.981 253.775 374.199C253.956 373.918 254.336 373.858 254.617 374.038C254.897 374.219 254.958 374.6 254.777 374.881C254.196 375.743 253.495 376.545 252.733 377.267C252.593 377.368 252.453 377.408 252.312 377.408ZM255.659 372.474C255.579 372.474 255.519 372.454 255.439 372.434C255.138 372.313 254.978 371.972 255.098 371.651C255.439 370.749 255.679 369.826 255.819 368.883C255.859 368.563 256.16 368.322 256.501 368.362C256.821 368.402 257.062 368.703 257.022 369.044C256.881 370.087 256.621 371.11 256.24 372.093C256.12 372.333 255.899 372.474 255.659 372.474ZM256.521 366.577C256.18 366.577 255.919 366.316 255.919 365.975V362.967C255.919 362.626 256.18 362.365 256.521 362.365C256.861 362.365 257.122 362.626 257.122 362.967V365.975C257.122 366.296 256.861 366.577 256.521 366.577ZM256.521 360.56C256.18 360.56 255.919 360.299 255.919 359.958V356.949C255.919 356.608 256.18 356.348 256.521 356.348C256.861 356.348 257.122 356.608 257.122 356.949V359.958C257.122 360.279 256.861 360.56 256.521 360.56ZM256.521 354.543C256.18 354.543 255.919 354.282 255.919 353.941V350.932C255.919 350.591 256.18 350.331 256.521 350.331C256.861 350.331 257.122 350.591 257.122 350.932V353.941C257.122 354.262 256.861 354.543 256.521 354.543ZM256.521 348.525C256.18 348.525 255.919 348.265 255.919 347.924V347.623H254.416C254.076 347.623 253.815 347.362 253.815 347.021C253.815 346.68 254.076 346.419 254.416 346.419H257.122V347.924C257.122 348.245 256.861 348.525 256.521 348.525ZM251.41 347.623H248.404C248.064 347.623 247.803 347.362 247.803 347.021C247.803 346.68 248.064 346.419 248.404 346.419H251.41C251.751 346.419 252.012 346.68 252.012 347.021C252.012 347.362 251.731 347.623 251.41 347.623ZM245.398 347.623H242.392C242.052 347.623 241.791 347.362 241.791 347.021C241.791 346.68 242.052 346.419 242.392 346.419H245.398C245.739 346.419 246 346.68 246 347.021C246 347.362 245.719 347.623 245.398 347.623ZM239.386 347.623H236.38C236.04 347.623 235.779 347.362 235.779 347.021C235.779 346.68 236.04 346.419 236.38 346.419H239.386C239.727 346.419 239.988 346.68 239.988 347.021C239.988 347.362 239.707 347.623 239.386 347.623Z" fill="black"/>
<path d="M386.901 255.54C388.364 259.371 379.105 266.171 366.38 271.004C353.655 275.838 342.252 276.58 340.789 272.729C339.326 268.878 348.364 261.939 361.11 257.105C373.855 252.271 385.438 251.689 386.901 255.54Z" fill="#FE5244"/>
<path d="M394.015 379.975V382.101C393.354 381.94 392.652 381.86 391.951 381.86H389.366C385.538 381.86 382.272 379.413 381.029 376.003L388.364 375.021C391.35 374.62 394.015 376.946 394.015 379.975Z" fill="#BA6F69"/>
<path d="M400.789 390.705V407.032C400.789 410.843 397.703 413.932 393.895 413.932H386.22C384.316 413.932 382.593 413.169 381.35 411.906C380.108 410.662 379.326 408.937 379.326 407.032H384.316C385.959 407.032 387.282 405.708 387.282 404.063V399.791C387.282 398.147 385.959 396.823 384.316 396.823H358.805C348.845 396.823 340.769 388.74 340.769 378.771V270.904C341.971 266.953 350.168 261.237 361.09 257.105C368.544 254.277 375.619 252.913 380.488 253.033V373.015C380.488 377.909 384.456 381.88 389.346 381.88H391.931C396.821 381.86 400.789 385.811 400.789 390.705Z" fill="#E6A19B"/>
<path d="M380.488 253.013V263.924C376.861 266.371 371.951 268.878 366.36 270.984C353.615 275.818 342.232 276.56 340.769 272.709V270.884C341.971 266.933 350.168 261.217 361.09 257.085C368.565 254.257 375.619 252.893 380.488 253.013Z" fill="#BA6F69"/>
<path d="M347.162 171.762L339.627 191.197L300.789 198.157L310.929 171.762H347.162Z" fill="#E6A19B"/>
<path d="M347.162 171.762L343.094 182.272L304.577 188.289L310.929 171.762H347.162Z" fill="#BA6F69"/>
<path d="M369.927 132.209C369.927 134.836 365.378 137.745 360.128 140.192C352.973 143.541 344.536 146.088 344.536 146.088L338.845 156.819C346.58 160.931 349.607 168.312 350.809 173.466C351.57 176.756 351.57 179.102 351.57 179.102H297.022C297.022 179.102 282.693 132.65 317.222 121.538C338.344 114.739 369.927 125.971 369.927 132.209Z" fill="#1C0606" stroke="black" stroke-miterlimit="10" stroke-linecap="round"/>
<path d="M312.172 128.157C319.664 128.157 325.739 122.078 325.739 114.579C325.739 107.079 319.664 101 312.172 101C304.679 101 298.604 107.079 298.604 114.579C298.604 122.078 304.679 128.157 312.172 128.157Z" fill="#1C0606" stroke="black" stroke-miterlimit="10" stroke-linecap="round"/>
<path d="M350.789 173.466C349.667 168.593 346.861 161.653 339.947 157.461H338.164C336.521 157.461 335.018 156.799 333.935 155.716C332.853 154.633 332.192 153.129 332.192 151.484C332.192 148.174 334.857 145.507 338.164 145.507L345.719 145.667H345.919C346.06 145.627 346.2 145.567 346.36 145.527C348.404 145.086 354.877 143.521 360.248 140.833L360.869 144.544L362.873 156.438C364.236 164.601 358.645 172.123 350.789 173.466Z" fill="#E6A19B"/>
<path d="M360.849 144.524C354.276 147.192 345.699 145.647 345.699 145.647C345.699 145.647 353.775 144.043 360.228 140.813L360.849 144.524Z" fill="#BA6F69"/>
<path d="M342.813 152.627C342.813 150.34 340.97 148.495 338.685 148.495" stroke="#BA6F69" stroke-width="5" stroke-miterlimit="10" stroke-linecap="round"/>
<path d="M364.036 407.032L387.302 600.824" stroke="#66B0F0" stroke-width="6" stroke-miterlimit="10"/>
<path d="M263.174 407.032L239.928 600.824" stroke="#66B0F0" stroke-width="6" stroke-miterlimit="10"/>
<path d="M247.904 534.274H379.306" stroke="#66B0F0" stroke-width="6" stroke-miterlimit="10"/>
<path d="M242.954 407.032H384.256C385.939 407.032 387.302 405.668 387.302 403.983V399.851C387.302 398.167 385.939 396.803 384.256 396.803H242.954C241.27 396.803 239.908 398.167 239.908 399.851V403.983C239.928 405.668 241.29 407.032 242.954 407.032Z" fill="white" stroke="#FFCF2D" stroke-width="3" stroke-miterlimit="10"/>
</svg>
