<svg width="1000" height="700" viewBox="0 0 1000 700" fill="none" xmlns="http://www.w3.org/2000/svg">
<path d="M405.539 610.798H632.739" stroke="#FFCF2D" stroke-width="6" stroke-miterlimit="10" stroke-linecap="round"/>
<path d="M519.059 409.904V498.866C519.059 526.254 533.259 551.683 556.579 566.057L589.399 586.288" stroke="#66B0F0" stroke-width="6" stroke-miterlimit="10" stroke-linecap="round" stroke-linejoin="round"/>
<path d="M501.277 409.904V498.866C501.277 526.254 487.078 551.683 463.758 566.057L430.938 586.288" stroke="#66B0F0" stroke-width="6" stroke-miterlimit="10" stroke-linecap="round" stroke-linejoin="round"/>
<path d="M489.337 409.904H529.358C532.898 409.904 535.758 407.045 535.758 403.507V393.411H482.938V403.507C482.938 407.045 485.797 409.904 489.337 409.904Z" fill="white" stroke="#66B0F0" stroke-width="6" stroke-miterlimit="10"/>
<path d="M590.88 610.798C582.76 610.798 576.18 604.221 576.18 596.104C576.18 587.988 582.76 581.411 590.88 581.411C599 581.411 605.58 587.988 605.58 596.104C605.58 604.221 599 610.798 590.88 610.798Z" fill="white" stroke="#FFCF2D" stroke-miterlimit="10"/>
<path d="M430.618 610.798C422.498 610.798 415.918 604.221 415.918 596.104C415.918 587.988 422.498 581.411 430.618 581.411C438.738 581.411 445.318 587.988 445.318 596.104C445.318 604.221 438.738 610.798 430.618 610.798Z" fill="white" stroke="#FFCF2D" stroke-miterlimit="10"/>
<path d="M430.62 607.699C424.22 607.699 419.02 602.502 419.02 596.104C419.02 589.707 424.22 584.509 430.62 584.509C437.02 584.509 442.22 589.707 442.22 596.104C442.22 602.502 437.02 607.699 430.62 607.699Z" fill="white" stroke="#FFCF2D" stroke-width="6" stroke-miterlimit="10"/>
<path d="M590.819 607.699C584.419 607.699 579.219 602.502 579.219 596.104C579.219 589.707 584.419 584.509 590.819 584.509C597.219 584.509 602.419 589.707 602.419 596.104C602.419 602.502 597.219 607.699 590.819 607.699Z" fill="white" stroke="#FFCF2D" stroke-width="6" stroke-miterlimit="10"/>
<path d="M488.559 541.847C488.559 541.847 507.599 527.893 531.819 541.847" stroke="#66B0F0" stroke-width="6" stroke-miterlimit="10" stroke-linecap="round" stroke-linejoin="round"/>
<path d="M603.042 404.138L603.039 404.146L603.037 404.154L556.518 573.114H500.75L519.096 385.494C522.046 364.512 539.874 348.931 560.898 348.99H560.899H564.899C593.262 349.05 611.534 376.792 603.042 404.138Z" fill="#31A1A9" stroke="black"/>
<path d="M511.279 573.614H541.159L536.459 588.987C530.559 583.11 522.339 578.871 513.359 578.332C512.519 578.272 511.699 578.252 510.879 578.252L511.279 573.614Z" fill="#E57281"/>
<path d="M545.559 610.678C547.119 596.204 531.838 579.451 513.338 578.312C494.838 577.172 483.419 589.387 482.519 603.901C482.379 606.1 482.178 608.779 482.658 610.738L545.559 610.678Z" fill="white" stroke="black" stroke-width="2" stroke-miterlimit="10"/>
<path d="M483.059 605.42L545.559 606.16" stroke="black" stroke-width="2" stroke-miterlimit="10"/>
<path d="M534.72 573.614L582.02 544.826L476.26 367.722C462.88 346.511 428.92 339.954 407.5 352.989C382.8 368.022 377.96 401.828 397.44 423.179L534.72 573.614Z" fill="#3FB1B5"/>
<path d="M534.919 572.814L582.419 544.427L476.459 367.722C463.079 346.511 429.119 339.954 407.699 352.989C382.999 368.022 378.159 401.828 397.639 423.179L534.919 572.814Z" stroke="black" stroke-miterlimit="10"/>
<path d="M581.28 543.567C579.18 540.088 566.88 543.627 553.8 551.503C540.72 559.36 531.86 568.836 533.96 572.314C536.06 575.793 548.32 571.975 561.4 564.118C574.46 556.261 583.36 547.065 581.28 543.567Z" fill="#69302B"/>
<path d="M578.398 566.077L556.318 579.951L550.078 572.954L548.178 570.815L540.258 561.939C543.658 558.46 548.318 554.782 553.818 551.503C558.258 548.845 562.638 546.726 566.598 545.286L572.778 556.141L574.138 558.52L578.398 566.077Z" fill="#E57281"/>
<path d="M613.239 581.131L558.239 610.778C556.859 609.298 555.679 607.559 554.739 605.58C553.939 603.921 553.319 602.182 552.839 600.422C549.599 588.267 554.179 574.334 568.799 567.376C581.699 561.239 597.759 564.758 607.039 572.834C609.779 575.253 611.939 578.072 613.239 581.131Z" fill="white" stroke="black" stroke-width="2" stroke-miterlimit="10"/>
<path d="M610.301 576.633L555.281 606.28" stroke="black" stroke-width="2" stroke-miterlimit="10" stroke-linecap="round"/>
<path d="M572.74 556.122C569.58 558.761 565.7 561.519 561.36 564.118C556.72 566.917 552.16 569.196 548.14 570.815L539.82 561.939C543.22 558.461 548.28 554.782 553.78 551.504C558.22 548.845 562.6 546.526 566.56 545.086L572.74 556.122Z" fill="#BA6F69"/>
<path d="M580.058 540.488C577.958 537.01 564.678 540.468 551.378 548.465C538.078 556.461 529.638 565.837 531.738 569.316" stroke="white" stroke-width="6" stroke-miterlimit="10"/>
<path d="M764.181 393.411C769.401 393.411 773.641 389.173 773.641 383.955V347.77C773.641 342.553 769.401 338.314 764.181 338.314H238.101C232.881 338.314 228.641 342.553 228.641 347.77V383.955C228.641 389.173 232.881 393.411 238.101 393.411H764.181Z" fill="#9A3B82"/>
<path d="M764.021 330.118H238.241C233.021 330.118 228.781 334.356 228.781 339.574V375.759C228.781 380.976 233.021 385.215 238.241 385.215H764.021C769.241 385.215 773.481 380.976 773.481 375.759V339.574C773.481 334.356 769.241 330.118 764.021 330.118Z" fill="white" stroke="black" stroke-miterlimit="10"/>
<path d="M736.641 385.254V610.878" stroke="#FFCF2D" stroke-width="6" stroke-miterlimit="10" stroke-linecap="round"/>
<path d="M277.66 385.254V610.878" stroke="#FFCF2D" stroke-width="6" stroke-miterlimit="10" stroke-linecap="round"/>
<path d="M260.38 554.722L259.54 555.262L229.02 508.262L219.84 508.962C217.88 509.122 216.32 507.342 216.72 505.403C217.14 503.484 219.28 502.484 221.02 503.444L228.56 507.582L223.02 499.026L213.84 499.746C211.88 499.906 210.32 498.106 210.74 496.187C211.16 494.268 213.3 493.268 215.04 494.228L222.58 498.346L217.04 489.79L207.86 490.51C205.9 490.669 204.34 488.87 204.76 486.951C205.18 485.032 207.32 484.032 209.06 484.992L216.6 489.13L213.26 483.992L207.06 478.695C205.56 477.415 205.72 475.056 207.36 473.977C209.02 472.897 211.24 473.717 211.8 475.616L214.1 483.433L217.54 488.73L216.82 479.934C216.66 477.975 218.44 476.416 220.36 476.815C222.28 477.215 223.28 479.374 222.34 481.094L217.9 489.29L223.52 497.946L222.8 489.17C222.64 487.211 224.42 485.652 226.34 486.051C228.26 486.451 229.26 488.61 228.32 490.33L223.88 498.526L229.5 507.182L228.78 498.406C228.62 496.447 230.4 494.868 232.32 495.287C234.24 495.687 235.24 497.846 234.3 499.566L229.86 507.762L260.38 554.722Z" fill="#9A3B82"/>
<path d="M311.659 538.109C296.999 567.636 277.199 588.168 265.499 586.748C264.539 586.628 263.639 586.368 262.799 585.948C251.679 580.431 255.519 550.064 271.399 518.118C278.199 504.423 286.099 492.689 293.779 484.152C304.039 472.777 313.899 467.119 320.259 470.278C331.379 475.796 327.519 506.163 311.659 538.109Z" fill="#9A3B82"/>
<path d="M293.299 514.779C290.039 552.203 278.059 582.39 265.519 586.748C264.559 586.628 263.659 586.368 262.819 585.949C251.699 580.431 255.539 550.064 271.419 518.118C278.219 504.424 286.119 492.689 293.799 484.152C294.359 493.568 294.239 503.944 293.299 514.779Z" fill="#FFCF2D"/>
<path d="M320.74 470L266 586.47" stroke="black" stroke-miterlimit="10"/>
<path d="M319.22 556.641L311.48 559.24L306.32 562.859L315.08 561.819C317.04 561.579 318.66 563.299 318.34 565.238C318 567.177 315.9 568.257 314.12 567.377L305.76 563.239L297.3 569.176L306.06 568.137C308.02 567.897 309.64 569.616 309.32 571.555C308.98 573.494 306.88 574.574 305.1 573.694L296.74 569.556L288.3 575.493L297.06 574.454C299.02 574.214 300.64 575.933 300.3 577.872C299.96 579.812 297.86 580.891 296.08 580.011L287.72 575.873L272.26 586.729H270.52L287.18 575.034L286.14 565.897C285.92 563.938 287.64 562.319 289.58 562.659C291.52 562.999 292.58 565.118 291.7 566.877L287.84 574.574L296.18 568.716L295.14 559.58C294.92 557.621 296.64 556.002 298.58 556.342C300.52 556.681 301.58 558.801 300.7 560.56L296.86 568.236L305.2 562.379L304.16 553.243C303.94 551.284 305.66 549.664 307.6 550.004C309.54 550.344 310.6 552.463 309.72 554.223L305.86 561.919L310.88 558.401L315.94 552.003C317.16 550.464 319.54 550.524 320.66 552.143C321.84 553.763 321.1 556.022 319.22 556.641Z" fill="#FFCF2D"/>
<path d="M256.479 585.189C255.479 585.529 254.419 585.769 253.339 585.909C240.739 587.548 223.339 575.793 212.819 557.941C201.399 538.549 202.439 519.317 215.139 514.959C219.259 513.54 224.119 513.88 229.159 515.639C239.679 519.297 251.079 529.093 258.799 542.188C270.199 561.599 269.159 580.831 256.479 585.189Z" fill="white" stroke="black" stroke-miterlimit="10"/>
<path d="M256.478 585.189C255.478 585.529 254.418 585.769 253.338 585.909C241.698 580.631 231.578 558.281 229.438 531.133C229.018 525.775 228.938 520.577 229.158 515.639C239.678 519.298 251.078 529.093 258.798 542.188C270.198 561.599 269.158 580.831 256.478 585.189Z" fill="#FFCF2D"/>
<path d="M210.32 517.778L253.32 585.909" stroke="black" stroke-miterlimit="10"/>
<path d="M261.598 587.548C275.516 587.548 286.798 553.993 286.798 512.6C286.798 471.208 275.516 437.652 261.598 437.652C247.681 437.652 236.398 471.208 236.398 512.6C236.398 553.993 247.681 587.548 261.598 587.548Z" fill="white" stroke="black" stroke-miterlimit="10"/>
<path d="M261.598 437.632V587.548" stroke="black" stroke-miterlimit="10"/>
<path d="M277.657 455.605L261.597 477.115L247.977 450.167" stroke="black" stroke-miterlimit="10" stroke-linecap="round"/>
<path d="M282.72 473.817L261.28 503.284L242 466" stroke="black" stroke-miterlimit="10" stroke-linecap="round"/>
<path d="M286.218 494.868L261.238 529.293L238.418 485.312" stroke="black" stroke-miterlimit="10" stroke-linecap="round"/>
<path d="M287.777 522.936L261.357 559.88L236.457 512.66" stroke="black" stroke-miterlimit="10" stroke-linecap="round"/>
<path d="M298.958 610.878H224.178C218.418 610.878 213.738 606.2 213.738 600.443V597.184C213.738 591.427 218.418 586.749 224.178 586.749H298.958C304.718 586.749 309.398 591.427 309.398 597.184V600.443C309.398 606.22 304.718 610.878 298.958 610.878Z" fill="white" stroke="black" stroke-miterlimit="10"/>
<path d="M738.701 351.13C738.701 353.841 736.536 356.027 733.901 356.027H652.441C649.786 356.027 647.641 353.842 647.641 351.13C647.641 348.419 649.805 346.232 652.441 346.232H733.901C736.536 346.232 738.701 348.419 738.701 351.13Z" fill="#FE5244" stroke="black"/>
<path d="M704.821 294.914H671.48V318.104H735.88C731.8 304.35 719.161 294.914 704.821 294.914Z" fill="white" stroke="black" stroke-width="0.5" stroke-miterlimit="10"/>
<path d="M677.48 294.914V318.104L663.68 318.124V294.914H677.48Z" fill="#FFCF2D" stroke="black" stroke-width="0.5" stroke-miterlimit="10"/>
<path d="M786.941 317.644L735.881 318.104C735.881 318.104 748.661 300.791 783.741 305.369C783.741 305.369 756.301 299.652 728.461 305.369" stroke="black" stroke-width="0.5" stroke-miterlimit="10"/>
<path d="M735.879 318.103C735.879 318.103 758.259 305.809 785.539 311.766" stroke="black" stroke-width="0.5" stroke-miterlimit="10"/>
<path d="M741.33 337.076C741.33 339.116 741.625 340.991 742.108 342.443H717.96C716.852 342.443 715.91 341.469 715.91 340.254V333.917C715.91 332.682 716.832 331.728 717.96 331.728H742.106C741.624 333.164 741.33 335.038 741.33 337.076Z" fill="#FFCF2D" stroke="black" stroke-width="0.5"/>
<path d="M743.939 330.958L718.12 330.958L718.112 330.958C716.506 330.982 715.18 332.277 715.18 333.917V340.254C715.18 341.893 716.507 343.193 718.12 343.193H743.939C743.918 344.017 743.25 344.672 742.42 344.672H650.36C649.516 344.672 648.84 343.996 648.84 343.153V330.998C648.84 330.155 649.516 329.479 650.36 329.479H742.42C743.25 329.479 743.918 330.134 743.939 330.958Z" fill="white" stroke="black"/>
<path d="M715.68 333.917V340.254C715.68 341.614 716.78 342.693 718.12 342.693H744.44V343.153C744.44 344.272 743.54 345.172 742.42 345.172H650.36C649.24 345.172 648.34 344.272 648.34 343.153V330.998C648.34 329.879 649.24 328.979 650.36 328.979H742.42C743.54 328.979 744.44 329.879 744.44 330.998V331.458H718.12C716.78 331.478 715.68 332.557 715.68 333.917Z" stroke="black" stroke-width="0.5" stroke-miterlimit="10"/>
<path d="M681.044 360.497L681.044 360.497L681.04 360.5C679.959 361.513 679.321 363.295 679.321 364.784C679.321 366.294 679.98 367.802 681.025 368.929C682.071 370.059 683.538 370.841 685.181 370.841H758.372C758.154 371.609 757.447 372.18 756.601 372.18H667.581C665.328 372.18 663.289 371.328 661.82 369.974C660.353 368.62 659.441 366.75 659.441 364.684C659.441 360.577 663.041 357.187 667.581 357.187H756.601C757.582 357.187 758.397 357.963 758.44 358.946H685.185C683.556 358.925 682.095 359.533 681.044 360.497Z" fill="#FFCF2D" stroke="black"/>
<path d="M684.92 359.026H753.1V359.426V370.141V370.541H684.92C684.164 370.541 683.43 370.393 682.772 370.12L682.77 370.119C682.044 369.821 681.385 369.397 680.86 368.854L680.86 368.854L680.854 368.848C679.803 367.798 679.16 366.364 679.16 364.784C679.16 361.601 681.736 359.026 684.92 359.026Z" fill="#FE5244" stroke="black"/>
<path d="M755.56 359.526V370.041H685.18C682.275 370.041 679.92 367.687 679.92 364.783C679.92 363.332 680.509 362.017 681.451 361.055C682.393 360.114 683.708 359.526 685.16 359.526H755.56Z" fill="white" stroke="black" stroke-width="0.2"/>
<path d="M755.66 359.426V370.141" stroke="black" stroke-miterlimit="10"/>
<path d="M694.5 367.023V375.459H689.32V368.162C689.32 366.028 687.598 364.284 685.44 364.284H683.18V364.144H691.62C693.222 364.144 694.5 365.438 694.5 367.023Z" fill="#FE5244" stroke="black"/>
<path d="M654.139 318.704H759.219C761.863 318.704 764.019 320.857 764.039 323.501C764.039 326.165 761.884 328.319 759.219 328.319H654.139C651.474 328.319 649.339 326.165 649.319 323.521C649.319 320.858 651.474 318.704 654.139 318.704Z" fill="#66B0F0" stroke="black" stroke-width="0.2"/>
<mask id="path-55-inside-1_1_1968" fill="white">
<path d="M735.38 328.439H734.32C734.44 328.759 734.74 329.559 735.4 329.559C735.8 329.559 737.76 329.259 737.76 323.521C737.76 321.482 737.52 319.923 737.04 318.863C736.46 317.604 735.7 317.464 735.42 317.464C734.74 317.464 734.44 318.284 734.32 318.603H735.38C735.42 318.523 735.46 318.483 735.48 318.463C735.84 318.563 736.8 319.563 736.8 323.521C736.8 327.48 735.84 328.459 735.48 328.579C735.44 328.539 735.4 328.499 735.38 328.439Z"/>
</mask>
<path d="M735.38 328.439H734.32C734.44 328.759 734.74 329.559 735.4 329.559C735.8 329.559 737.76 329.259 737.76 323.521C737.76 321.482 737.52 319.923 737.04 318.863C736.46 317.604 735.7 317.464 735.42 317.464C734.74 317.464 734.44 318.284 734.32 318.603H735.38C735.42 318.523 735.46 318.483 735.48 318.463C735.84 318.563 736.8 319.563 736.8 323.521C736.8 327.48 735.84 328.459 735.48 328.579C735.44 328.539 735.4 328.499 735.38 328.439Z" fill="#9A3B82"/>
<path d="M735.38 328.439L736.329 328.123L736.101 327.439H735.38V328.439ZM734.32 328.439V327.439H732.877L733.384 328.79L734.32 328.439ZM737.04 318.863L737.951 318.451L737.949 318.445L737.04 318.863ZM734.32 318.603L733.384 318.252L732.877 319.603H734.32V318.603ZM735.38 318.603V319.603H735.998L736.275 319.051L735.38 318.603ZM735.48 318.463L735.748 317.5L735.186 317.344L734.773 317.756L735.48 318.463ZM735.48 328.579L734.773 329.286L735.21 329.723L735.796 329.528L735.48 328.579ZM735.38 327.439H734.32V329.439H735.38V327.439ZM733.384 328.79C733.441 328.942 733.586 329.341 733.846 329.703C734.107 330.066 734.609 330.559 735.4 330.559V328.559C735.45 328.559 735.495 328.577 735.516 328.591C735.526 328.598 735.508 328.588 735.47 328.535C735.433 328.483 735.394 328.414 735.355 328.33C735.317 328.247 735.287 328.168 735.257 328.088L733.384 328.79ZM735.4 330.559C735.884 330.559 736.805 330.357 737.557 329.255C738.262 328.22 738.76 326.473 738.76 323.521H736.76C736.76 326.307 736.279 327.578 735.904 328.128C735.575 328.611 735.316 328.559 735.4 328.559V330.559ZM738.76 323.521C738.76 321.432 738.519 319.703 737.951 318.451L736.129 319.276C736.522 320.142 736.76 321.532 736.76 323.521H738.76ZM737.949 318.445C737.594 317.674 737.144 317.164 736.661 316.852C736.179 316.54 735.725 316.464 735.42 316.464V318.464C735.396 318.464 735.461 318.457 735.575 318.531C735.687 318.603 735.907 318.793 736.132 319.282L737.949 318.445ZM735.42 316.464C734.62 316.464 734.112 316.962 733.847 317.332C733.584 317.7 733.439 318.106 733.384 318.252L735.257 318.955C735.288 318.871 735.318 318.791 735.357 318.706C735.396 318.62 735.436 318.549 735.474 318.495C735.513 318.44 735.533 318.429 735.524 318.435C735.505 318.447 735.464 318.464 735.42 318.464V316.464ZM734.32 319.603H735.38V317.603H734.32V319.603ZM736.275 319.051C736.264 319.072 736.248 319.097 736.227 319.125C736.205 319.153 736.184 319.174 736.187 319.171L734.773 317.756C734.716 317.813 734.594 317.941 734.486 318.156L736.275 319.051ZM735.213 319.427C735.034 319.377 735 319.295 735.069 319.378C735.123 319.443 735.226 319.597 735.339 319.898C735.567 320.503 735.8 321.612 735.8 323.521H737.8C737.8 321.473 737.553 320.102 737.211 319.193C737.039 318.737 736.836 318.375 736.608 318.101C736.395 317.844 736.107 317.6 735.748 317.5L735.213 319.427ZM735.8 323.521C735.8 325.431 735.567 326.534 735.34 327.136C735.094 327.788 734.917 327.713 735.164 327.63L735.796 329.528C736.404 329.325 736.887 328.7 737.211 327.843C737.553 326.936 737.8 325.57 737.8 323.521H735.8ZM736.187 327.872C736.16 327.845 736.185 327.868 736.212 327.902C736.247 327.947 736.295 328.021 736.329 328.123L734.432 328.756C734.537 329.07 734.751 329.264 734.773 329.286L736.187 327.872Z" fill="black" mask="url(#path-55-inside-1_1_1968)"/>
<mask id="path-57-inside-2_1_1968" fill="white">
<path d="M744.06 328.439H743C743.12 328.759 743.42 329.559 744.08 329.559C744.48 329.559 746.44 329.259 746.44 323.521C746.44 321.482 746.2 319.923 745.72 318.863C745.14 317.604 744.38 317.464 744.1 317.464C743.42 317.464 743.12 318.284 743 318.603H744.06C744.1 318.523 744.14 318.483 744.16 318.463C744.52 318.563 745.48 319.563 745.48 323.521C745.48 327.48 744.52 328.459 744.16 328.579C744.14 328.539 744.1 328.499 744.06 328.439Z"/>
</mask>
<path d="M744.06 328.439H743C743.12 328.759 743.42 329.559 744.08 329.559C744.48 329.559 746.44 329.259 746.44 323.521C746.44 321.482 746.2 319.923 745.72 318.863C745.14 317.604 744.38 317.464 744.1 317.464C743.42 317.464 743.12 318.284 743 318.603H744.06C744.1 318.523 744.14 318.483 744.16 318.463C744.52 318.563 745.48 319.563 745.48 323.521C745.48 327.48 744.52 328.459 744.16 328.579C744.14 328.539 744.1 328.499 744.06 328.439Z" fill="#9A3B82"/>
<path d="M744.06 328.439L744.892 327.884L744.595 327.439H744.06V328.439ZM743 328.439V327.439H741.557L742.064 328.79L743 328.439ZM745.72 318.863L746.631 318.451L746.628 318.445L745.72 318.863ZM743 318.603L742.064 318.252L741.557 319.603H743V318.603ZM744.06 318.603V319.603H744.678L744.954 319.051L744.06 318.603ZM744.16 318.463L744.428 317.5L743.866 317.344L743.453 317.756L744.16 318.463ZM744.16 328.579L743.266 329.026L743.654 329.802L744.476 329.528L744.16 328.579ZM744.06 327.439H743V329.439H744.06V327.439ZM742.064 328.79C742.121 328.942 742.265 329.341 742.526 329.703C742.787 330.066 743.289 330.559 744.08 330.559V328.559C744.13 328.559 744.175 328.577 744.195 328.591C744.206 328.598 744.188 328.588 744.149 328.535C744.112 328.483 744.073 328.414 744.035 328.33C743.996 328.247 743.966 328.168 743.936 328.088L742.064 328.79ZM744.08 330.559C744.564 330.559 745.485 330.357 746.236 329.255C746.941 328.22 747.44 326.473 747.44 323.521H745.44C745.44 326.307 744.959 327.578 744.584 328.128C744.255 328.611 743.996 328.559 744.08 328.559V330.559ZM747.44 323.521C747.44 321.432 747.198 319.704 746.631 318.451L744.809 319.276C745.202 320.142 745.44 321.532 745.44 323.521H747.44ZM746.628 318.445C746.273 317.674 745.824 317.164 745.341 316.852C744.859 316.54 744.405 316.464 744.1 316.464V318.464C744.075 318.464 744.141 318.457 744.254 318.531C744.366 318.603 744.587 318.793 744.812 319.282L746.628 318.445ZM744.1 316.464C743.299 316.464 742.791 316.962 742.526 317.332C742.264 317.7 742.119 318.106 742.064 318.252L743.936 318.955C743.968 318.871 743.997 318.791 744.037 318.706C744.076 318.62 744.115 318.549 744.154 318.495C744.193 318.44 744.213 318.429 744.204 318.435C744.185 318.447 744.144 318.464 744.1 318.464V316.464ZM743 319.603H744.06V317.603H743V319.603ZM744.954 319.051C744.944 319.072 744.928 319.097 744.907 319.125C744.885 319.153 744.864 319.174 744.867 319.171L743.453 317.756C743.396 317.813 743.273 317.941 743.166 318.156L744.954 319.051ZM743.892 319.427C743.714 319.377 743.68 319.295 743.748 319.378C743.802 319.443 743.906 319.597 744.019 319.898C744.247 320.503 744.48 321.612 744.48 323.521H746.48C746.48 321.473 746.233 320.102 745.891 319.193C745.719 318.737 745.515 318.375 745.288 318.101C745.075 317.844 744.786 317.6 744.428 317.5L743.892 319.427ZM744.48 323.521C744.48 325.431 744.247 326.534 744.019 327.136C743.773 327.788 743.596 327.713 743.844 327.63L744.476 329.528C745.084 329.325 745.567 328.7 745.891 327.843C746.233 326.936 746.48 325.57 746.48 323.521H744.48ZM745.054 328.132C745.02 328.064 744.986 328.011 744.962 327.977C744.939 327.943 744.917 327.915 744.907 327.902C744.88 327.868 744.887 327.877 744.892 327.884L743.228 328.994C743.252 329.03 743.275 329.061 743.292 329.084C743.301 329.096 743.309 329.106 743.315 329.113C743.318 329.117 743.321 329.121 743.323 329.124C743.325 329.127 743.327 329.129 743.328 329.131C743.331 329.135 743.332 329.135 743.331 329.134C743.33 329.133 743.326 329.128 743.321 329.121C743.316 329.113 743.308 329.102 743.299 329.086C743.29 329.071 743.278 329.051 743.266 329.026L745.054 328.132Z" fill="black" mask="url(#path-57-inside-2_1_1968)"/>
<mask id="path-59-inside-3_1_1968" fill="white">
<path d="M752.76 328.439H751.7C751.82 328.759 752.12 329.559 752.78 329.559C753.34 329.559 755.14 329.119 755.14 323.521C755.14 317.904 753.34 317.484 752.78 317.484C752.1 317.484 751.8 318.304 751.68 318.623H752.74C752.78 318.543 752.82 318.503 752.84 318.483C753.24 318.583 754.16 319.623 754.16 323.541C754.16 325.94 753.82 327.18 753.52 327.819C753.28 328.339 753.02 328.559 752.84 328.599C752.82 328.539 752.8 328.499 752.76 328.439Z"/>
</mask>
<path d="M752.76 328.439H751.7C751.82 328.759 752.12 329.559 752.78 329.559C753.34 329.559 755.14 329.119 755.14 323.521C755.14 317.904 753.34 317.484 752.78 317.484C752.1 317.484 751.8 318.304 751.68 318.623H752.74C752.78 318.543 752.82 318.503 752.84 318.483C753.24 318.583 754.16 319.623 754.16 323.541C754.16 325.94 753.82 327.18 753.52 327.819C753.28 328.339 753.02 328.559 752.84 328.599C752.82 328.539 752.8 328.499 752.76 328.439Z" fill="#9A3B82"/>
<path d="M752.76 328.439L753.592 327.884L753.295 327.439H752.76V328.439ZM751.7 328.439V327.439H750.256L750.763 328.79L751.7 328.439ZM751.68 318.623L750.743 318.272L750.236 319.623H751.68V318.623ZM752.74 318.623V319.623H753.358L753.634 319.071L752.74 318.623ZM752.84 318.483L753.082 317.513L752.533 317.376L752.133 317.776L752.84 318.483ZM753.52 327.819L752.614 327.395L752.612 327.4L753.52 327.819ZM752.84 328.599L751.891 328.915L752.176 329.771L753.057 329.575L752.84 328.599ZM752.76 327.439H751.7V329.439H752.76V327.439ZM750.763 328.79C750.82 328.942 750.965 329.341 751.225 329.703C751.486 330.066 751.989 330.559 752.78 330.559V328.559C752.83 328.559 752.874 328.577 752.895 328.591C752.906 328.598 752.887 328.588 752.849 328.535C752.812 328.483 752.773 328.414 752.734 328.33C752.696 328.247 752.666 328.168 752.636 328.088L750.763 328.79ZM752.78 330.559C753.368 330.559 754.291 330.301 755.011 329.18C755.683 328.133 756.14 326.395 756.14 323.521H754.14C754.14 326.245 753.696 327.526 753.328 328.099C753.153 328.371 753.002 328.475 752.923 328.515C752.842 328.558 752.788 328.559 752.78 328.559V330.559ZM756.14 323.521C756.14 320.638 755.684 318.9 755.01 317.854C754.286 316.731 753.361 316.484 752.78 316.484V318.484C752.793 318.484 752.848 318.486 752.928 318.527C753.005 318.566 753.155 318.667 753.329 318.938C753.696 319.507 754.14 320.787 754.14 323.521H756.14ZM752.78 316.484C751.979 316.484 751.471 316.982 751.206 317.352C750.944 317.72 750.798 318.126 750.743 318.272L752.616 318.975C752.647 318.891 752.677 318.811 752.716 318.726C752.755 318.64 752.795 318.569 752.833 318.515C752.873 318.46 752.893 318.449 752.884 318.455C752.865 318.467 752.824 318.484 752.78 318.484V316.484ZM751.68 319.623H752.74V317.623H751.68V319.623ZM753.634 319.071C753.624 319.092 753.608 319.117 753.586 319.145C753.564 319.173 753.543 319.194 753.547 319.191L752.133 317.776C752.075 317.833 751.953 317.961 751.845 318.176L753.634 319.071ZM752.597 319.454C752.415 319.408 752.378 319.322 752.443 319.401C752.497 319.466 752.599 319.621 752.711 319.925C752.936 320.537 753.16 321.648 753.16 323.541H755.16C755.16 321.516 754.924 320.148 754.588 319.236C754.42 318.778 754.218 318.409 753.986 318.129C753.767 317.863 753.465 317.609 753.082 317.513L752.597 319.454ZM753.16 323.541C753.16 325.859 752.829 326.937 752.614 327.395L754.425 328.244C754.81 327.423 755.16 326.022 755.16 323.541H753.16ZM752.612 327.4C752.525 327.589 752.455 327.676 752.429 327.704C752.416 327.717 752.421 327.709 752.447 327.692C752.472 327.676 752.531 327.643 752.623 327.623L753.057 329.575C753.41 329.497 753.687 329.286 753.886 329.074C754.094 328.852 754.275 328.57 754.428 328.239L752.612 327.4ZM753.788 328.283C753.737 328.128 753.674 328.008 753.592 327.884L751.928 328.994C751.934 329.003 751.925 328.991 751.913 328.966C751.907 328.954 751.902 328.943 751.897 328.933C751.893 328.923 751.891 328.916 751.891 328.915L753.788 328.283Z" fill="black" mask="url(#path-59-inside-3_1_1968)"/>
<mask id="path-61-inside-4_1_1968" fill="white">
<path d="M709.279 328.439H708.219C708.339 328.759 708.639 329.559 709.299 329.559C709.699 329.559 711.659 329.259 711.659 323.521C711.659 317.904 709.859 317.484 709.299 317.484C708.619 317.484 708.319 318.304 708.199 318.623H709.259C709.299 318.543 709.339 318.503 709.359 318.483C709.759 318.583 710.679 319.623 710.679 323.541C710.679 327.5 709.719 328.479 709.359 328.599C709.359 328.539 709.319 328.499 709.279 328.439Z"/>
</mask>
<path d="M709.279 328.439H708.219C708.339 328.759 708.639 329.559 709.299 329.559C709.699 329.559 711.659 329.259 711.659 323.521C711.659 317.904 709.859 317.484 709.299 317.484C708.619 317.484 708.319 318.304 708.199 318.623H709.259C709.299 318.543 709.339 318.503 709.359 318.483C709.759 318.583 710.679 319.623 710.679 323.541C710.679 327.5 709.719 328.479 709.359 328.599C709.359 328.539 709.319 328.499 709.279 328.439Z" fill="#9A3B82"/>
<path d="M709.279 328.439L710.111 327.884L709.814 327.439H709.279V328.439ZM708.219 328.439V327.439H706.776L707.283 328.79L708.219 328.439ZM708.199 318.623L707.263 318.272L706.756 319.623H708.199V318.623ZM709.259 318.623V319.623H709.877L710.154 319.071L709.259 318.623ZM709.359 318.483L709.602 317.513L709.053 317.376L708.652 317.776L709.359 318.483ZM709.359 328.599H708.359V329.986L709.675 329.548L709.359 328.599ZM709.279 327.439H708.219V329.439H709.279V327.439ZM707.283 328.79C707.34 328.942 707.485 329.341 707.745 329.703C708.006 330.066 708.508 330.559 709.299 330.559V328.559C709.349 328.559 709.394 328.577 709.415 328.591C709.425 328.598 709.407 328.588 709.369 328.535C709.331 328.483 709.293 328.414 709.254 328.33C709.216 328.247 709.186 328.168 709.156 328.088L707.283 328.79ZM709.299 330.559C709.783 330.559 710.704 330.357 711.456 329.255C712.161 328.22 712.659 326.473 712.659 323.521H710.659C710.659 326.307 710.178 327.578 709.803 328.128C709.474 328.611 709.215 328.559 709.299 328.559V330.559ZM712.659 323.521C712.659 320.638 712.203 318.9 711.53 317.854C710.806 316.731 709.881 316.484 709.299 316.484V318.484C709.312 318.484 709.367 318.486 709.447 318.527C709.524 318.566 709.675 318.667 709.849 318.938C710.215 319.507 710.659 320.787 710.659 323.521H712.659ZM709.299 316.484C708.499 316.484 707.991 316.982 707.726 317.352C707.463 317.72 707.318 318.126 707.263 318.272L709.135 318.975C709.167 318.891 709.197 318.811 709.236 318.726C709.275 318.64 709.315 318.569 709.353 318.515C709.392 318.46 709.412 318.449 709.403 318.455C709.384 318.467 709.343 318.484 709.299 318.484V316.484ZM708.199 319.623H709.259V317.623H708.199V319.623ZM710.154 319.071C710.143 319.092 710.127 319.117 710.106 319.145C710.084 319.173 710.063 319.194 710.066 319.191L708.652 317.776C708.595 317.833 708.473 317.961 708.365 318.176L710.154 319.071ZM709.117 319.454C708.934 319.408 708.897 319.322 708.963 319.401C709.016 319.466 709.119 319.621 709.231 319.925C709.455 320.537 709.679 321.648 709.679 323.541H711.679C711.679 321.516 711.443 320.148 711.108 319.236C710.94 318.778 710.737 318.41 710.506 318.129C710.286 317.863 709.984 317.609 709.602 317.513L709.117 319.454ZM709.679 323.541C709.679 325.451 709.446 326.554 709.219 327.156C708.973 327.808 708.796 327.733 709.043 327.65L709.675 329.548C710.283 329.345 710.766 328.72 711.09 327.863C711.432 326.956 711.679 325.59 711.679 323.541H709.679ZM710.359 328.599C710.359 328.323 710.26 328.118 710.191 328.004C710.161 327.954 710.132 327.913 710.122 327.899C710.106 327.878 710.11 327.882 710.111 327.884L708.447 328.994C708.469 329.026 708.492 329.058 708.495 329.063C708.504 329.075 708.492 329.059 708.477 329.034C708.439 328.97 708.359 328.815 708.359 328.599H710.359Z" fill="black" mask="url(#path-61-inside-4_1_1968)"/>
<mask id="path-63-inside-5_1_1968" fill="white">
<path d="M717.978 328.439H716.918C717.038 328.759 717.338 329.559 717.998 329.559C718.378 329.559 719.078 329.399 719.618 328.279C720.098 327.26 720.358 325.66 720.358 323.521C720.358 321.382 720.118 319.783 719.618 318.763C719.078 317.644 718.378 317.484 717.998 317.484C717.318 317.484 717.018 318.304 716.898 318.623H717.958C717.998 318.543 718.038 318.503 718.058 318.483C718.298 318.523 718.538 318.783 718.738 319.203C719.018 319.803 719.378 321.042 719.378 323.541C719.378 326.02 719.038 327.26 718.738 327.879C718.538 328.299 718.278 328.559 718.058 328.599C718.038 328.539 718.018 328.499 717.978 328.439Z"/>
</mask>
<path d="M717.978 328.439H716.918C717.038 328.759 717.338 329.559 717.998 329.559C718.378 329.559 719.078 329.399 719.618 328.279C720.098 327.26 720.358 325.66 720.358 323.521C720.358 321.382 720.118 319.783 719.618 318.763C719.078 317.644 718.378 317.484 717.998 317.484C717.318 317.484 717.018 318.304 716.898 318.623H717.958C717.998 318.543 718.038 318.503 718.058 318.483C718.298 318.523 718.538 318.783 718.738 319.203C719.018 319.803 719.378 321.042 719.378 323.541C719.378 326.02 719.038 327.26 718.738 327.879C718.538 328.299 718.278 328.559 718.058 328.599C718.038 328.539 718.018 328.499 717.978 328.439Z" fill="#9A3B82"/>
<path d="M717.978 328.439L718.81 327.884L718.513 327.439H717.978V328.439ZM716.918 328.439V327.439H715.475L715.982 328.79L716.918 328.439ZM719.618 328.279L720.519 328.714L720.523 328.705L719.618 328.279ZM719.618 318.763L718.718 319.198L718.721 319.204L719.618 318.763ZM716.898 318.623L715.962 318.272L715.455 319.623H716.898V318.623ZM717.958 318.623V319.623H718.576L718.853 319.071L717.958 318.623ZM718.058 318.483L718.223 317.497L717.715 317.413L717.351 317.776L718.058 318.483ZM718.738 319.203L719.645 318.78L719.641 318.773L718.738 319.203ZM718.738 327.879L717.838 327.444L717.836 327.449L718.738 327.879ZM718.058 328.599L717.11 328.915L717.384 329.738L718.237 329.583L718.058 328.599ZM717.978 327.439H716.918V329.439H717.978V327.439ZM715.982 328.79C716.039 328.942 716.184 329.341 716.444 329.703C716.705 330.066 717.207 330.559 717.998 330.559V328.559C718.049 328.559 718.093 328.577 718.114 328.591C718.125 328.598 718.106 328.588 718.068 328.535C718.031 328.483 717.992 328.414 717.953 328.33C717.915 328.247 717.885 328.168 717.855 328.088L715.982 328.79ZM717.998 330.559C718.334 330.559 718.796 330.486 719.276 330.189C719.755 329.891 720.182 329.412 720.519 328.714L718.718 327.845C718.515 328.266 718.322 328.427 718.221 328.489C718.121 328.551 718.043 328.559 717.998 328.559V330.559ZM720.523 328.705C721.098 327.485 721.358 325.708 721.358 323.521H719.358C719.358 325.613 719.099 327.035 718.714 327.853L720.523 328.705ZM721.358 323.521C721.358 321.349 721.121 319.557 720.516 318.323L718.721 319.204C719.116 320.009 719.358 321.416 719.358 323.521H721.358ZM720.519 318.329C720.182 317.63 719.755 317.152 719.276 316.854C718.796 316.556 718.334 316.484 717.998 316.484V318.484C718.043 318.484 718.121 318.491 718.221 318.554C718.322 318.616 718.515 318.777 718.718 319.198L720.519 318.329ZM717.998 316.484C717.198 316.484 716.69 316.982 716.425 317.352C716.162 317.72 716.017 318.126 715.962 318.272L717.835 318.975C717.866 318.891 717.896 318.811 717.935 318.726C717.974 318.64 718.014 318.569 718.052 318.515C718.091 318.46 718.111 318.449 718.102 318.455C718.084 318.467 718.043 318.484 717.998 318.484V316.484ZM716.898 319.623H717.958V317.623H716.898V319.623ZM718.853 319.071C718.842 319.092 718.827 319.117 718.805 319.145C718.783 319.173 718.762 319.194 718.765 319.191L717.351 317.776C717.294 317.833 717.172 317.961 717.064 318.176L718.853 319.071ZM717.894 319.47C717.806 319.455 717.745 319.425 717.714 319.405C717.683 319.387 717.675 319.375 717.684 319.385C717.694 319.395 717.714 319.419 717.742 319.462C717.77 319.505 717.801 319.562 717.836 319.633L719.641 318.773C719.512 318.503 719.349 318.237 719.142 318.016C718.941 317.802 718.636 317.566 718.223 317.497L717.894 319.47ZM717.832 319.626C718.029 320.047 718.378 321.127 718.378 323.541H720.378C720.378 320.957 720.008 319.558 719.645 318.78L717.832 319.626ZM718.378 323.541C718.378 325.948 718.045 327.016 717.838 327.444L719.639 328.315C720.032 327.503 720.378 326.093 720.378 323.541H718.378ZM717.836 327.449C717.771 327.585 717.712 327.66 717.684 327.689C717.671 327.703 717.675 327.696 717.699 327.681C717.723 327.666 717.783 327.633 717.88 327.615L718.237 329.583C718.636 329.511 718.935 329.275 719.127 329.074C719.334 328.858 719.506 328.594 719.641 328.31L717.836 327.449ZM719.007 328.283C718.955 328.127 718.893 328.008 718.81 327.884L717.146 328.994C717.153 329.003 717.144 328.991 717.132 328.967C717.126 328.955 717.121 328.943 717.116 328.933C717.112 328.923 717.11 328.916 717.11 328.915L719.007 328.283Z" fill="black" mask="url(#path-63-inside-5_1_1968)"/>
<mask id="path-65-inside-6_1_1968" fill="white">
<path d="M726.678 328.439H725.618C725.738 328.759 726.038 329.559 726.698 329.559C727.258 329.559 729.058 329.119 729.058 323.521C729.058 317.764 727.098 317.484 726.698 317.484C726.018 317.484 725.718 318.304 725.598 318.623H726.658C726.698 318.543 726.738 318.503 726.758 318.483C727.118 318.583 728.078 319.583 728.078 323.541C728.078 327.46 727.158 328.499 726.758 328.599C726.738 328.539 726.718 328.499 726.678 328.439Z"/>
</mask>
<path d="M726.678 328.439H725.618C725.738 328.759 726.038 329.559 726.698 329.559C727.258 329.559 729.058 329.119 729.058 323.521C729.058 317.764 727.098 317.484 726.698 317.484C726.018 317.484 725.718 318.304 725.598 318.623H726.658C726.698 318.543 726.738 318.503 726.758 318.483C727.118 318.583 728.078 319.583 728.078 323.541C728.078 327.46 727.158 328.499 726.758 328.599C726.738 328.539 726.718 328.499 726.678 328.439Z" fill="#9A3B82"/>
<path d="M726.678 328.439L727.51 327.884L727.213 327.439H726.678V328.439ZM725.618 328.439V327.439H724.174L724.681 328.79L725.618 328.439ZM725.598 318.623L724.661 318.272L724.154 319.623H725.598V318.623ZM726.658 318.623V319.623H727.276L727.552 319.071L726.658 318.623ZM726.758 318.483L727.025 317.52L726.463 317.364L726.051 317.776L726.758 318.483ZM726.758 328.599L725.809 328.915L726.102 329.794L727 329.569L726.758 328.599ZM726.678 327.439H725.618V329.439H726.678V327.439ZM724.681 328.79C724.738 328.942 724.883 329.341 725.143 329.703C725.404 330.066 725.907 330.559 726.698 330.559V328.559C726.748 328.559 726.792 328.577 726.813 328.591C726.824 328.598 726.805 328.588 726.767 328.535C726.73 328.483 726.691 328.414 726.652 328.33C726.614 328.247 726.584 328.168 726.554 328.088L724.681 328.79ZM726.698 330.559C727.286 330.559 728.209 330.301 728.929 329.18C729.601 328.133 730.058 326.395 730.058 323.521H728.058C728.058 326.245 727.614 327.526 727.246 328.099C727.071 328.371 726.92 328.475 726.841 328.515C726.76 328.558 726.706 328.559 726.698 328.559V330.559ZM730.058 323.521C730.058 320.561 729.56 318.812 728.853 317.779C728.098 316.675 727.174 316.484 726.698 316.484V318.484C726.621 318.484 726.877 318.433 727.202 318.908C727.576 319.454 728.058 320.724 728.058 323.521H730.058ZM726.698 316.484C725.897 316.484 725.389 316.982 725.124 317.352C724.862 317.72 724.716 318.126 724.661 318.272L726.534 318.975C726.565 318.891 726.595 318.811 726.634 318.726C726.673 318.64 726.713 318.569 726.751 318.515C726.791 318.46 726.811 318.449 726.802 318.455C726.783 318.467 726.742 318.484 726.698 318.484V316.484ZM725.598 319.623H726.658V317.623H725.598V319.623ZM727.552 319.071C727.542 319.092 727.526 319.117 727.504 319.145C727.482 319.173 727.461 319.194 727.465 319.191L726.051 317.776C725.993 317.833 725.871 317.961 725.763 318.176L727.552 319.071ZM726.49 319.447C726.311 319.397 726.278 319.315 726.346 319.398C726.4 319.463 726.504 319.617 726.617 319.918C726.845 320.523 727.078 321.632 727.078 323.541H729.078C729.078 321.493 728.831 320.122 728.489 319.213C728.317 318.757 728.113 318.395 727.886 318.121C727.673 317.864 727.384 317.62 727.025 317.52L726.49 319.447ZM727.078 323.541C727.078 325.434 726.854 326.545 726.629 327.157C726.517 327.462 726.414 327.617 726.361 327.681C726.296 327.761 726.333 327.675 726.515 327.629L727 329.569C727.383 329.474 727.685 329.22 727.904 328.954C728.136 328.673 728.338 328.305 728.506 327.847C728.841 326.935 729.078 325.567 729.078 323.541H727.078ZM727.706 328.283C727.654 328.127 727.592 328.008 727.51 327.884L725.846 328.994C725.852 329.003 725.843 328.991 725.831 328.967C725.825 328.955 725.82 328.943 725.816 328.933C725.812 328.923 725.809 328.916 725.809 328.915L727.706 328.283Z" fill="black" mask="url(#path-65-inside-6_1_1968)"/>
<path d="M683.442 328.997C683.821 328.846 684.208 328.401 684.5 327.626C684.814 326.797 685.057 325.5 685.058 323.492C685.058 323.495 685.058 323.498 685.058 323.501C685.058 325.518 684.818 327.009 684.384 327.95L684.384 327.95L684.381 327.956C684.133 328.514 683.861 328.781 683.659 328.911C683.456 329.043 683.289 329.059 683.218 329.059C683.143 329.059 683.064 329.029 682.975 328.939H683.198V328.793L683.238 329.039C683.289 329.039 683.363 329.031 683.442 328.997ZM683.14 328.439L683.146 328.474L682.802 328.703C682.784 328.672 682.768 328.641 682.752 328.61C682.747 328.582 682.744 328.543 682.747 328.499C682.748 328.481 682.75 328.461 682.754 328.439H683.14ZM684.374 319.159C684.221 318.809 684.057 318.551 683.9 318.364C684.061 318.552 684.225 318.812 684.379 319.161C684.398 319.206 684.417 319.252 684.435 319.299C684.415 319.251 684.395 319.204 684.374 319.159Z" fill="#9A3B82" stroke="black"/>
<mask id="path-68-inside-7_1_1968" fill="white">
<path d="M691.901 328.439H690.841C690.961 328.759 691.261 329.559 691.921 329.559C692.221 329.559 692.981 329.419 693.541 328.159C694.021 327.12 694.261 325.54 694.261 323.501C694.261 317.884 692.461 317.464 691.901 317.464C691.221 317.464 690.921 318.284 690.801 318.603H691.861C691.901 318.523 691.941 318.483 691.961 318.463C692.361 318.563 693.281 319.603 693.281 323.521C693.281 327.48 692.321 328.459 691.961 328.579C691.961 328.539 691.941 328.499 691.901 328.439Z"/>
</mask>
<path d="M691.901 328.439H690.841C690.961 328.759 691.261 329.559 691.921 329.559C692.221 329.559 692.981 329.419 693.541 328.159C694.021 327.12 694.261 325.54 694.261 323.501C694.261 317.884 692.461 317.464 691.901 317.464C691.221 317.464 690.921 318.284 690.801 318.603H691.861C691.901 318.523 691.941 318.483 691.961 318.463C692.361 318.563 693.281 319.603 693.281 323.521C693.281 327.48 692.321 328.459 691.961 328.579C691.961 328.539 691.941 328.499 691.901 328.439Z" fill="#9A3B82"/>
<path d="M691.901 328.439L692.733 327.884L692.436 327.439H691.901V328.439ZM690.841 328.439V327.439H689.398L689.904 328.79L690.841 328.439ZM693.541 328.159L692.633 327.74L692.63 327.747L692.627 327.753L693.541 328.159ZM690.801 318.603L689.865 318.252L689.358 319.603H690.801V318.603ZM691.861 318.603V319.603H692.479L692.755 319.051L691.861 318.603ZM691.961 318.463L692.203 317.493L691.654 317.356L691.254 317.756L691.961 318.463ZM691.961 328.579L690.961 328.579L690.961 329.966L692.277 329.528L691.961 328.579ZM691.901 327.439H690.841V329.439H691.901V327.439ZM689.904 328.79C689.961 328.942 690.106 329.341 690.366 329.703C690.627 330.066 691.13 330.559 691.921 330.559V328.559C691.971 328.559 692.015 328.577 692.036 328.591C692.047 328.598 692.028 328.588 691.99 328.535C691.953 328.483 691.914 328.414 691.875 328.33C691.837 328.247 691.807 328.168 691.777 328.088L689.904 328.79ZM691.921 330.559C692.228 330.559 692.689 330.486 693.176 330.171C693.665 329.855 694.11 329.34 694.455 328.566L692.627 327.753C692.411 328.238 692.197 328.423 692.09 328.492C691.982 328.561 691.914 328.559 691.921 328.559V330.559ZM694.449 328.578C695.02 327.34 695.261 325.586 695.261 323.501H693.261C693.261 325.495 693.021 326.899 692.633 327.74L694.449 328.578ZM695.261 323.501C695.261 320.618 694.805 318.88 694.131 317.834C693.407 316.711 692.482 316.464 691.901 316.464V318.464C691.914 318.464 691.969 318.466 692.049 318.507C692.126 318.546 692.276 318.647 692.45 318.918C692.817 319.487 693.261 320.767 693.261 323.501H695.261ZM691.901 316.464C691.1 316.464 690.592 316.962 690.327 317.332C690.065 317.7 689.919 318.106 689.865 318.252L691.737 318.955C691.768 318.871 691.798 318.791 691.837 318.706C691.877 318.62 691.916 318.549 691.954 318.495C691.994 318.44 692.014 318.429 692.005 318.435C691.986 318.447 691.945 318.464 691.901 318.464V316.464ZM690.801 319.603H691.861V317.603H690.801V319.603ZM692.755 319.051C692.745 319.072 692.729 319.097 692.707 319.125C692.685 319.153 692.664 319.174 692.668 319.171L691.254 317.756C691.197 317.813 691.074 317.941 690.966 318.156L692.755 319.051ZM691.718 319.434C691.536 319.388 691.499 319.302 691.564 319.381C691.618 319.446 691.72 319.601 691.832 319.905C692.057 320.517 692.281 321.628 692.281 323.521H694.281C694.281 321.496 694.045 320.128 693.709 319.216C693.541 318.758 693.339 318.389 693.107 318.109C692.888 317.843 692.586 317.589 692.203 317.493L691.718 319.434ZM692.281 323.521C692.281 325.431 692.048 326.534 691.82 327.136C691.574 327.788 691.397 327.713 691.645 327.63L692.277 329.528C692.884 329.325 693.367 328.7 693.691 327.843C694.034 326.936 694.281 325.57 694.281 323.521H692.281ZM692.961 328.579C692.961 328.204 692.767 327.935 692.733 327.884L691.069 328.994C691.08 329.011 691.057 328.98 691.032 328.923C691.002 328.856 690.961 328.736 690.961 328.579L692.961 328.579Z" fill="black" mask="url(#path-68-inside-7_1_1968)"/>
<mask id="path-70-inside-8_1_1968" fill="white">
<path d="M700.6 328.439H699.54C699.66 328.759 699.96 329.559 700.62 329.559C701.18 329.559 702.979 329.119 702.979 323.521C702.979 321.382 702.74 319.783 702.24 318.763C701.7 317.644 701 317.484 700.62 317.484C699.94 317.484 699.64 318.304 699.52 318.623H700.579C700.619 318.543 700.659 318.503 700.679 318.483C700.919 318.523 701.16 318.783 701.36 319.203C701.64 319.803 702 321.042 702 323.541C702 327.46 701.079 328.499 700.679 328.599C700.659 328.539 700.62 328.499 700.6 328.439Z"/>
</mask>
<path d="M700.6 328.439H699.54C699.66 328.759 699.96 329.559 700.62 329.559C701.18 329.559 702.979 329.119 702.979 323.521C702.979 321.382 702.74 319.783 702.24 318.763C701.7 317.644 701 317.484 700.62 317.484C699.94 317.484 699.64 318.304 699.52 318.623H700.579C700.619 318.543 700.659 318.503 700.679 318.483C700.919 318.523 701.16 318.783 701.36 319.203C701.64 319.803 702 321.042 702 323.541C702 327.46 701.079 328.499 700.679 328.599C700.659 328.539 700.62 328.499 700.6 328.439Z" fill="#9A3B82"/>
<path d="M700.6 328.439L701.548 328.123L701.32 327.439H700.6V328.439ZM699.54 328.439V327.439H698.096L698.603 328.79L699.54 328.439ZM702.24 318.763L701.339 319.198L701.342 319.204L702.24 318.763ZM699.52 318.623L698.583 318.272L698.076 319.623H699.52V318.623ZM700.579 318.623V319.623H701.197L701.474 319.071L700.579 318.623ZM700.679 318.483L700.844 317.497L700.336 317.413L699.973 317.776L700.679 318.483ZM701.36 319.203L702.266 318.78L702.262 318.773L701.36 319.203ZM700.679 328.599L699.731 328.915L700.024 329.794L700.922 329.569L700.679 328.599ZM700.6 327.439H699.54V329.439H700.6V327.439ZM698.603 328.79C698.66 328.942 698.805 329.341 699.065 329.703C699.326 330.066 699.829 330.559 700.62 330.559V328.559C700.67 328.559 700.714 328.577 700.735 328.591C700.746 328.598 700.727 328.588 700.689 328.535C700.652 328.483 700.613 328.414 700.574 328.33C700.536 328.247 700.506 328.168 700.476 328.088L698.603 328.79ZM700.62 330.559C701.208 330.559 702.131 330.301 702.851 329.179C703.523 328.133 703.979 326.395 703.979 323.521H701.979C701.979 326.245 701.536 327.526 701.168 328.099C700.993 328.371 700.841 328.475 700.763 328.515C700.682 328.558 700.628 328.559 700.62 328.559V330.559ZM703.979 323.521C703.979 321.349 703.742 319.557 703.137 318.323L701.342 319.204C701.737 320.009 701.979 321.416 701.979 323.521H703.979ZM703.14 318.329C702.803 317.63 702.376 317.152 701.897 316.854C701.417 316.556 700.955 316.484 700.62 316.484V318.484C700.664 318.484 700.742 318.491 700.842 318.554C700.943 318.616 701.136 318.777 701.339 319.198L703.14 318.329ZM700.62 316.484C699.819 316.484 699.311 316.982 699.046 317.352C698.783 317.72 698.638 318.126 698.583 318.272L700.456 318.975C700.487 318.891 700.517 318.811 700.556 318.726C700.595 318.64 700.635 318.569 700.673 318.515C700.712 318.46 700.732 318.449 700.724 318.455C700.705 318.467 700.664 318.484 700.62 318.484V316.484ZM699.52 319.623H700.579V317.623H699.52V319.623ZM701.474 319.071C701.463 319.092 701.448 319.117 701.426 319.145C701.404 319.173 701.383 319.194 701.386 319.191L699.973 317.776C699.915 317.833 699.793 317.961 699.685 318.176L701.474 319.071ZM700.515 319.47C700.427 319.455 700.366 319.425 700.335 319.405C700.304 319.387 700.296 319.375 700.306 319.385C700.315 319.395 700.335 319.419 700.363 319.463C700.391 319.505 700.423 319.562 700.457 319.633L702.262 318.773C702.133 318.503 701.97 318.237 701.763 318.016C701.562 317.802 701.257 317.566 700.844 317.497L700.515 319.47ZM700.453 319.626C700.65 320.047 701 321.127 701 323.541H703C703 320.957 702.629 319.558 702.266 318.78L700.453 319.626ZM701 323.541C701 325.434 700.776 326.545 700.551 327.157C700.439 327.462 700.336 327.617 700.283 327.681C700.217 327.761 700.255 327.675 700.437 327.629L700.922 329.569C701.304 329.474 701.607 329.22 701.826 328.954C702.058 328.673 702.26 328.305 702.428 327.847C702.763 326.935 703 325.567 703 323.541H701ZM701.628 328.283C701.602 328.204 701.572 328.14 701.547 328.093C701.525 328.05 701.502 328.013 701.497 328.005C701.487 327.988 701.495 328 701.503 328.017C701.514 328.038 701.532 328.074 701.548 328.123L699.651 328.756C699.677 328.834 699.707 328.898 699.732 328.945C699.754 328.988 699.777 329.025 699.782 329.034C699.792 329.05 699.784 329.038 699.776 329.021C699.765 329.001 699.747 328.964 699.731 328.915L701.628 328.283Z" fill="black" mask="url(#path-70-inside-8_1_1968)"/>
<path d="M658.317 327.841C658.586 327.231 658.862 326.267 658.961 324.738C658.878 326.029 658.66 327.076 658.323 327.834C658.299 327.886 658.275 327.937 658.25 327.987C658.272 327.94 658.295 327.891 658.317 327.841Z" fill="#9A3B82" stroke="black"/>
<path d="M667.003 327.834C666.978 327.887 666.954 327.939 666.928 327.989C666.951 327.941 666.974 327.892 666.996 327.841C667.266 327.229 667.544 326.258 667.642 324.717C667.56 326.018 667.341 327.072 667.003 327.834Z" fill="#9A3B82" stroke="black"/>
<path d="M674.498 328.569L674.558 328.539L674.716 329.013C674.896 328.954 675.066 328.815 675.215 328.646C675.373 328.464 675.537 328.211 675.693 327.866C676.031 327.123 676.377 325.81 676.378 323.512C676.378 323.515 676.378 323.518 676.378 323.521C676.378 325.431 676.14 326.889 675.701 327.876C675.43 328.481 675.148 328.769 674.944 328.908C674.743 329.045 674.585 329.059 674.518 329.059C674.444 329.059 674.364 329.029 674.275 328.939H674.498V328.569ZM675.699 319.181C675.718 319.227 675.737 319.274 675.756 319.322C675.736 319.272 675.715 319.225 675.695 319.179C675.54 318.828 675.377 318.569 675.219 318.382C675.381 318.571 675.545 318.831 675.699 319.181Z" fill="#9A3B82" stroke="black"/>
<path d="M722.101 177.834H651.981C648.059 177.834 644.891 174.667 644.891 170.747V100.657C644.891 96.7371 648.059 93.5703 651.981 93.5703H722.101C726.023 93.5703 729.191 96.7371 729.191 100.657V170.747C729.191 174.667 726.003 177.834 722.101 177.834Z" fill="#FFCF2D" stroke="black" stroke-width="0.5"/>
<path d="M716.981 173.386H645.481C641.421 173.386 638.141 170.107 638.141 166.049V94.5795C638.141 90.5213 641.421 87.2427 645.481 87.2427H716.981C721.041 87.2427 724.321 90.5213 724.321 94.5795V166.049C724.321 170.107 721.041 173.386 716.981 173.386Z" fill="white" stroke="black" stroke-miterlimit="10"/>
<path d="M681.242 163.29C699.468 163.29 714.242 148.522 714.242 130.304C714.242 112.087 699.468 97.3184 681.242 97.3184C663.017 97.3184 648.242 112.087 648.242 130.304C648.242 148.522 663.017 163.29 681.242 163.29Z" stroke="black" stroke-width="0.5" stroke-miterlimit="10"/>
<path d="M662.68 116.15L681.24 130.304L676.68 116.33" stroke="black" stroke-miterlimit="10" stroke-linecap="round"/>
<path d="M597.153 357.207L621.373 384.715H566.174L543.266 357.207H597.153Z" fill="#FFCF2D" stroke="black"/>
<path d="M653.099 386.694V404.287L608.299 404.466C602.559 404.486 597.899 399.848 597.899 394.111V388.653C597.899 385.015 596.559 381.516 594.159 378.817L579.379 362.225H634.559L648.679 376.159C651.519 378.937 653.099 382.716 653.099 386.694Z" fill="white" stroke="black" stroke-miterlimit="10"/>
<path d="M673.259 398.089C671.359 401.888 667.439 404.487 662.899 404.487H607.699C612.219 404.487 616.139 401.888 618.059 398.089H673.259Z" fill="white" stroke="black" stroke-miterlimit="10"/>
<path d="M639.039 288.516L605.359 229.382C597.319 215.248 582.299 206.531 566.039 206.531H439.899L444.319 196.995C443.959 197.775 442.059 197.975 439.159 197.575C434.719 196.975 427.959 195.036 420.759 191.838C416.639 190.018 412.899 188.119 409.799 186.36C403.939 183.021 400.399 180.103 400.979 178.803L336.579 284.378C322.439 304.989 337.199 332.997 362.199 332.997C365.559 332.997 368.879 332.457 372.039 331.398C375.199 330.338 378.179 328.779 380.859 326.76L430.319 289.596C433.299 287.357 437.559 289.096 438.159 292.754L444.619 332.997H613.139C635.999 333.017 650.339 308.348 639.039 288.516ZM564.079 293.134L569.479 280.859C570.399 278.76 573.359 278.72 574.319 280.799L580.179 293.154H564.079V293.134Z" fill="#FE5244"/>
<path d="M459.98 206.491C459.98 196.156 481.32 183.381 507.2 180.123C546.02 175.265 554.421 196.156 554.421 206.491" stroke="#FE5244" stroke-width="6" stroke-miterlimit="10"/>
<path d="M549.937 206.671C549.937 215.927 507.197 234.879 507.197 234.879C507.197 234.879 464.457 215.927 464.457 206.671C464.457 197.415 484.777 186.7 508.197 183.841C541.897 179.723 549.937 197.395 549.937 206.671Z" fill="#FE5244"/>
<path d="M549.937 206.671C549.937 215.927 507.197 234.879 507.197 234.879C507.197 234.879 464.457 215.927 464.457 206.671C464.457 206.631 464.457 206.591 464.457 206.551H549.937C549.937 206.571 549.937 206.611 549.937 206.671Z" fill="white"/>
<path d="M554.4 206.471C554.4 216.687 507.2 239.917 507.2 239.917C507.2 239.917 460 216.707 460 206.471" stroke="#4C4040" stroke-miterlimit="10"/>
<path d="M543.617 332.557C546.257 332.557 548.397 323.821 548.397 313.065C548.397 302.31 546.257 293.574 543.617 293.574" stroke="black" stroke-miterlimit="10" stroke-linecap="round"/>
<path d="M443.34 200.914L406.32 274.902" stroke="black" stroke-miterlimit="10"/>
<path d="M435.297 273.203L441.417 313.465" stroke="#1A1414" stroke-miterlimit="10" stroke-linecap="round"/>
<path d="M505.199 244.655H509.199" stroke="#4D4040" stroke-miterlimit="10" stroke-linecap="round"/>
<path d="M505.199 249.413H509.199" stroke="#4D4040" stroke-miterlimit="10" stroke-linecap="round"/>
<path d="M505.199 254.151H509.199" stroke="#4D4040" stroke-miterlimit="10" stroke-linecap="round"/>
<path d="M505.199 258.889H509.199" stroke="#4D4040" stroke-miterlimit="10" stroke-linecap="round"/>
<path d="M505.199 263.626H509.199" stroke="#4D4040" stroke-miterlimit="10" stroke-linecap="round"/>
<path d="M505.199 268.385H509.199" stroke="#4D4040" stroke-miterlimit="10" stroke-linecap="round"/>
<path d="M505.199 268.604H509.199" stroke="#4D4040" stroke-miterlimit="10" stroke-linecap="round"/>
<path d="M505.199 273.342H509.199" stroke="#4D4040" stroke-miterlimit="10" stroke-linecap="round"/>
<path d="M505.199 278.081H509.199" stroke="#4D4040" stroke-miterlimit="10" stroke-linecap="round"/>
<path d="M505.199 282.599H509.199" stroke="#4D4040" stroke-miterlimit="10" stroke-linecap="round"/>
<path d="M505.199 287.356H509.199" stroke="#4D4040" stroke-miterlimit="10" stroke-linecap="round"/>
<path d="M505.199 292.094H509.199" stroke="#4D4040" stroke-miterlimit="10" stroke-linecap="round"/>
<path d="M505.199 296.833H509.199" stroke="#4D4040" stroke-miterlimit="10" stroke-linecap="round"/>
<path d="M505.199 301.57H509.199" stroke="#4D4040" stroke-miterlimit="10" stroke-linecap="round"/>
<path d="M505.199 306.328H509.199" stroke="#4D4040" stroke-miterlimit="10" stroke-linecap="round"/>
<path d="M505.199 311.066H509.199" stroke="#4D4040" stroke-miterlimit="10" stroke-linecap="round"/>
<path d="M505.199 315.804H509.199" stroke="#4D4040" stroke-miterlimit="10" stroke-linecap="round"/>
<path d="M505.199 320.542H509.199" stroke="#4D4040" stroke-miterlimit="10" stroke-linecap="round"/>
<path d="M505.199 320.782H509.199" stroke="#4D4040" stroke-miterlimit="10" stroke-linecap="round"/>
<path d="M505.199 325.52H509.199" stroke="#4D4040" stroke-miterlimit="10" stroke-linecap="round"/>
<path d="M505.199 330.258H509.199" stroke="#4D4040" stroke-miterlimit="10" stroke-linecap="round"/>
<path d="M504.777 238.198V313.465" stroke="#4D4040" stroke-miterlimit="10"/>
<path d="M541.297 293.534H589.397" stroke="black" stroke-miterlimit="10" stroke-linecap="round"/>
<path d="M407.457 372.2H561.037L546.597 333.157H424.097L407.457 372.2Z" fill="white" stroke="black" stroke-miterlimit="10"/>
<path d="M407.457 372.201C407.457 366.683 422.097 356.707 445.877 355.348C471.337 353.908 484.677 369.902 484.297 372.201H407.457Z" fill="#283A4A"/>
<path d="M484.276 372.2C484.276 372.2 477.516 340.614 418.176 347.051L430.996 315.885C430.996 315.885 479.596 307.048 484.296 333.157L484.276 372.2Z" fill="white" stroke="black" stroke-miterlimit="10" stroke-linejoin="round"/>
<path d="M560.137 369.741C556.597 364.843 542.957 359.726 522.637 358.566C498.477 357.187 485.237 368.662 484.277 371.78V333.157C484.277 333.157 501.517 313.485 546.597 333.157L560.137 369.741Z" fill="white" stroke="black" stroke-miterlimit="10" stroke-linejoin="round"/>
<path d="M539.398 353.588C534.358 352.309 528.258 351.349 521.298 350.949C517.838 350.749 514.618 350.849 511.658 351.169C504.318 351.989 498.538 354.188 494.418 356.547" stroke="black" stroke-miterlimit="10" stroke-linecap="round" stroke-linejoin="round"/>
<path d="M537.615 346.931C532.795 345.792 527.055 344.932 520.575 344.552C517.115 344.352 513.895 344.452 510.935 344.772C503.595 345.592 497.815 347.791 493.695 350.15" stroke="black" stroke-miterlimit="10" stroke-linecap="round" stroke-linejoin="round"/>
<path d="M535.976 340.294C531.376 339.274 526.036 338.515 520.036 338.155C516.576 337.955 513.356 338.055 510.396 338.375C503.056 339.194 497.276 341.394 493.156 343.752" stroke="black" stroke-miterlimit="10" stroke-linecap="round" stroke-linejoin="round"/>
<path d="M542.578 331.398L555.298 366.023" stroke="black" stroke-miterlimit="10"/>
<path d="M561.057 372.2H484.277V371.781C485.237 368.662 498.477 357.187 522.637 358.566C542.957 359.726 556.597 364.844 560.137 369.741L561.057 372.2Z" fill="#283A4A"/>
<path d="M531.701 206.531C531.701 206.531 517.381 213.988 497.501 210.99C492.561 210.25 487.261 208.85 481.781 206.531V182.462L507.541 166.429L511.401 172.846L531.701 206.531Z" fill="#E6A19B"/>
<path d="M508.961 168.328C510.501 171.186 510.761 174.585 509.641 177.644L497.501 210.989C492.561 210.25 487.261 208.85 481.781 206.531V182.462L507.661 165.929L508.961 168.328Z" fill="#BA6F69"/>
<path d="M506.74 157.552C506.74 157.552 509.76 130.704 499.02 128.245C490.82 126.366 486.74 132.543 486.74 132.543C486.74 132.543 482.3 126.066 475.42 129.105C468.88 131.983 469.34 140.959 472.28 140.24C475.22 139.52 469.44 133.763 463.26 138.021C456.42 142.719 463.26 150.475 463.26 150.475C463.26 150.475 458.2 148.036 455.86 153.014C452.96 159.192 469.52 172.506 469.52 172.506L506.74 157.552Z" fill="#462825"/>
<path d="M490.382 144.578L473.202 151.475C469.062 153.134 467.042 157.872 468.702 161.99L476.202 180.682C478.962 187.579 486.882 190.938 493.762 188.179L500.902 185.32C507.802 182.561 511.162 174.645 508.402 167.768L500.902 149.076C499.242 144.938 494.502 142.918 490.382 144.578Z" fill="#E6A19B"/>
<path d="M511.861 166.368L508.401 167.768L504.641 158.412L508.101 157.012C510.161 156.193 512.481 157.192 513.301 159.231L514.081 161.17C514.921 163.21 513.921 165.529 511.861 166.368Z" fill="#E6A19B"/>
<path d="M472.482 181.402L475.942 180.002L472.442 171.306L468.982 172.706C466.922 173.525 465.942 175.864 466.762 177.903L467.282 179.183C468.102 181.222 470.422 182.221 472.482 181.402Z" fill="#BA6F69"/>
<path d="M507.641 163.369C507.001 161.75 507.781 159.931 509.401 159.271" stroke="#BA6F69" stroke-width="5" stroke-miterlimit="10" stroke-linecap="round"/>
<path d="M490.824 154.714C490.824 154.714 494.884 156.233 500.044 153.794" stroke="#64504E" stroke-width="1.2" stroke-miterlimit="10" stroke-linecap="round"/>
<path d="M482.242 161.551C482.242 161.551 488.302 160.931 490.502 171.127" stroke="#64504E" stroke-width="1.2" stroke-miterlimit="10" stroke-linecap="round"/>
<path d="M499.628 174.623C499.628 174.623 490.688 172.224 491.008 176.842" stroke="#64504E" stroke-width="1.2" stroke-miterlimit="10" stroke-linecap="round"/>
<path d="M498.192 164.989C498.619 164.838 498.663 163.864 498.291 162.812C497.918 161.761 497.27 161.032 496.843 161.183C496.416 161.334 496.372 162.309 496.745 163.36C497.117 164.411 497.765 165.14 498.192 164.989Z" fill="#BA6F69"/>
<path d="M481.696 171.869C482.123 171.718 482.167 170.743 481.795 169.692C481.422 168.641 480.774 167.912 480.347 168.063C479.92 168.214 479.876 169.189 480.249 170.24C480.621 171.291 481.269 172.02 481.696 171.869Z" fill="#BA6F69"/>
<path d="M498.003 168.827C501.195 168.827 503.783 166.241 503.783 163.05C503.783 159.859 501.195 157.272 498.003 157.272C494.81 157.272 492.223 159.859 492.223 163.05C492.223 166.241 494.81 168.827 498.003 168.827Z" stroke="#FFCF2D" stroke-miterlimit="10" stroke-linecap="round"/>
<path d="M481.003 175.425C484.195 175.425 486.783 172.838 486.783 169.647C486.783 166.456 484.195 163.87 481.003 163.87C477.81 163.87 475.223 166.456 475.223 169.647C475.223 172.838 477.81 175.425 481.003 175.425Z" stroke="#FFCF2D" stroke-miterlimit="10" stroke-linecap="round"/>
<path d="M486.402 167.568L492.502 164.769" stroke="#FFCF2D" stroke-miterlimit="10" stroke-linecap="round"/>
<path d="M445.519 194.796C445.179 195.576 443.259 195.776 440.359 195.376C435.919 194.776 429.159 192.837 421.959 189.639C417.839 187.799 414.099 185.92 411.019 184.161C405.159 180.822 401.619 177.904 402.199 176.604C402.779 175.325 407.279 175.944 413.639 178.004C417.059 179.103 420.999 180.622 425.159 182.482C432.279 185.64 438.459 188.719 442.099 191.098C444.579 192.697 445.879 193.997 445.519 194.796Z" fill="#69302B" stroke="#FE5244" stroke-width="6" stroke-miterlimit="10"/>
<path d="M479.46 154.254L474.02 175.265L469.12 163.07C467.24 158.392 469.5 153.034 474.12 151.075L479.46 154.254Z" fill="#564948"/>
<path d="M479.66 153.874L468.86 172.586C467.62 174.745 465.3 176.084 462.8 176.084H451.64C450 176.084 448.54 177.084 447.92 178.583L442.12 191.118L440.42 194.776C435.52 194.117 428.7 191.998 422.18 189.099C419.74 188.019 417.36 186.88 415.16 185.74L418.1 179.603L423.36 168.628C425.88 162.69 430.22 157.692 435.76 154.374L446.64 147.837C448.08 146.977 449.74 146.517 451.42 146.517H469.9C470.92 146.517 471.92 146.737 472.82 147.177L478.38 149.816C479.92 150.555 480.5 152.415 479.66 153.874Z" fill="#E6A19B"/>
<path d="M453.539 154.474H466.739C467.719 154.474 468.679 154.694 469.559 155.113L474.899 157.672C476.359 158.372 476.919 160.171 476.119 161.571" stroke="#564948" stroke-miterlimit="10" stroke-linecap="round"/>
<path d="M450.258 160.151H463.458C464.438 160.151 465.398 160.371 466.278 160.791L471.618 163.35C473.078 164.05 473.638 165.849 472.838 167.248" stroke="#564948" stroke-miterlimit="10" stroke-linecap="round"/>
<path d="M446.398 167.568H459.598C460.578 167.568 461.538 167.788 462.418 168.208L467.758 170.766C469.218 171.466 469.778 173.265 468.978 174.665" stroke="#564948" stroke-miterlimit="10" stroke-linecap="round"/>
<path d="M440.44 194.777C435.54 194.117 428.72 191.998 422.2 189.099C419.76 188.019 417.38 186.88 415.18 185.74L418.5 178.963C420.72 179.803 422.9 180.763 425.34 181.862C432.46 185.021 438.68 188.319 442.32 190.698L440.44 194.777Z" fill="#BA6F69"/>
<path d="M442.5 175.544H451.86" stroke="#564948" stroke-miterlimit="10" stroke-linecap="round"/>
<path d="M541.218 332.997C543.857 332.997 545.998 324.074 545.998 313.066C545.998 302.058 543.857 293.134 541.218 293.134C538.578 293.134 536.438 302.058 536.438 313.066C536.438 324.074 538.578 332.997 541.218 332.997Z" fill="#69302B"/>
<path d="M545.998 313.066C545.998 316.484 545.798 319.703 545.418 322.522C544.178 325.68 541.638 328.179 538.438 329.359C537.138 329.838 535.718 330.118 534.238 330.118H516.098C513.818 330.118 511.958 331.978 511.958 334.257V334.816C511.958 338.155 508.398 340.314 505.438 338.755L496.918 334.297C495.398 333.497 494.438 331.918 494.438 330.198V323.541C494.438 321.042 495.618 318.703 497.598 317.204L510.598 307.428C512.798 305.769 515.478 304.889 518.218 304.889H545.558C545.858 307.388 545.998 310.147 545.998 313.066Z" fill="#E6A19B"/>
<path d="M513.879 311.327L501.939 320.303C500.119 321.682 499.039 323.841 499.039 326.12V332.238C499.039 333.817 499.919 335.276 501.319 335.996" stroke="#564948" stroke-miterlimit="10" stroke-linecap="round"/>
<path d="M519.957 314.005L508.017 322.982C506.197 324.361 505.117 326.52 505.117 328.799V334.916C505.117 336.496 505.997 337.955 507.397 338.675" stroke="#564948" stroke-miterlimit="10" stroke-linecap="round"/>
<path d="M545.998 313.066C545.998 316.484 545.798 319.703 545.418 322.522C544.178 325.68 541.638 328.179 538.438 329.359C537.218 325.74 536.418 319.803 536.418 313.066C536.418 310.147 536.578 307.388 536.838 304.889H545.578C545.858 307.388 545.998 310.147 545.998 313.066Z" fill="#BA6F69"/>
<path d="M580.739 342.114C592.712 342.114 602.419 341.299 602.419 340.294C602.419 339.29 592.712 338.475 580.739 338.475C568.765 338.475 559.059 339.29 559.059 340.294C559.059 341.299 568.765 342.114 580.739 342.114Z" fill="#FFCF2D"/>
<path d="M598.777 341.674H589.817C581.497 341.674 574.777 334.937 574.777 326.64V313.866H613.837V326.62C613.837 334.937 607.097 341.674 598.777 341.674Z" fill="white" stroke="#FFCF2D" stroke-miterlimit="10"/>
<path d="M619.3 324.801H613.82V315.065H619.3C621.64 315.065 623.56 316.964 623.56 319.323V320.563C623.56 322.902 621.64 324.801 619.3 324.801Z" stroke="#FFCF2D" stroke-miterlimit="10"/>
<path d="M594.298 317.664C605.178 317.664 613.998 315.901 613.998 313.725C613.998 311.55 605.178 309.787 594.298 309.787C583.418 309.787 574.598 311.55 574.598 313.725C574.598 315.901 583.418 317.664 594.298 317.664Z" fill="#3FB1B5" stroke="white" stroke-miterlimit="10"/>
<path d="M574.797 316.924C574.797 319.103 583.537 320.863 594.297 320.863C605.057 320.863 613.797 319.103 613.797 316.924" stroke="#FFCF2D" stroke-miterlimit="10"/>
<path d="M574.797 321.103C574.797 323.282 583.537 325.041 594.297 325.041C605.057 325.041 613.797 323.282 613.797 321.103" stroke="#FFCF2D" stroke-miterlimit="10"/>
<path d="M574.797 325.281C574.797 327.46 583.537 329.219 594.297 329.219C605.057 329.219 613.797 327.46 613.797 325.281" stroke="#FFCF2D" stroke-miterlimit="10"/>
<path d="M575.098 329.459C575.098 331.638 583.698 333.397 594.298 333.397C604.898 333.397 613.498 331.638 613.498 329.459" stroke="#FFCF2D" stroke-miterlimit="10"/>
<path d="M576.598 333.637C576.598 335.816 584.518 337.576 594.298 337.576C604.078 337.576 611.998 335.816 611.998 333.637" stroke="#FFCF2D" stroke-miterlimit="10"/>
<path d="M593.518 306.729C591.598 305.409 585.618 292.835 593.018 287.697C598.698 283.738 599.798 293.994 597.178 293.134C592.618 291.635 589.838 271.564 601.738 272.803C606.978 273.343 606.398 280.8 601.738 281" stroke="black" stroke-miterlimit="10" stroke-linecap="round"/>
<path d="M360.922 365.463H262.622C259.982 365.463 257.622 363.864 256.642 361.425L229.742 294.974C228.462 291.795 230.802 288.316 234.222 288.316H332.522C335.162 288.316 337.522 289.916 338.502 292.355L365.402 358.806C366.702 361.985 364.362 365.463 360.922 365.463Z" fill="white" stroke="black" stroke-miterlimit="10"/>
<path d="M356.362 365.443H262.582C260.285 365.443 258.209 364.047 257.345 361.917L231.686 298.525C231.686 298.525 231.686 298.525 231.686 298.525C230.598 295.814 232.577 292.875 235.502 292.875H329.282C331.579 292.875 333.655 294.271 334.519 296.401L360.178 359.792C361.266 362.502 359.268 365.443 356.362 365.443Z" fill="#FFCF2D" stroke="black"/>
<path d="M298.78 337.115C296.02 337.115 293.42 336.036 291.46 334.077C289.86 332.477 288.98 330.358 288.98 328.119C288.98 325.86 289.86 323.741 291.46 322.162C292.76 320.862 294.5 320.143 296.34 320.143C298.18 320.143 299.92 320.862 301.22 322.162C303.44 324.381 303.44 327.979 301.22 330.198C299.38 332.037 296.4 332.037 294.56 330.198C294.24 329.878 294.24 329.379 294.56 329.059C294.88 328.739 295.38 328.739 295.7 329.059C296.92 330.278 298.88 330.278 300.1 329.059C301.7 327.459 301.7 324.881 300.1 323.281C299.1 322.282 297.76 321.722 296.34 321.722C294.92 321.722 293.58 322.282 292.58 323.281C291.28 324.581 290.58 326.28 290.58 328.119C290.58 329.938 291.3 331.658 292.58 332.957C294.24 334.616 296.42 335.516 298.76 335.516C301.1 335.516 303.3 334.616 304.94 332.957C305.26 332.637 305.76 332.637 306.08 332.957C306.4 333.277 306.4 333.777 306.08 334.097C304.14 336.036 301.54 337.115 298.78 337.115Z" fill="white"/>
<path d="M396.101 372.5H262.741C261.201 372.5 259.961 371.261 259.961 369.721V368.382C259.961 366.842 261.201 365.603 262.741 365.603H396.101C397.641 365.603 398.881 366.842 398.881 368.382V369.721C398.861 371.261 397.621 372.5 396.101 372.5Z" fill="white" stroke="black" stroke-miterlimit="10"/>
</svg>
